<?xml version="1.0" standalone="no"?>
<!DOCTYPE svg PUBLIC "-//W3C//DTD SVG 1.1//EN" "http://www.w3.org/Graphics/SVG/1.1/DTD/svg11.dtd" >
<svg xmlns="http://www.w3.org/2000/svg">
<metadata>
This is a custom SVG webfont generated by Font Squirrel.
Designer    : Oleg Zhuravlev, Jovanny Lemonad
Foundry     : Oleg Zhuravlev (Creatica), Jovanny Lemonad
Foundry URL : http://jovanny.ru
</metadata>
<defs>
<font id="webfontH2RcI8mT" horiz-adv-x="472" >
<font-face units-per-em="1000" ascent="800" descent="-200" />
<missing-glyph horiz-adv-x="200" />
<glyph unicode=" "  horiz-adv-x="200" />
<glyph unicode="&#x09;" horiz-adv-x="200" />
<glyph unicode="&#xa0;" horiz-adv-x="200" />
<glyph unicode="!" horiz-adv-x="182" d="M133 42q0 -17 -12.5 -29.5t-29.5 -12.5t-29.5 12.5t-12.5 29.5t12.5 29t29.5 12t29.5 -12t12.5 -29zM122 155q0 -13 -9 -22t-22 -9t-22 9t-9 22t9 22t22 9t22 -9t9 -22zM122 217q0 -13 -9 -22t-22 -9t-22 9t-9 22t9 22t22 9t22 -9t9 -22zM122 279q0 -13 -9 -22t-22 -9 t-22 9t-9 22t9 22t22 9t22 -9t9 -22zM122 341q0 -13 -9 -22t-22 -9t-22 9t-9 22t9 22t22 9t22 -9t9 -22zM122 403q0 -13 -9 -22t-22 -9t-22 9t-9 22t9 22t22 9t22 -9t9 -22zM122 465q0 -13 -9 -22t-22 -9t-22 9t-9 22t9 22t22 9t22 -9t9 -22zM122 527q0 -13 -9 -22t-22 -9 t-22 9t-9 22t9 22t22 9t22 -9t9 -22zM122 589q0 -13 -9 -22t-22 -9t-22 9t-9 22t9 22t22 9t22 -9t9 -22z" />
<glyph unicode="&#x22;" horiz-adv-x="258" d="M218 579q0 -17 -12.5 -29.5t-29.5 -12.5t-29.5 12.5t-12.5 29.5t12.5 29t29.5 12t29.5 -12t12.5 -29zM195 437q0 -8 -5.5 -13.5t-13.5 -5.5t-13.5 5.5t-5.5 13.5q0 7 5.5 12.5t13.5 5.5t13.5 -5.5t5.5 -12.5zM207 496q0 -13 -9 -22t-22 -9t-22 9t-9 22t9 22t22 9t22 -9 t9 -22zM124 579q0 -17 -12.5 -29.5t-29.5 -12.5t-29.5 12.5t-12.5 29.5t12.5 29t29.5 12t29.5 -12t12.5 -29zM101 437q0 -8 -5.5 -13.5t-13.5 -5.5t-13.5 5.5t-5.5 13.5q0 7 5.5 12.5t13.5 5.5t13.5 -5.5t5.5 -12.5zM113 496q0 -13 -9 -22t-22 -9t-22 9t-9 22t9 22t22 9 t22 -9t9 -22z" />
<glyph unicode="#" horiz-adv-x="452" d="M288 155q0 -13 -9 -22t-22 -9t-22 9t-9 22t9 22t22 9t22 -9t9 -22zM350 155q0 -13 -9 -22t-22 -9t-22 9t-9 22t9 22t22 9t22 -9t9 -22zM412 155q0 -13 -9 -22t-22 -9t-22 9t-9 22t9 22t22 9t22 -9t9 -22zM226 155q0 -13 -9 -22t-22 -9t-22 9t-9 22t9 22t22 9t22 -9t9 -22 zM288 465q0 -13 -9 -22t-22 -9t-22 9t-9 22t9 22t22 9t22 -9t9 -22zM350 465q0 -13 -9 -22t-22 -9t-22 9t-9 22t9 22t22 9t22 -9t9 -22zM412 465q0 -13 -9 -22t-22 -9t-22 9t-9 22t9 22t22 9t22 -9t9 -22zM226 465q0 -13 -9 -22t-22 -9t-22 9t-9 22t9 22t22 9t22 -9t9 -22z M164 31q0 -13 -9 -22t-22 -9t-22 9t-9 22t9 22t22 9t22 -9t9 -22zM164 465q0 -13 -9 -22t-22 -9t-22 9t-9 22t9 22t22 9t22 -9t9 -22zM164 527q0 -13 -9 -22t-22 -9t-22 9t-9 22t9 22t22 9t22 -9t9 -22zM164 589q0 -13 -9 -22t-22 -9t-22 9t-9 22t9 22t22 9t22 -9t9 -22z M164 93q0 -13 -9 -22t-22 -9t-22 9t-9 22t9 22t22 9t22 -9t9 -22zM164 155q0 -13 -9 -22t-22 -9t-22 9t-9 22t9 22t22 9t22 -9t9 -22zM164 217q0 -13 -9 -22t-22 -9t-22 9t-9 22t9 22t22 9t22 -9t9 -22zM164 279q0 -13 -9 -22t-22 -9t-22 9t-9 22t9 22t22 9t22 -9t9 -22z M164 341q0 -13 -9 -22t-22 -9t-22 9t-9 22t9 22t22 9t22 -9t9 -22zM164 403q0 -13 -9 -22t-22 -9t-22 9t-9 22t9 22t22 9t22 -9t9 -22zM350 31q0 -13 -9 -22t-22 -9t-22 9t-9 22t9 22t22 9t22 -9t9 -22zM350 93q0 -13 -9 -22t-22 -9t-22 9t-9 22t9 22t22 9t22 -9t9 -22z M350 217q0 -13 -9 -22t-22 -9t-22 9t-9 22t9 22t22 9t22 -9t9 -22zM350 279q0 -13 -9 -22t-22 -9t-22 9t-9 22t9 22t22 9t22 -9t9 -22zM350 341q0 -13 -9 -22t-22 -9t-22 9t-9 22t9 22t22 9t22 -9t9 -22zM350 403q0 -13 -9 -22t-22 -9t-22 9t-9 22t9 22t22 9t22 -9t9 -22z M102 155q0 -13 -9 -22t-22 -9t-22 9t-9 22t9 22t22 9t22 -9t9 -22zM102 465q0 -13 -9 -22t-22 -9t-22 9t-9 22t9 22t22 9t22 -9t9 -22zM350 527q0 -13 -9 -22t-22 -9t-22 9t-9 22t9 22t22 9t22 -9t9 -22zM350 589q0 -13 -9 -22t-22 -9t-22 9t-9 22t9 22t22 9t22 -9t9 -22z " />
<glyph unicode="$" horiz-adv-x="442" d="M92 403q0 -13 -9 -22t-22 -9t-22 9t-9 22t9 22t22 9t22 -9t9 -22zM92 465q0 -13 -9 -22t-22 -9t-22 9t-9 22t9 22t22 9t22 -9t9 -22zM92 527q0 -13 -9 -22t-22 -9t-22 9t-9 22t9 22t22 9t22 -9t9 -22zM92 93q0 -13 -9 -22t-22 -9t-22 9t-9 22t9 22t22 9t22 -9t9 -22z M402 155q0 -13 -9 -22t-22 -9t-22 9t-9 22t9 22t22 9t22 -9t9 -22zM402 217q0 -13 -9 -22t-22 -9t-22 9t-9 22t9 22t22 9t22 -9t9 -22zM402 279q0 -13 -9 -22t-22 -9t-22 9t-9 22t9 22t22 9t22 -9t9 -22zM402 527q0 -13 -9 -22t-22 -9t-22 9t-9 22t9 22t22 9t22 -9t9 -22z M402 93q0 -13 -9 -22t-22 -9t-22 9t-9 22t9 22t22 9t22 -9t9 -22zM216 589q0 -13 -9 -22t-22 -9t-22 9t-9 22t9 22t22 9t22 -9t9 -22zM278 589q0 -13 -9 -22t-22 -9t-22 9t-9 22t9 22t22 9t22 -9t9 -22zM340 589q0 -13 -9 -22t-22 -9t-22 9t-9 22t9 22t22 9t22 -9t9 -22z M154 589q0 -13 -9 -22t-22 -9t-22 9t-9 22t9 22t22 9t22 -9t9 -22zM216 341q0 -13 -9 -22t-22 -9t-22 9t-9 22t9 22t22 9t22 -9t9 -22zM278 341q0 -13 -9 -22t-22 -9t-22 9t-9 22t9 22t22 9t22 -9t9 -22zM340 341q0 -13 -9 -22t-22 -9t-22 9t-9 22t9 22t22 9t22 -9t9 -22z M154 341q0 -13 -9 -22t-22 -9t-22 9t-9 22t9 22t22 9t22 -9t9 -22zM216 31q0 -13 -9 -22t-22 -9t-22 9t-9 22t9 22t22 9t22 -9t9 -22zM278 31q0 -13 -9 -22t-22 -9t-22 9t-9 22t9 22t22 9t22 -9t9 -22zM340 31q0 -13 -9 -22t-22 -9t-22 9t-9 22t9 22t22 9t22 -9t9 -22z M154 31q0 -13 -9 -22t-22 -9t-22 9t-9 22t9 22t22 9t22 -9t9 -22zM247 -31q0 -13 -9 -22t-22 -9t-22 9t-9 22t9 22t22 9t22 -9t9 -22zM247 93q0 -13 -9 -22t-22 -9t-22 9t-9 22t9 22t22 9t22 -9t9 -22zM247 155q0 -13 -9 -22t-22 -9t-22 9t-9 22t9 22t22 9t22 -9t9 -22z M247 217q0 -13 -9 -22t-22 -9t-22 9t-9 22t9 22t22 9t22 -9t9 -22zM247 279q0 -13 -9 -22t-22 -9t-22 9t-9 22t9 22t22 9t22 -9t9 -22zM247 403q0 -13 -9 -22t-22 -9t-22 9t-9 22t9 22t22 9t22 -9t9 -22zM247 465q0 -13 -9 -22t-22 -9t-22 9t-9 22t9 22t22 9t22 -9t9 -22z M247 527q0 -13 -9 -22t-22 -9t-22 9t-9 22t9 22t22 9t22 -9t9 -22zM247 651q0 -13 -9 -22t-22 -9t-22 9t-9 22t9 22t22 9t22 -9t9 -22z" />
<glyph unicode="&#x26;" horiz-adv-x="536" d="M102 279q0 13 9 22t22 9t22 -9t9 -22t-9 -22t-22 -9t-22 9t-9 22zM102 403q0 13 9 22t22 9t22 -9t9 -22t-9 -22t-22 -9t-22 9t-9 22zM40 465q0 13 9 22t22 9t22 -9t9 -22t-9 -22t-22 -9t-22 9t-9 22zM40 217q0 13 9 22t22 9t22 -9t9 -22t-9 -22t-22 -9t-22 9t-9 22z M164 341q0 13 9 22t22 9t22 -9t9 -22t-9 -22t-22 -9t-22 9t-9 22zM288 93q0 13 9 22t22 9t22 -9t9 -22t-9 -22t-22 -9t-22 9t-9 22zM288 217q0 13 9 22t22 9t22 -9t9 -22t-9 -22t-22 -9t-22 9t-9 22zM226 279q0 13 9 22t22 9t22 -9t9 -22t-9 -22t-22 -9t-22 9t-9 22zM226 31 q0 13 9 22t22 9t22 -9t9 -22t-9 -22t-22 -9t-22 9t-9 22zM350 155q0 13 9 22t22 9t22 -9t9 -22t-9 -22t-22 -9t-22 9t-9 22zM102 155q0 -13 -9 -22t-22 -9t-22 9t-9 22t9 22t22 9t22 -9t9 -22zM102 527q0 -13 -9 -22t-22 -9t-22 9t-9 22t9 22t22 9t22 -9t9 -22zM102 93 q0 -13 -9 -22t-22 -9t-22 9t-9 22t9 22t22 9t22 -9t9 -22zM164 31q0 -13 -9 -22t-22 -9t-22 9t-9 22t9 22t22 9t22 -9t9 -22zM164 589q0 -13 -9 -22t-22 -9t-22 9t-9 22t9 22t22 9t22 -9t9 -22zM226 31q0 -13 -9 -22t-22 -9t-22 9t-9 22t9 22t22 9t22 -9t9 -22zM226 589 q0 -13 -9 -22t-22 -9t-22 9t-9 22t9 22t22 9t22 -9t9 -22zM288 589q0 -13 -9 -22t-22 -9t-22 9t-9 22t9 22t22 9t22 -9t9 -22zM350 527q0 -13 -9 -22t-22 -9t-22 9t-9 22t9 22t22 9t22 -9t9 -22zM474 217q0 -13 -9 -22t-22 -9t-22 9t-9 22t9 22t22 9t22 -9t9 -22zM474 93 q0 -13 -9 -22t-22 -9t-22 9t-9 22t9 22t22 9t22 -9t9 -22zM536 31q0 -13 -9 -22t-22 -9t-22 9t-9 22t9 22t22 9t22 -9t9 -22z" />
<glyph unicode="'" horiz-adv-x="164" d="M124 579q0 -17 -12.5 -29.5t-29.5 -12.5t-29.5 12.5t-12.5 29.5t12.5 29t29.5 12t29.5 -12t12.5 -29zM101 437q0 -8 -5.5 -13.5t-13.5 -5.5t-13.5 5.5t-5.5 13.5q0 7 5.5 12.5t13.5 5.5t13.5 -5.5t5.5 -12.5zM113 496q0 -13 -9 -22t-22 -9t-22 9t-9 22t9 22t22 9t22 -9 t9 -22z" />
<glyph unicode="(" horiz-adv-x="204" d="M102 31q0 -13 -9 -22t-22 -9t-22 9t-9 22t9 22t22 9t22 -9t9 -22zM102 465q0 -13 -9 -22t-22 -9t-22 9t-9 22t9 22t22 9t22 -9t9 -22zM102 527q0 -13 -9 -22t-22 -9t-22 9t-9 22t9 22t22 9t22 -9t9 -22zM102 589q0 -13 -9 -22t-22 -9t-22 9t-9 22t9 22t22 9t22 -9t9 -22z M102 93q0 -13 -9 -22t-22 -9t-22 9t-9 22t9 22t22 9t22 -9t9 -22zM102 155q0 -13 -9 -22t-22 -9t-22 9t-9 22t9 22t22 9t22 -9t9 -22zM102 217q0 -13 -9 -22t-22 -9t-22 9t-9 22t9 22t22 9t22 -9t9 -22zM102 279q0 -13 -9 -22t-22 -9t-22 9t-9 22t9 22t22 9t22 -9t9 -22z M102 341q0 -13 -9 -22t-22 -9t-22 9t-9 22t9 22t22 9t22 -9t9 -22zM102 403q0 -13 -9 -22t-22 -9t-22 9t-9 22t9 22t22 9t22 -9t9 -22zM164 651q0 -13 -9 -22t-22 -9t-22 9t-9 22t9 22t22 9t22 -9t9 -22zM164 -31q0 -13 -9 -22t-22 -9t-22 9t-9 22t9 22t22 9t22 -9t9 -22z " />
<glyph unicode=")" horiz-adv-x="204" d="M164 31q0 -13 -9 -22t-22 -9t-22 9t-9 22t9 22t22 9t22 -9t9 -22zM164 465q0 -13 -9 -22t-22 -9t-22 9t-9 22t9 22t22 9t22 -9t9 -22zM164 527q0 -13 -9 -22t-22 -9t-22 9t-9 22t9 22t22 9t22 -9t9 -22zM164 589q0 -13 -9 -22t-22 -9t-22 9t-9 22t9 22t22 9t22 -9t9 -22z M164 93q0 -13 -9 -22t-22 -9t-22 9t-9 22t9 22t22 9t22 -9t9 -22zM164 155q0 -13 -9 -22t-22 -9t-22 9t-9 22t9 22t22 9t22 -9t9 -22zM164 217q0 -13 -9 -22t-22 -9t-22 9t-9 22t9 22t22 9t22 -9t9 -22zM164 279q0 -13 -9 -22t-22 -9t-22 9t-9 22t9 22t22 9t22 -9t9 -22z M164 341q0 -13 -9 -22t-22 -9t-22 9t-9 22t9 22t22 9t22 -9t9 -22zM164 403q0 -13 -9 -22t-22 -9t-22 9t-9 22t9 22t22 9t22 -9t9 -22zM40 651q0 13 9 22t22 9t22 -9t9 -22t-9 -22t-22 -9t-22 9t-9 22zM40 -31q0 13 9 22t22 9t22 -9t9 -22t-9 -22t-22 -9t-22 9t-9 22z" />
<glyph unicode="*" horiz-adv-x="328" d="M102 403q0 -13 -9 -22t-22 -9t-22 9t-9 22t9 22t22 9t22 -9t9 -22zM102 589q0 -13 -9 -22t-22 -9t-22 9t-9 22t9 22t22 9t22 -9t9 -22zM164 465q0 -13 -9 -22t-22 -9t-22 9t-9 22t9 22t22 9t22 -9t9 -22zM164 527q0 -13 -9 -22t-22 -9t-22 9t-9 22t9 22t22 9t22 -9t9 -22 zM226 465q0 -13 -9 -22t-22 -9t-22 9t-9 22t9 22t22 9t22 -9t9 -22zM226 527q0 -13 -9 -22t-22 -9t-22 9t-9 22t9 22t22 9t22 -9t9 -22zM288 403q0 -13 -9 -22t-22 -9t-22 9t-9 22t9 22t22 9t22 -9t9 -22zM288 589q0 -13 -9 -22t-22 -9t-22 9t-9 22t9 22t22 9t22 -9t9 -22z " />
<glyph unicode="+" horiz-adv-x="390" d="M164 279q0 -13 -9 -22t-22 -9t-22 9t-9 22t9 22t22 9t22 -9t9 -22zM226 279q0 -13 -9 -22t-22 -9t-22 9t-9 22t9 22t22 9t22 -9t9 -22zM288 279q0 -13 -9 -22t-22 -9t-22 9t-9 22t9 22t22 9t22 -9t9 -22zM102 279q0 -13 -9 -22t-22 -9t-22 9t-9 22t9 22t22 9t22 -9t9 -22 zM226 217q0 -13 -9 -22t-22 -9t-22 9t-9 22t9 22t22 9t22 -9t9 -22zM226 341q0 -13 -9 -22t-22 -9t-22 9t-9 22t9 22t22 9t22 -9t9 -22zM226 403q0 -13 -9 -22t-22 -9t-22 9t-9 22t9 22t22 9t22 -9t9 -22zM350 279q0 -13 -9 -22t-22 -9t-22 9t-9 22t9 22t22 9t22 -9t9 -22z M226 155q0 -13 -9 -22t-22 -9t-22 9t-9 22t9 22t22 9t22 -9t9 -22z" />
<glyph unicode="," horiz-adv-x="175" d="M135 42q0 -17 -12.5 -29.5t-29.5 -12.5t-29.5 12.5t-12.5 29.5t12.5 29t29.5 12t29.5 -12t12.5 -29zM93 -35q0 -13 -9 -22t-22 -9t-22 9t-9 22t9 22t22 9t22 -9t9 -22zM58 -89q0 -8 -5.5 -13.5t-13.5 -5.5t-13.5 5.5t-5.5 13.5q0 7 5.5 12.5t13.5 5.5t13.5 -5.5 t5.5 -12.5z" />
<glyph unicode="-" horiz-adv-x="328" d="M164 279q0 -13 -9 -22t-22 -9t-22 9t-9 22t9 22t22 9t22 -9t9 -22zM226 279q0 -13 -9 -22t-22 -9t-22 9t-9 22t9 22t22 9t22 -9t9 -22zM288 279q0 -13 -9 -22t-22 -9t-22 9t-9 22t9 22t22 9t22 -9t9 -22zM102 279q0 -13 -9 -22t-22 -9t-22 9t-9 22t9 22t22 9t22 -9t9 -22 z" />
<glyph unicode="." horiz-adv-x="164" d="M124 42q0 -17 -12.5 -29.5t-29.5 -12.5t-29.5 12.5t-12.5 29.5t12.5 29t29.5 12t29.5 -12t12.5 -29z" />
<glyph unicode="/" horiz-adv-x="248" d="M62 31q0 -13 -9 -22t-22 -9t-22 9t-9 22t9 22t22 9t22 -9t9 -22zM62 93q0 -13 -9 -22t-22 -9t-22 9t-9 22t9 22t22 9t22 -9t9 -22zM124 155q0 -13 -9 -22t-22 -9t-22 9t-9 22t9 22t22 9t22 -9t9 -22zM124 217q0 -13 -9 -22t-22 -9t-22 9t-9 22t9 22t22 9t22 -9t9 -22z M124 279q0 -13 -9 -22t-22 -9t-22 9t-9 22t9 22t22 9t22 -9t9 -22zM186 341q0 -13 -9 -22t-22 -9t-22 9t-9 22t9 22t22 9t22 -9t9 -22zM186 403q0 -13 -9 -22t-22 -9t-22 9t-9 22t9 22t22 9t22 -9t9 -22zM186 465q0 -13 -9 -22t-22 -9t-22 9t-9 22t9 22t22 9t22 -9t9 -22z M248 527q0 -13 -9 -22t-22 -9t-22 9t-9 22t9 22t22 9t22 -9t9 -22zM248 589q0 -13 -9 -22t-22 -9t-22 9t-9 22t9 22t22 9t22 -9t9 -22z" />
<glyph unicode="0" horiz-adv-x="492" d="M246 31q0 -13 -9 -22t-22 -9t-22 9t-9 22t9 22t22 9t22 -9t9 -22zM308 31q0 -13 -9 -22t-22 -9t-22 9t-9 22t9 22t22 9t22 -9t9 -22zM370 31q0 -13 -9 -22t-22 -9t-22 9t-9 22t9 22t22 9t22 -9t9 -22zM184 31q0 -13 -9 -22t-22 -9t-22 9t-9 22t9 22t22 9t22 -9t9 -22z M246 589q0 -13 -9 -22t-22 -9t-22 9t-9 22t9 22t22 9t22 -9t9 -22zM308 589q0 -13 -9 -22t-22 -9t-22 9t-9 22t9 22t22 9t22 -9t9 -22zM370 589q0 -13 -9 -22t-22 -9t-22 9t-9 22t9 22t22 9t22 -9t9 -22zM184 589q0 -13 -9 -22t-22 -9t-22 9t-9 22t9 22t22 9t22 -9t9 -22z M122 155q0 -13 -9 -22t-22 -9t-22 9t-9 22t9 22t22 9t22 -9t9 -22zM122 217q0 -13 -9 -22t-22 -9t-22 9t-9 22t9 22t22 9t22 -9t9 -22zM122 279q0 -13 -9 -22t-22 -9t-22 9t-9 22t9 22t22 9t22 -9t9 -22zM122 341q0 -13 -9 -22t-22 -9t-22 9t-9 22t9 22t22 9t22 -9t9 -22z M122 403q0 -13 -9 -22t-22 -9t-22 9t-9 22t9 22t22 9t22 -9t9 -22zM122 465q0 -13 -9 -22t-22 -9t-22 9t-9 22t9 22t22 9t22 -9t9 -22zM122 527q0 -13 -9 -22t-22 -9t-22 9t-9 22t9 22t22 9t22 -9t9 -22zM122 93q0 -13 -9 -22t-22 -9t-22 9t-9 22t9 22t22 9t22 -9t9 -22z M432 155q0 -13 -9 -22t-22 -9t-22 9t-9 22t9 22t22 9t22 -9t9 -22zM432 217q0 -13 -9 -22t-22 -9t-22 9t-9 22t9 22t22 9t22 -9t9 -22zM432 279q0 -13 -9 -22t-22 -9t-22 9t-9 22t9 22t22 9t22 -9t9 -22zM432 341q0 -13 -9 -22t-22 -9t-22 9t-9 22t9 22t22 9t22 -9t9 -22z M432 403q0 -13 -9 -22t-22 -9t-22 9t-9 22t9 22t22 9t22 -9t9 -22zM432 465q0 -13 -9 -22t-22 -9t-22 9t-9 22t9 22t22 9t22 -9t9 -22zM432 527q0 -13 -9 -22t-22 -9t-22 9t-9 22t9 22t22 9t22 -9t9 -22zM432 93q0 -13 -9 -22t-22 -9t-22 9t-9 22t9 22t22 9t22 -9t9 -22z " />
<glyph unicode="1" horiz-adv-x="246" d="M62 465q0 -13 -9 -22t-22 -9t-22 9t-9 22t9 22t22 9t22 -9t9 -22zM124 465q0 13 9 22t22 9t22 -9t9 -22t-9 -22t-22 -9t-22 9t-9 22zM62 527q0 13 9 22t22 9t22 -9t9 -22t-9 -22t-22 -9t-22 9t-9 22zM186 31q0 -13 -9 -22t-22 -9t-22 9t-9 22t9 22t22 9t22 -9t9 -22z M186 155q0 -13 -9 -22t-22 -9t-22 9t-9 22t9 22t22 9t22 -9t9 -22zM186 217q0 -13 -9 -22t-22 -9t-22 9t-9 22t9 22t22 9t22 -9t9 -22zM186 279q0 -13 -9 -22t-22 -9t-22 9t-9 22t9 22t22 9t22 -9t9 -22zM186 341q0 -13 -9 -22t-22 -9t-22 9t-9 22t9 22t22 9t22 -9t9 -22z M186 403q0 -13 -9 -22t-22 -9t-22 9t-9 22t9 22t22 9t22 -9t9 -22zM186 527q0 -13 -9 -22t-22 -9t-22 9t-9 22t9 22t22 9t22 -9t9 -22zM186 589q0 -13 -9 -22t-22 -9t-22 9t-9 22t9 22t22 9t22 -9t9 -22zM186 93q0 -13 -9 -22t-22 -9t-22 9t-9 22t9 22t22 9t22 -9t9 -22z " />
<glyph unicode="2" horiz-adv-x="432" d="M154 31q0 -13 -9 -22t-22 -9t-22 9t-9 22t9 22t22 9t22 -9t9 -22zM216 31q0 -13 -9 -22t-22 -9t-22 9t-9 22t9 22t22 9t22 -9t9 -22zM278 31q0 -13 -9 -22t-22 -9t-22 9t-9 22t9 22t22 9t22 -9t9 -22zM92 31q0 -13 -9 -22t-22 -9t-22 9t-9 22t9 22t22 9t22 -9t9 -22z M216 589q0 -13 -9 -22t-22 -9t-22 9t-9 22t9 22t22 9t22 -9t9 -22zM278 589q0 -13 -9 -22t-22 -9t-22 9t-9 22t9 22t22 9t22 -9t9 -22zM340 589q0 -13 -9 -22t-22 -9t-22 9t-9 22t9 22t22 9t22 -9t9 -22zM154 589q0 -13 -9 -22t-22 -9t-22 9t-9 22t9 22t22 9t22 -9t9 -22z M92 465q0 -13 -9 -22t-22 -9t-22 9t-9 22t9 22t22 9t22 -9t9 -22zM92 527q0 -13 -9 -22t-22 -9t-22 9t-9 22t9 22t22 9t22 -9t9 -22zM92 93q0 -13 -9 -22t-22 -9t-22 9t-9 22t9 22t22 9t22 -9t9 -22zM154 155q0 -13 -9 -22t-22 -9t-22 9t-9 22t9 22t22 9t22 -9t9 -22z M216 217q0 -13 -9 -22t-22 -9t-22 9t-9 22t9 22t22 9t22 -9t9 -22zM278 279q0 -13 -9 -22t-22 -9t-22 9t-9 22t9 22t22 9t22 -9t9 -22zM340 31q0 -13 -9 -22t-22 -9t-22 9t-9 22t9 22t22 9t22 -9t9 -22zM340 341q0 -13 -9 -22t-22 -9t-22 9t-9 22t9 22t22 9t22 -9t9 -22z M402 31q0 -13 -9 -22t-22 -9t-22 9t-9 22t9 22t22 9t22 -9t9 -22zM402 403q0 -13 -9 -22t-22 -9t-22 9t-9 22t9 22t22 9t22 -9t9 -22zM402 465q0 -13 -9 -22t-22 -9t-22 9t-9 22t9 22t22 9t22 -9t9 -22zM402 527q0 -13 -9 -22t-22 -9t-22 9t-9 22t9 22t22 9t22 -9t9 -22z " />
<glyph unicode="3" horiz-adv-x="452" d="M144 589q0 -13 -9 -22t-22 -9t-22 9t-9 22t9 22t22 9t22 -9t9 -22zM206 589q0 -13 -9 -22t-22 -9t-22 9t-9 22t9 22t22 9t22 -9t9 -22zM268 589q0 -13 -9 -22t-22 -9t-22 9t-9 22t9 22t22 9t22 -9t9 -22zM82 589q0 -13 -9 -22t-22 -9t-22 9t-9 22t9 22t22 9t22 -9t9 -22z M206 31q0 -13 -9 -22t-22 -9t-22 9t-9 22t9 22t22 9t22 -9t9 -22zM268 31q0 -13 -9 -22t-22 -9t-22 9t-9 22t9 22t22 9t22 -9t9 -22zM330 31q0 -13 -9 -22t-22 -9t-22 9t-9 22t9 22t22 9t22 -9t9 -22zM144 31q0 -13 -9 -22t-22 -9t-22 9t-9 22t9 22t22 9t22 -9t9 -22z M82 527q0 -13 -9 -22t-22 -9t-22 9t-9 22t9 22t22 9t22 -9t9 -22zM82 93q0 -13 -9 -22t-22 -9t-22 9t-9 22t9 22t22 9t22 -9t9 -22zM268 341q0 -13 -9 -22t-22 -9t-22 9t-9 22t9 22t22 9t22 -9t9 -22zM330 403q0 -13 -9 -22t-22 -9t-22 9t-9 22t9 22t22 9t22 -9t9 -22z M330 589q0 -13 -9 -22t-22 -9t-22 9t-9 22t9 22t22 9t22 -9t9 -22zM392 155q0 -13 -9 -22t-22 -9t-22 9t-9 22t9 22t22 9t22 -9t9 -22zM392 217q0 -13 -9 -22t-22 -9t-22 9t-9 22t9 22t22 9t22 -9t9 -22zM392 279q0 -13 -9 -22t-22 -9t-22 9t-9 22t9 22t22 9t22 -9t9 -22z M392 465q0 -13 -9 -22t-22 -9t-22 9t-9 22t9 22t22 9t22 -9t9 -22zM392 527q0 -13 -9 -22t-22 -9t-22 9t-9 22t9 22t22 9t22 -9t9 -22zM392 589q0 -13 -9 -22t-22 -9t-22 9t-9 22t9 22t22 9t22 -9t9 -22zM392 93q0 -13 -9 -22t-22 -9t-22 9t-9 22t9 22t22 9t22 -9t9 -22z " />
<glyph unicode="4" horiz-adv-x="412" d="M144 155q0 -13 -9 -22t-22 -9t-22 9t-9 22t9 22t22 9t22 -9t9 -22zM206 155q0 -13 -9 -22t-22 -9t-22 9t-9 22t9 22t22 9t22 -9t9 -22zM268 155q0 -13 -9 -22t-22 -9t-22 9t-9 22t9 22t22 9t22 -9t9 -22zM82 155q0 -13 -9 -22t-22 -9t-22 9t-9 22t9 22t22 9t22 -9t9 -22z M330 31q0 -13 -9 -22t-22 -9t-22 9t-9 22t9 22t22 9t22 -9t9 -22zM330 155q0 -13 -9 -22t-22 -9t-22 9t-9 22t9 22t22 9t22 -9t9 -22zM330 217q0 -13 -9 -22t-22 -9t-22 9t-9 22t9 22t22 9t22 -9t9 -22zM330 279q0 -13 -9 -22t-22 -9t-22 9t-9 22t9 22t22 9t22 -9t9 -22z M330 341q0 -13 -9 -22t-22 -9t-22 9t-9 22t9 22t22 9t22 -9t9 -22zM330 403q0 -13 -9 -22t-22 -9t-22 9t-9 22t9 22t22 9t22 -9t9 -22zM330 465q0 -13 -9 -22t-22 -9t-22 9t-9 22t9 22t22 9t22 -9t9 -22zM330 527q0 -13 -9 -22t-22 -9t-22 9t-9 22t9 22t22 9t22 -9t9 -22z M330 589q0 -13 -9 -22t-22 -9t-22 9t-9 22t9 22t22 9t22 -9t9 -22zM330 93q0 -13 -9 -22t-22 -9t-22 9t-9 22t9 22t22 9t22 -9t9 -22zM268 527q0 -13 -9 -22t-22 -9t-22 9t-9 22t9 22t22 9t22 -9t9 -22zM206 465q0 -13 -9 -22t-22 -9t-22 9t-9 22t9 22t22 9t22 -9t9 -22z M82 217q0 -13 -9 -22t-22 -9t-22 9t-9 22t9 22t22 9t22 -9t9 -22zM144 279q0 -13 -9 -22t-22 -9t-22 9t-9 22t9 22t22 9t22 -9t9 -22zM144 341q0 -13 -9 -22t-22 -9t-22 9t-9 22t9 22t22 9t22 -9t9 -22zM206 403q0 -13 -9 -22t-22 -9t-22 9t-9 22t9 22t22 9t22 -9t9 -22z M392 155q0 -13 -9 -22t-22 -9t-22 9t-9 22t9 22t22 9t22 -9t9 -22z" />
<glyph unicode="5" horiz-adv-x="462" d="M164 589q0 -13 -9 -22t-22 -9t-22 9t-9 22t9 22t22 9t22 -9t9 -22zM226 589q0 -13 -9 -22t-22 -9t-22 9t-9 22t9 22t22 9t22 -9t9 -22zM288 589q0 -13 -9 -22t-22 -9t-22 9t-9 22t9 22t22 9t22 -9t9 -22zM102 589q0 -13 -9 -22t-22 -9t-22 9t-9 22t9 22t22 9t22 -9t9 -22 zM226 31q0 -13 -9 -22t-22 -9t-22 9t-9 22t9 22t22 9t22 -9t9 -22zM288 31q0 -13 -9 -22t-22 -9t-22 9t-9 22t9 22t22 9t22 -9t9 -22zM350 31q0 -13 -9 -22t-22 -9t-22 9t-9 22t9 22t22 9t22 -9t9 -22zM164 31q0 -13 -9 -22t-22 -9t-22 9t-9 22t9 22t22 9t22 -9t9 -22z M102 341q0 -13 -9 -22t-22 -9t-22 9t-9 22t9 22t22 9t22 -9t9 -22zM102 403q0 -13 -9 -22t-22 -9t-22 9t-9 22t9 22t22 9t22 -9t9 -22zM102 465q0 -13 -9 -22t-22 -9t-22 9t-9 22t9 22t22 9t22 -9t9 -22zM102 527q0 -13 -9 -22t-22 -9t-22 9t-9 22t9 22t22 9t22 -9t9 -22z M102 93q0 -13 -9 -22t-22 -9t-22 9t-9 22t9 22t22 9t22 -9t9 -22zM164 341q0 -13 -9 -22t-22 -9t-22 9t-9 22t9 22t22 9t22 -9t9 -22zM226 403q0 -13 -9 -22t-22 -9t-22 9t-9 22t9 22t22 9t22 -9t9 -22zM288 403q0 -13 -9 -22t-22 -9t-22 9t-9 22t9 22t22 9t22 -9t9 -22z M350 403q0 -13 -9 -22t-22 -9t-22 9t-9 22t9 22t22 9t22 -9t9 -22zM350 589q0 -13 -9 -22t-22 -9t-22 9t-9 22t9 22t22 9t22 -9t9 -22zM412 155q0 -13 -9 -22t-22 -9t-22 9t-9 22t9 22t22 9t22 -9t9 -22zM412 217q0 -13 -9 -22t-22 -9t-22 9t-9 22t9 22t22 9t22 -9t9 -22z M412 279q0 -13 -9 -22t-22 -9t-22 9t-9 22t9 22t22 9t22 -9t9 -22zM412 341q0 -13 -9 -22t-22 -9t-22 9t-9 22t9 22t22 9t22 -9t9 -22zM412 589q0 -13 -9 -22t-22 -9t-22 9t-9 22t9 22t22 9t22 -9t9 -22zM412 93q0 -13 -9 -22t-22 -9t-22 9t-9 22t9 22t22 9t22 -9t9 -22z " />
<glyph unicode="6" horiz-adv-x="482" d="M246 31q0 -13 -9 -22t-22 -9t-22 9t-9 22t9 22t22 9t22 -9t9 -22zM308 31q0 -13 -9 -22t-22 -9t-22 9t-9 22t9 22t22 9t22 -9t9 -22zM370 31q0 -13 -9 -22t-22 -9t-22 9t-9 22t9 22t22 9t22 -9t9 -22zM184 31q0 -13 -9 -22t-22 -9t-22 9t-9 22t9 22t22 9t22 -9t9 -22z M246 589q0 -13 -9 -22t-22 -9t-22 9t-9 22t9 22t22 9t22 -9t9 -22zM308 589q0 -13 -9 -22t-22 -9t-22 9t-9 22t9 22t22 9t22 -9t9 -22zM370 589q0 -13 -9 -22t-22 -9t-22 9t-9 22t9 22t22 9t22 -9t9 -22zM184 589q0 -13 -9 -22t-22 -9t-22 9t-9 22t9 22t22 9t22 -9t9 -22z M122 155q0 -13 -9 -22t-22 -9t-22 9t-9 22t9 22t22 9t22 -9t9 -22zM122 217q0 -13 -9 -22t-22 -9t-22 9t-9 22t9 22t22 9t22 -9t9 -22zM122 279q0 -13 -9 -22t-22 -9t-22 9t-9 22t9 22t22 9t22 -9t9 -22zM122 341q0 -13 -9 -22t-22 -9t-22 9t-9 22t9 22t22 9t22 -9t9 -22z M122 403q0 -13 -9 -22t-22 -9t-22 9t-9 22t9 22t22 9t22 -9t9 -22zM122 465q0 -13 -9 -22t-22 -9t-22 9t-9 22t9 22t22 9t22 -9t9 -22zM122 527q0 -13 -9 -22t-22 -9t-22 9t-9 22t9 22t22 9t22 -9t9 -22zM122 93q0 -13 -9 -22t-22 -9t-22 9t-9 22t9 22t22 9t22 -9t9 -22z M184 279q0 -13 -9 -22t-22 -9t-22 9t-9 22t9 22t22 9t22 -9t9 -22zM246 341q0 -13 -9 -22t-22 -9t-22 9t-9 22t9 22t22 9t22 -9t9 -22zM308 341q0 -13 -9 -22t-22 -9t-22 9t-9 22t9 22t22 9t22 -9t9 -22zM370 341q0 -13 -9 -22t-22 -9t-22 9t-9 22t9 22t22 9t22 -9t9 -22z M432 155q0 -13 -9 -22t-22 -9t-22 9t-9 22t9 22t22 9t22 -9t9 -22zM432 217q0 -13 -9 -22t-22 -9t-22 9t-9 22t9 22t22 9t22 -9t9 -22zM432 279q0 -13 -9 -22t-22 -9t-22 9t-9 22t9 22t22 9t22 -9t9 -22zM432 527q0 -13 -9 -22t-22 -9t-22 9t-9 22t9 22t22 9t22 -9t9 -22z M432 93q0 -13 -9 -22t-22 -9t-22 9t-9 22t9 22t22 9t22 -9t9 -22z" />
<glyph unicode="7" horiz-adv-x="402" d="M134 589q0 -13 -9 -22t-22 -9t-22 9t-9 22t9 22t22 9t22 -9t9 -22zM196 589q0 -13 -9 -22t-22 -9t-22 9t-9 22t9 22t22 9t22 -9t9 -22zM258 589q0 -13 -9 -22t-22 -9t-22 9t-9 22t9 22t22 9t22 -9t9 -22zM72 589q0 -13 -9 -22t-22 -9t-22 9t-9 22t9 22t22 9t22 -9t9 -22z M72 527q0 -13 -9 -22t-22 -9t-22 9t-9 22t9 22t22 9t22 -9t9 -22zM196 31q0 -13 -9 -22t-22 -9t-22 9t-9 22t9 22t22 9t22 -9t9 -22zM196 155q0 -13 -9 -22t-22 -9t-22 9t-9 22t9 22t22 9t22 -9t9 -22zM196 93q0 -13 -9 -22t-22 -9t-22 9t-9 22t9 22t22 9t22 -9t9 -22z M258 217q0 -13 -9 -22t-22 -9t-22 9t-9 22t9 22t22 9t22 -9t9 -22zM258 279q0 -13 -9 -22t-22 -9t-22 9t-9 22t9 22t22 9t22 -9t9 -22zM320 341q0 -13 -9 -22t-22 -9t-22 9t-9 22t9 22t22 9t22 -9t9 -22zM320 403q0 -13 -9 -22t-22 -9t-22 9t-9 22t9 22t22 9t22 -9t9 -22z M320 589q0 -13 -9 -22t-22 -9t-22 9t-9 22t9 22t22 9t22 -9t9 -22zM382 465q0 -13 -9 -22t-22 -9t-22 9t-9 22t9 22t22 9t22 -9t9 -22zM382 527q0 -13 -9 -22t-22 -9t-22 9t-9 22t9 22t22 9t22 -9t9 -22zM382 589q0 -13 -9 -22t-22 -9t-22 9t-9 22t9 22t22 9t22 -9t9 -22z " />
<glyph unicode="8" horiz-adv-x="492" d="M122 403q0 -13 -9 -22t-22 -9t-22 9t-9 22t9 22t22 9t22 -9t9 -22zM122 465q0 -13 -9 -22t-22 -9t-22 9t-9 22t9 22t22 9t22 -9t9 -22zM122 527q0 -13 -9 -22t-22 -9t-22 9t-9 22t9 22t22 9t22 -9t9 -22zM122 93q0 -13 -9 -22t-22 -9t-22 9t-9 22t9 22t22 9t22 -9t9 -22z M432 155q0 -13 -9 -22t-22 -9t-22 9t-9 22t9 22t22 9t22 -9t9 -22zM432 217q0 -13 -9 -22t-22 -9t-22 9t-9 22t9 22t22 9t22 -9t9 -22zM432 279q0 -13 -9 -22t-22 -9t-22 9t-9 22t9 22t22 9t22 -9t9 -22zM432 527q0 -13 -9 -22t-22 -9t-22 9t-9 22t9 22t22 9t22 -9t9 -22z M432 93q0 -13 -9 -22t-22 -9t-22 9t-9 22t9 22t22 9t22 -9t9 -22zM246 589q0 -13 -9 -22t-22 -9t-22 9t-9 22t9 22t22 9t22 -9t9 -22zM308 589q0 -13 -9 -22t-22 -9t-22 9t-9 22t9 22t22 9t22 -9t9 -22zM370 589q0 -13 -9 -22t-22 -9t-22 9t-9 22t9 22t22 9t22 -9t9 -22z M184 589q0 -13 -9 -22t-22 -9t-22 9t-9 22t9 22t22 9t22 -9t9 -22zM246 341q0 -13 -9 -22t-22 -9t-22 9t-9 22t9 22t22 9t22 -9t9 -22zM308 341q0 -13 -9 -22t-22 -9t-22 9t-9 22t9 22t22 9t22 -9t9 -22zM370 341q0 -13 -9 -22t-22 -9t-22 9t-9 22t9 22t22 9t22 -9t9 -22z M184 341q0 -13 -9 -22t-22 -9t-22 9t-9 22t9 22t22 9t22 -9t9 -22zM246 31q0 -13 -9 -22t-22 -9t-22 9t-9 22t9 22t22 9t22 -9t9 -22zM308 31q0 -13 -9 -22t-22 -9t-22 9t-9 22t9 22t22 9t22 -9t9 -22zM370 31q0 -13 -9 -22t-22 -9t-22 9t-9 22t9 22t22 9t22 -9t9 -22z M184 31q0 -13 -9 -22t-22 -9t-22 9t-9 22t9 22t22 9t22 -9t9 -22zM122 155q0 -13 -9 -22t-22 -9t-22 9t-9 22t9 22t22 9t22 -9t9 -22zM122 217q0 -13 -9 -22t-22 -9t-22 9t-9 22t9 22t22 9t22 -9t9 -22zM122 279q0 -13 -9 -22t-22 -9t-22 9t-9 22t9 22t22 9t22 -9t9 -22z M432 403q0 -13 -9 -22t-22 -9t-22 9t-9 22t9 22t22 9t22 -9t9 -22zM432 465q0 -13 -9 -22t-22 -9t-22 9t-9 22t9 22t22 9t22 -9t9 -22z" />
<glyph unicode="9" horiz-adv-x="482" d="M236 589q0 -13 -9 -22t-22 -9t-22 9t-9 22t9 22t22 9t22 -9t9 -22zM298 589q0 -13 -9 -22t-22 -9t-22 9t-9 22t9 22t22 9t22 -9t9 -22zM360 589q0 -13 -9 -22t-22 -9t-22 9t-9 22t9 22t22 9t22 -9t9 -22zM174 589q0 -13 -9 -22t-22 -9t-22 9t-9 22t9 22t22 9t22 -9t9 -22 zM236 31q0 -13 -9 -22t-22 -9t-22 9t-9 22t9 22t22 9t22 -9t9 -22zM298 31q0 -13 -9 -22t-22 -9t-22 9t-9 22t9 22t22 9t22 -9t9 -22zM360 31q0 -13 -9 -22t-22 -9t-22 9t-9 22t9 22t22 9t22 -9t9 -22zM174 31q0 -13 -9 -22t-22 -9t-22 9t-9 22t9 22t22 9t22 -9t9 -22z M298 279q0 -13 -9 -22t-22 -9t-22 9t-9 22t9 22t22 9t22 -9t9 -22zM360 279q0 13 9 22t22 9t22 -9t9 -22t-9 -22t-22 -9t-22 9t-9 22zM298 341q0 13 9 22t22 9t22 -9t9 -22t-9 -22t-22 -9t-22 9t-9 22zM360 465q0 13 9 22t22 9t22 -9t9 -22t-9 -22t-22 -9t-22 9t-9 22z M360 403q0 13 9 22t22 9t22 -9t9 -22t-9 -22t-22 -9t-22 9t-9 22zM360 341q0 13 9 22t22 9t22 -9t9 -22t-9 -22t-22 -9t-22 9t-9 22zM360 217q0 13 9 22t22 9t22 -9t9 -22t-9 -22t-22 -9t-22 9t-9 22zM360 155q0 13 9 22t22 9t22 -9t9 -22t-9 -22t-22 -9t-22 9t-9 22z M360 93q0 13 9 22t22 9t22 -9t9 -22t-9 -22t-22 -9t-22 9t-9 22zM360 527q0 13 9 22t22 9t22 -9t9 -22t-9 -22t-22 -9t-22 9t-9 22zM174 279q0 13 9 22t22 9t22 -9t9 -22t-9 -22t-22 -9t-22 9t-9 22zM112 279q0 13 9 22t22 9t22 -9t9 -22t-9 -22t-22 -9t-22 9t-9 22zM50 465 q0 13 9 22t22 9t22 -9t9 -22t-9 -22t-22 -9t-22 9t-9 22zM50 403q0 13 9 22t22 9t22 -9t9 -22t-9 -22t-22 -9t-22 9t-9 22zM50 341q0 13 9 22t22 9t22 -9t9 -22t-9 -22t-22 -9t-22 9t-9 22zM50 93q0 13 9 22t22 9t22 -9t9 -22t-9 -22t-22 -9t-22 9t-9 22zM50 527q0 13 9 22 t22 9t22 -9t9 -22t-9 -22t-22 -9t-22 9t-9 22z" />
<glyph unicode=":" horiz-adv-x="164" d="M124 393q0 -17 -12.5 -29.5t-29.5 -12.5t-29.5 12.5t-12.5 29.5t12.5 29t29.5 12t29.5 -12t12.5 -29zM124 42q0 -17 -12.5 -29.5t-29.5 -12.5t-29.5 12.5t-12.5 29.5t12.5 29t29.5 12t29.5 -12t12.5 -29z" />
<glyph unicode=";" horiz-adv-x="175" d="M135 393q0 -17 -12.5 -29.5t-29.5 -12.5t-29.5 12.5t-12.5 29.5t12.5 29t29.5 12t29.5 -12t12.5 -29zM135 42q0 -17 -12.5 -29.5t-29.5 -12.5t-29.5 12.5t-12.5 29.5t12.5 29t29.5 12t29.5 -12t12.5 -29zM93 -35q0 -13 -9 -22t-22 -9t-22 9t-9 22t9 22t22 9t22 -9t9 -22z M58 -89q0 -8 -5.5 -13.5t-13.5 -5.5t-13.5 5.5t-5.5 13.5q0 7 5.5 12.5t13.5 5.5t13.5 -5.5t5.5 -12.5z" />
<glyph unicode="&#x3c;" horiz-adv-x="266" d="M164 155q0 -13 -9 -22t-22 -9t-22 9t-9 22t9 22t22 9t22 -9t9 -22zM164 279q0 -13 -9 -22t-22 -9t-22 9t-9 22t9 22t22 9t22 -9t9 -22zM226 341q0 -13 -9 -22t-22 -9t-22 9t-9 22t9 22t22 9t22 -9t9 -22zM226 93q0 -13 -9 -22t-22 -9t-22 9t-9 22t9 22t22 9t22 -9t9 -22z M102 217q0 -13 -9 -22t-22 -9t-22 9t-9 22t9 22t22 9t22 -9t9 -22z" />
<glyph unicode="=" horiz-adv-x="328" d="M164 341q0 -13 -9 -22t-22 -9t-22 9t-9 22t9 22t22 9t22 -9t9 -22zM226 341q0 -13 -9 -22t-22 -9t-22 9t-9 22t9 22t22 9t22 -9t9 -22zM288 341q0 -13 -9 -22t-22 -9t-22 9t-9 22t9 22t22 9t22 -9t9 -22zM102 341q0 -13 -9 -22t-22 -9t-22 9t-9 22t9 22t22 9t22 -9t9 -22 zM164 217q0 -13 -9 -22t-22 -9t-22 9t-9 22t9 22t22 9t22 -9t9 -22zM226 217q0 -13 -9 -22t-22 -9t-22 9t-9 22t9 22t22 9t22 -9t9 -22zM288 217q0 -13 -9 -22t-22 -9t-22 9t-9 22t9 22t22 9t22 -9t9 -22zM102 217q0 -13 -9 -22t-22 -9t-22 9t-9 22t9 22t22 9t22 -9t9 -22z " />
<glyph unicode="&#x3e;" horiz-adv-x="266" d="M102 155q0 13 9 22t22 9t22 -9t9 -22t-9 -22t-22 -9t-22 9t-9 22zM102 279q0 13 9 22t22 9t22 -9t9 -22t-9 -22t-22 -9t-22 9t-9 22zM40 341q0 13 9 22t22 9t22 -9t9 -22t-9 -22t-22 -9t-22 9t-9 22zM40 93q0 13 9 22t22 9t22 -9t9 -22t-9 -22t-22 -9t-22 9t-9 22z M164 217q0 13 9 22t22 9t22 -9t9 -22t-9 -22t-22 -9t-22 9t-9 22z" />
<glyph unicode="?" horiz-adv-x="432" d="M206 589q0 -13 -9 -22t-22 -9t-22 9t-9 22t9 22t22 9t22 -9t9 -22zM268 589q0 -13 -9 -22t-22 -9t-22 9t-9 22t9 22t22 9t22 -9t9 -22zM330 589q0 -13 -9 -22t-22 -9t-22 9t-9 22t9 22t22 9t22 -9t9 -22zM144 589q0 -13 -9 -22t-22 -9t-22 9t-9 22t9 22t22 9t22 -9t9 -22 zM217 42q0 -17 -12.5 -29.5t-29.5 -12.5t-29.5 12.5t-12.5 29.5t12.5 29t29.5 12t29.5 -12t12.5 -29zM82 465q0 -13 -9 -22t-22 -9t-22 9t-9 22t9 22t22 9t22 -9t9 -22zM82 527q0 -13 -9 -22t-22 -9t-22 9t-9 22t9 22t22 9t22 -9t9 -22zM392 465q0 -13 -9 -22t-22 -9t-22 9 t-9 22t9 22t22 9t22 -9t9 -22zM392 527q0 -13 -9 -22t-22 -9t-22 9t-9 22t9 22t22 9t22 -9t9 -22zM206 155q0 -13 -9 -22t-22 -9t-22 9t-9 22t9 22t22 9t22 -9t9 -22zM206 217q0 -13 -9 -22t-22 -9t-22 9t-9 22t9 22t22 9t22 -9t9 -22zM268 279q0 -13 -9 -22t-22 -9t-22 9 t-9 22t9 22t22 9t22 -9t9 -22zM330 341q0 -13 -9 -22t-22 -9t-22 9t-9 22t9 22t22 9t22 -9t9 -22zM392 403q0 -13 -9 -22t-22 -9t-22 9t-9 22t9 22t22 9t22 -9t9 -22z" />
<glyph unicode="@" horiz-adv-x="616" d="M246 31q0 -13 -9 -22t-22 -9t-22 9t-9 22t9 22t22 9t22 -9t9 -22zM308 31q0 -13 -9 -22t-22 -9t-22 9t-9 22t9 22t22 9t22 -9t9 -22zM370 31q0 -13 -9 -22t-22 -9t-22 9t-9 22t9 22t22 9t22 -9t9 -22zM184 31q0 -13 -9 -22t-22 -9t-22 9t-9 22t9 22t22 9t22 -9t9 -22z M246 589q0 -13 -9 -22t-22 -9t-22 9t-9 22t9 22t22 9t22 -9t9 -22zM308 589q0 -13 -9 -22t-22 -9t-22 9t-9 22t9 22t22 9t22 -9t9 -22zM370 589q0 -13 -9 -22t-22 -9t-22 9t-9 22t9 22t22 9t22 -9t9 -22zM184 589q0 -13 -9 -22t-22 -9t-22 9t-9 22t9 22t22 9t22 -9t9 -22z M370 155q0 -13 -9 -22t-22 -9t-22 9t-9 22t9 22t22 9t22 -9t9 -22zM432 155q0 -13 -9 -22t-22 -9t-22 9t-9 22t9 22t22 9t22 -9t9 -22zM494 155q0 -13 -9 -22t-22 -9t-22 9t-9 22t9 22t22 9t22 -9t9 -22zM308 155q0 -13 -9 -22t-22 -9t-22 9t-9 22t9 22t22 9t22 -9t9 -22z M122 155q0 -13 -9 -22t-22 -9t-22 9t-9 22t9 22t22 9t22 -9t9 -22zM122 217q0 -13 -9 -22t-22 -9t-22 9t-9 22t9 22t22 9t22 -9t9 -22zM122 279q0 -13 -9 -22t-22 -9t-22 9t-9 22t9 22t22 9t22 -9t9 -22zM122 341q0 -13 -9 -22t-22 -9t-22 9t-9 22t9 22t22 9t22 -9t9 -22z M122 403q0 -13 -9 -22t-22 -9t-22 9t-9 22t9 22t22 9t22 -9t9 -22zM122 465q0 -13 -9 -22t-22 -9t-22 9t-9 22t9 22t22 9t22 -9t9 -22zM122 527q0 -13 -9 -22t-22 -9t-22 9t-9 22t9 22t22 9t22 -9t9 -22zM122 93q0 -13 -9 -22t-22 -9t-22 9t-9 22t9 22t22 9t22 -9t9 -22z M308 465q0 -13 -9 -22t-22 -9t-22 9t-9 22t9 22t22 9t22 -9t9 -22zM370 465q0 -13 -9 -22t-22 -9t-22 9t-9 22t9 22t22 9t22 -9t9 -22zM432 31q0 -13 -9 -22t-22 -9t-22 9t-9 22t9 22t22 9t22 -9t9 -22zM432 465q0 -13 -9 -22t-22 -9t-22 9t-9 22t9 22t22 9t22 -9t9 -22z M432 589q0 -13 -9 -22t-22 -9t-22 9t-9 22t9 22t22 9t22 -9t9 -22zM494 31q0 -13 -9 -22t-22 -9t-22 9t-9 22t9 22t22 9t22 -9t9 -22zM494 589q0 -13 -9 -22t-22 -9t-22 9t-9 22t9 22t22 9t22 -9t9 -22zM556 217q0 -13 -9 -22t-22 -9t-22 9t-9 22t9 22t22 9t22 -9t9 -22z M556 279q0 -13 -9 -22t-22 -9t-22 9t-9 22t9 22t22 9t22 -9t9 -22zM556 341q0 -13 -9 -22t-22 -9t-22 9t-9 22t9 22t22 9t22 -9t9 -22zM556 403q0 -13 -9 -22t-22 -9t-22 9t-9 22t9 22t22 9t22 -9t9 -22zM556 465q0 -13 -9 -22t-22 -9t-22 9t-9 22t9 22t22 9t22 -9t9 -22z M556 527q0 -13 -9 -22t-22 -9t-22 9t-9 22t9 22t22 9t22 -9t9 -22zM246 217q0 -13 -9 -22t-22 -9t-22 9t-9 22t9 22t22 9t22 -9t9 -22zM246 279q0 -13 -9 -22t-22 -9t-22 9t-9 22t9 22t22 9t22 -9t9 -22zM246 341q0 -13 -9 -22t-22 -9t-22 9t-9 22t9 22t22 9t22 -9t9 -22z M246 403q0 -13 -9 -22t-22 -9t-22 9t-9 22t9 22t22 9t22 -9t9 -22zM432 217q0 -13 -9 -22t-22 -9t-22 9t-9 22t9 22t22 9t22 -9t9 -22zM432 279q0 -13 -9 -22t-22 -9t-22 9t-9 22t9 22t22 9t22 -9t9 -22zM432 341q0 -13 -9 -22t-22 -9t-22 9t-9 22t9 22t22 9t22 -9t9 -22z " />
<glyph unicode="A" d="M174 217q0 -13 -9 -22t-22 -9t-22 9t-9 22t9 22t22 9t22 -9t9 -22zM236 217q0 -13 -9 -22t-22 -9t-22 9t-9 22t9 22t22 9t22 -9t9 -22zM298 217q0 -13 -9 -22t-22 -9t-22 9t-9 22t9 22t22 9t22 -9t9 -22zM112 217q0 -13 -9 -22t-22 -9t-22 9t-9 22t9 22t22 9t22 -9t9 -22 zM112 31q0 -13 -9 -22t-22 -9t-22 9t-9 22t9 22t22 9t22 -9t9 -22zM112 155q0 -13 -9 -22t-22 -9t-22 9t-9 22t9 22t22 9t22 -9t9 -22zM112 279q0 -13 -9 -22t-22 -9t-22 9t-9 22t9 22t22 9t22 -9t9 -22zM112 341q0 -13 -9 -22t-22 -9t-22 9t-9 22t9 22t22 9t22 -9t9 -22z M112 403q0 -13 -9 -22t-22 -9t-22 9t-9 22t9 22t22 9t22 -9t9 -22zM112 465q0 -13 -9 -22t-22 -9t-22 9t-9 22t9 22t22 9t22 -9t9 -22zM112 93q0 -13 -9 -22t-22 -9t-22 9t-9 22t9 22t22 9t22 -9t9 -22zM174 527q0 -13 -9 -22t-22 -9t-22 9t-9 22t9 22t22 9t22 -9t9 -22z M236 589q0 -13 -9 -22t-22 -9t-22 9t-9 22t9 22t22 9t22 -9t9 -22zM298 589q0 -13 -9 -22t-22 -9t-22 9t-9 22t9 22t22 9t22 -9t9 -22zM360 527q0 -13 -9 -22t-22 -9t-22 9t-9 22t9 22t22 9t22 -9t9 -22zM422 31q0 -13 -9 -22t-22 -9t-22 9t-9 22t9 22t22 9t22 -9t9 -22z M422 465q0 -13 -9 -22t-22 -9t-22 9t-9 22t9 22t22 9t22 -9t9 -22zM422 93q0 -13 -9 -22t-22 -9t-22 9t-9 22t9 22t22 9t22 -9t9 -22zM360 217q0 -13 -9 -22t-22 -9t-22 9t-9 22t9 22t22 9t22 -9t9 -22zM422 155q0 -13 -9 -22t-22 -9t-22 9t-9 22t9 22t22 9t22 -9t9 -22z M422 217q0 -13 -9 -22t-22 -9t-22 9t-9 22t9 22t22 9t22 -9t9 -22zM422 279q0 -13 -9 -22t-22 -9t-22 9t-9 22t9 22t22 9t22 -9t9 -22zM422 341q0 -13 -9 -22t-22 -9t-22 9t-9 22t9 22t22 9t22 -9t9 -22zM422 403q0 -13 -9 -22t-22 -9t-22 9t-9 22t9 22t22 9t22 -9t9 -22z " />
<glyph unicode="B" horiz-adv-x="482" d="M122 155q0 -13 -9 -22t-22 -9t-22 9t-9 22t9 22t22 9t22 -9t9 -22zM122 217q0 -13 -9 -22t-22 -9t-22 9t-9 22t9 22t22 9t22 -9t9 -22zM122 279q0 -13 -9 -22t-22 -9t-22 9t-9 22t9 22t22 9t22 -9t9 -22zM122 403q0 -13 -9 -22t-22 -9t-22 9t-9 22t9 22t22 9t22 -9t9 -22 zM122 465q0 -13 -9 -22t-22 -9t-22 9t-9 22t9 22t22 9t22 -9t9 -22zM122 527q0 -13 -9 -22t-22 -9t-22 9t-9 22t9 22t22 9t22 -9t9 -22zM122 93q0 -13 -9 -22t-22 -9t-22 9t-9 22t9 22t22 9t22 -9t9 -22zM370 31q0 -13 -9 -22t-22 -9t-22 9t-9 22t9 22t22 9t22 -9t9 -22z M370 589q0 -13 -9 -22t-22 -9t-22 9t-9 22t9 22t22 9t22 -9t9 -22zM184 341q0 -13 -9 -22t-22 -9t-22 9t-9 22t9 22t22 9t22 -9t9 -22zM246 341q0 -13 -9 -22t-22 -9t-22 9t-9 22t9 22t22 9t22 -9t9 -22zM308 341q0 -13 -9 -22t-22 -9t-22 9t-9 22t9 22t22 9t22 -9t9 -22z M122 341q0 -13 -9 -22t-22 -9t-22 9t-9 22t9 22t22 9t22 -9t9 -22zM184 589q0 -13 -9 -22t-22 -9t-22 9t-9 22t9 22t22 9t22 -9t9 -22zM246 589q0 -13 -9 -22t-22 -9t-22 9t-9 22t9 22t22 9t22 -9t9 -22zM308 589q0 -13 -9 -22t-22 -9t-22 9t-9 22t9 22t22 9t22 -9t9 -22z M122 589q0 -13 -9 -22t-22 -9t-22 9t-9 22t9 22t22 9t22 -9t9 -22zM184 31q0 -13 -9 -22t-22 -9t-22 9t-9 22t9 22t22 9t22 -9t9 -22zM246 31q0 -13 -9 -22t-22 -9t-22 9t-9 22t9 22t22 9t22 -9t9 -22zM308 31q0 -13 -9 -22t-22 -9t-22 9t-9 22t9 22t22 9t22 -9t9 -22z M122 31q0 -13 -9 -22t-22 -9t-22 9t-9 22t9 22t22 9t22 -9t9 -22zM432 465q0 -13 -9 -22t-22 -9t-22 9t-9 22t9 22t22 9t22 -9t9 -22zM432 527q0 -13 -9 -22t-22 -9t-22 9t-9 22t9 22t22 9t22 -9t9 -22zM432 93q0 -13 -9 -22t-22 -9t-22 9t-9 22t9 22t22 9t22 -9t9 -22z M370 341q0 -13 -9 -22t-22 -9t-22 9t-9 22t9 22t22 9t22 -9t9 -22zM432 155q0 -13 -9 -22t-22 -9t-22 9t-9 22t9 22t22 9t22 -9t9 -22zM432 217q0 -13 -9 -22t-22 -9t-22 9t-9 22t9 22t22 9t22 -9t9 -22zM432 279q0 -13 -9 -22t-22 -9t-22 9t-9 22t9 22t22 9t22 -9t9 -22z M432 403q0 -13 -9 -22t-22 -9t-22 9t-9 22t9 22t22 9t22 -9t9 -22z" />
<glyph unicode="C" horiz-adv-x="452" d="M246 31q0 -13 -9 -22t-22 -9t-22 9t-9 22t9 22t22 9t22 -9t9 -22zM308 31q0 -13 -9 -22t-22 -9t-22 9t-9 22t9 22t22 9t22 -9t9 -22zM370 31q0 -13 -9 -22t-22 -9t-22 9t-9 22t9 22t22 9t22 -9t9 -22zM184 31q0 -13 -9 -22t-22 -9t-22 9t-9 22t9 22t22 9t22 -9t9 -22z M246 589q0 -13 -9 -22t-22 -9t-22 9t-9 22t9 22t22 9t22 -9t9 -22zM308 589q0 -13 -9 -22t-22 -9t-22 9t-9 22t9 22t22 9t22 -9t9 -22zM370 589q0 -13 -9 -22t-22 -9t-22 9t-9 22t9 22t22 9t22 -9t9 -22zM184 589q0 -13 -9 -22t-22 -9t-22 9t-9 22t9 22t22 9t22 -9t9 -22z M122 155q0 -13 -9 -22t-22 -9t-22 9t-9 22t9 22t22 9t22 -9t9 -22zM122 217q0 -13 -9 -22t-22 -9t-22 9t-9 22t9 22t22 9t22 -9t9 -22zM122 279q0 -13 -9 -22t-22 -9t-22 9t-9 22t9 22t22 9t22 -9t9 -22zM122 341q0 -13 -9 -22t-22 -9t-22 9t-9 22t9 22t22 9t22 -9t9 -22z M122 403q0 -13 -9 -22t-22 -9t-22 9t-9 22t9 22t22 9t22 -9t9 -22zM122 465q0 -13 -9 -22t-22 -9t-22 9t-9 22t9 22t22 9t22 -9t9 -22zM122 527q0 -13 -9 -22t-22 -9t-22 9t-9 22t9 22t22 9t22 -9t9 -22zM122 93q0 -13 -9 -22t-22 -9t-22 9t-9 22t9 22t22 9t22 -9t9 -22z M432 31q0 -13 -9 -22t-22 -9t-22 9t-9 22t9 22t22 9t22 -9t9 -22zM432 527q0 -13 -9 -22t-22 -9t-22 9t-9 22t9 22t22 9t22 -9t9 -22z" />
<glyph unicode="D" horiz-adv-x="492" d="M184 31q0 -13 -9 -22t-22 -9t-22 9t-9 22t9 22t22 9t22 -9t9 -22zM246 31q0 -13 -9 -22t-22 -9t-22 9t-9 22t9 22t22 9t22 -9t9 -22zM308 31q0 -13 -9 -22t-22 -9t-22 9t-9 22t9 22t22 9t22 -9t9 -22zM122 31q0 -13 -9 -22t-22 -9t-22 9t-9 22t9 22t22 9t22 -9t9 -22z M184 589q0 -13 -9 -22t-22 -9t-22 9t-9 22t9 22t22 9t22 -9t9 -22zM246 589q0 -13 -9 -22t-22 -9t-22 9t-9 22t9 22t22 9t22 -9t9 -22zM308 589q0 -13 -9 -22t-22 -9t-22 9t-9 22t9 22t22 9t22 -9t9 -22zM122 589q0 -13 -9 -22t-22 -9t-22 9t-9 22t9 22t22 9t22 -9t9 -22z M122 155q0 -13 -9 -22t-22 -9t-22 9t-9 22t9 22t22 9t22 -9t9 -22zM122 217q0 -13 -9 -22t-22 -9t-22 9t-9 22t9 22t22 9t22 -9t9 -22zM122 279q0 -13 -9 -22t-22 -9t-22 9t-9 22t9 22t22 9t22 -9t9 -22zM122 341q0 -13 -9 -22t-22 -9t-22 9t-9 22t9 22t22 9t22 -9t9 -22z M122 403q0 -13 -9 -22t-22 -9t-22 9t-9 22t9 22t22 9t22 -9t9 -22zM122 465q0 -13 -9 -22t-22 -9t-22 9t-9 22t9 22t22 9t22 -9t9 -22zM122 527q0 -13 -9 -22t-22 -9t-22 9t-9 22t9 22t22 9t22 -9t9 -22zM122 93q0 -13 -9 -22t-22 -9t-22 9t-9 22t9 22t22 9t22 -9t9 -22z M370 31q0 -13 -9 -22t-22 -9t-22 9t-9 22t9 22t22 9t22 -9t9 -22zM370 589q0 -13 -9 -22t-22 -9t-22 9t-9 22t9 22t22 9t22 -9t9 -22zM432 465q0 -13 -9 -22t-22 -9t-22 9t-9 22t9 22t22 9t22 -9t9 -22zM432 527q0 -13 -9 -22t-22 -9t-22 9t-9 22t9 22t22 9t22 -9t9 -22z M432 93q0 -13 -9 -22t-22 -9t-22 9t-9 22t9 22t22 9t22 -9t9 -22zM432 155q0 -13 -9 -22t-22 -9t-22 9t-9 22t9 22t22 9t22 -9t9 -22zM432 217q0 -13 -9 -22t-22 -9t-22 9t-9 22t9 22t22 9t22 -9t9 -22zM432 279q0 -13 -9 -22t-22 -9t-22 9t-9 22t9 22t22 9t22 -9t9 -22z M432 341q0 -13 -9 -22t-22 -9t-22 9t-9 22t9 22t22 9t22 -9t9 -22zM432 403q0 -13 -9 -22t-22 -9t-22 9t-9 22t9 22t22 9t22 -9t9 -22z" />
<glyph unicode="E" horiz-adv-x="390" d="M184 31q0 -13 -9 -22t-22 -9t-22 9t-9 22t9 22t22 9t22 -9t9 -22zM246 31q0 -13 -9 -22t-22 -9t-22 9t-9 22t9 22t22 9t22 -9t9 -22zM308 31q0 -13 -9 -22t-22 -9t-22 9t-9 22t9 22t22 9t22 -9t9 -22zM122 31q0 -13 -9 -22t-22 -9t-22 9t-9 22t9 22t22 9t22 -9t9 -22z M184 589q0 -13 -9 -22t-22 -9t-22 9t-9 22t9 22t22 9t22 -9t9 -22zM246 589q0 -13 -9 -22t-22 -9t-22 9t-9 22t9 22t22 9t22 -9t9 -22zM308 589q0 -13 -9 -22t-22 -9t-22 9t-9 22t9 22t22 9t22 -9t9 -22zM122 589q0 -13 -9 -22t-22 -9t-22 9t-9 22t9 22t22 9t22 -9t9 -22z M184 341q0 -13 -9 -22t-22 -9t-22 9t-9 22t9 22t22 9t22 -9t9 -22zM246 341q0 -13 -9 -22t-22 -9t-22 9t-9 22t9 22t22 9t22 -9t9 -22zM308 341q0 -13 -9 -22t-22 -9t-22 9t-9 22t9 22t22 9t22 -9t9 -22zM122 341q0 -13 -9 -22t-22 -9t-22 9t-9 22t9 22t22 9t22 -9t9 -22z M122 155q0 -13 -9 -22t-22 -9t-22 9t-9 22t9 22t22 9t22 -9t9 -22zM122 217q0 -13 -9 -22t-22 -9t-22 9t-9 22t9 22t22 9t22 -9t9 -22zM122 279q0 -13 -9 -22t-22 -9t-22 9t-9 22t9 22t22 9t22 -9t9 -22zM122 403q0 -13 -9 -22t-22 -9t-22 9t-9 22t9 22t22 9t22 -9t9 -22z M122 465q0 -13 -9 -22t-22 -9t-22 9t-9 22t9 22t22 9t22 -9t9 -22zM122 527q0 -13 -9 -22t-22 -9t-22 9t-9 22t9 22t22 9t22 -9t9 -22zM122 93q0 -13 -9 -22t-22 -9t-22 9t-9 22t9 22t22 9t22 -9t9 -22zM370 31q0 -13 -9 -22t-22 -9t-22 9t-9 22t9 22t22 9t22 -9t9 -22z M370 589q0 -13 -9 -22t-22 -9t-22 9t-9 22t9 22t22 9t22 -9t9 -22z" />
<glyph unicode="F" horiz-adv-x="390" d="M184 589q0 -13 -9 -22t-22 -9t-22 9t-9 22t9 22t22 9t22 -9t9 -22zM246 589q0 -13 -9 -22t-22 -9t-22 9t-9 22t9 22t22 9t22 -9t9 -22zM308 589q0 -13 -9 -22t-22 -9t-22 9t-9 22t9 22t22 9t22 -9t9 -22zM122 589q0 -13 -9 -22t-22 -9t-22 9t-9 22t9 22t22 9t22 -9t9 -22 zM184 341q0 -13 -9 -22t-22 -9t-22 9t-9 22t9 22t22 9t22 -9t9 -22zM246 341q0 -13 -9 -22t-22 -9t-22 9t-9 22t9 22t22 9t22 -9t9 -22zM308 341q0 -13 -9 -22t-22 -9t-22 9t-9 22t9 22t22 9t22 -9t9 -22zM122 341q0 -13 -9 -22t-22 -9t-22 9t-9 22t9 22t22 9t22 -9t9 -22z M122 31q0 -13 -9 -22t-22 -9t-22 9t-9 22t9 22t22 9t22 -9t9 -22zM122 155q0 -13 -9 -22t-22 -9t-22 9t-9 22t9 22t22 9t22 -9t9 -22zM122 217q0 -13 -9 -22t-22 -9t-22 9t-9 22t9 22t22 9t22 -9t9 -22zM122 279q0 -13 -9 -22t-22 -9t-22 9t-9 22t9 22t22 9t22 -9t9 -22z M122 403q0 -13 -9 -22t-22 -9t-22 9t-9 22t9 22t22 9t22 -9t9 -22zM122 465q0 -13 -9 -22t-22 -9t-22 9t-9 22t9 22t22 9t22 -9t9 -22zM122 527q0 -13 -9 -22t-22 -9t-22 9t-9 22t9 22t22 9t22 -9t9 -22zM122 93q0 -13 -9 -22t-22 -9t-22 9t-9 22t9 22t22 9t22 -9t9 -22z M370 589q0 -13 -9 -22t-22 -9t-22 9t-9 22t9 22t22 9t22 -9t9 -22z" />
<glyph unicode="G" horiz-adv-x="482" d="M246 31q0 -13 -9 -22t-22 -9t-22 9t-9 22t9 22t22 9t22 -9t9 -22zM308 31q0 -13 -9 -22t-22 -9t-22 9t-9 22t9 22t22 9t22 -9t9 -22zM370 31q0 -13 -9 -22t-22 -9t-22 9t-9 22t9 22t22 9t22 -9t9 -22zM184 31q0 -13 -9 -22t-22 -9t-22 9t-9 22t9 22t22 9t22 -9t9 -22z M246 589q0 -13 -9 -22t-22 -9t-22 9t-9 22t9 22t22 9t22 -9t9 -22zM308 589q0 -13 -9 -22t-22 -9t-22 9t-9 22t9 22t22 9t22 -9t9 -22zM370 589q0 -13 -9 -22t-22 -9t-22 9t-9 22t9 22t22 9t22 -9t9 -22zM184 589q0 -13 -9 -22t-22 -9t-22 9t-9 22t9 22t22 9t22 -9t9 -22z M122 155q0 -13 -9 -22t-22 -9t-22 9t-9 22t9 22t22 9t22 -9t9 -22zM122 217q0 -13 -9 -22t-22 -9t-22 9t-9 22t9 22t22 9t22 -9t9 -22zM122 279q0 -13 -9 -22t-22 -9t-22 9t-9 22t9 22t22 9t22 -9t9 -22zM122 341q0 -13 -9 -22t-22 -9t-22 9t-9 22t9 22t22 9t22 -9t9 -22z M122 403q0 -13 -9 -22t-22 -9t-22 9t-9 22t9 22t22 9t22 -9t9 -22zM122 465q0 -13 -9 -22t-22 -9t-22 9t-9 22t9 22t22 9t22 -9t9 -22zM122 527q0 -13 -9 -22t-22 -9t-22 9t-9 22t9 22t22 9t22 -9t9 -22zM122 93q0 -13 -9 -22t-22 -9t-22 9t-9 22t9 22t22 9t22 -9t9 -22z M432 527q0 -13 -9 -22t-22 -9t-22 9t-9 22t9 22t22 9t22 -9t9 -22zM432 155q0 -13 -9 -22t-22 -9t-22 9t-9 22t9 22t22 9t22 -9t9 -22zM432 217q0 -13 -9 -22t-22 -9t-22 9t-9 22t9 22t22 9t22 -9t9 -22zM432 279q0 -13 -9 -22t-22 -9t-22 9t-9 22t9 22t22 9t22 -9t9 -22z M432 93q0 -13 -9 -22t-22 -9t-22 9t-9 22t9 22t22 9t22 -9t9 -22zM370 279q0 -13 -9 -22t-22 -9t-22 9t-9 22t9 22t22 9t22 -9t9 -22z" />
<glyph unicode="H" horiz-adv-x="492" d="M184 341q0 -13 -9 -22t-22 -9t-22 9t-9 22t9 22t22 9t22 -9t9 -22zM246 341q0 -13 -9 -22t-22 -9t-22 9t-9 22t9 22t22 9t22 -9t9 -22zM308 341q0 -13 -9 -22t-22 -9t-22 9t-9 22t9 22t22 9t22 -9t9 -22zM122 341q0 -13 -9 -22t-22 -9t-22 9t-9 22t9 22t22 9t22 -9t9 -22 zM432 31q0 -13 -9 -22t-22 -9t-22 9t-9 22t9 22t22 9t22 -9t9 -22zM432 465q0 -13 -9 -22t-22 -9t-22 9t-9 22t9 22t22 9t22 -9t9 -22zM432 527q0 -13 -9 -22t-22 -9t-22 9t-9 22t9 22t22 9t22 -9t9 -22zM432 589q0 -13 -9 -22t-22 -9t-22 9t-9 22t9 22t22 9t22 -9t9 -22z M432 93q0 -13 -9 -22t-22 -9t-22 9t-9 22t9 22t22 9t22 -9t9 -22zM432 155q0 -13 -9 -22t-22 -9t-22 9t-9 22t9 22t22 9t22 -9t9 -22zM432 217q0 -13 -9 -22t-22 -9t-22 9t-9 22t9 22t22 9t22 -9t9 -22zM432 279q0 -13 -9 -22t-22 -9t-22 9t-9 22t9 22t22 9t22 -9t9 -22z M432 341q0 -13 -9 -22t-22 -9t-22 9t-9 22t9 22t22 9t22 -9t9 -22zM432 403q0 -13 -9 -22t-22 -9t-22 9t-9 22t9 22t22 9t22 -9t9 -22zM122 31q0 -13 -9 -22t-22 -9t-22 9t-9 22t9 22t22 9t22 -9t9 -22zM122 465q0 -13 -9 -22t-22 -9t-22 9t-9 22t9 22t22 9t22 -9t9 -22z M122 527q0 -13 -9 -22t-22 -9t-22 9t-9 22t9 22t22 9t22 -9t9 -22zM122 589q0 -13 -9 -22t-22 -9t-22 9t-9 22t9 22t22 9t22 -9t9 -22zM122 93q0 -13 -9 -22t-22 -9t-22 9t-9 22t9 22t22 9t22 -9t9 -22zM122 155q0 -13 -9 -22t-22 -9t-22 9t-9 22t9 22t22 9t22 -9t9 -22z M122 217q0 -13 -9 -22t-22 -9t-22 9t-9 22t9 22t22 9t22 -9t9 -22zM122 403q0 -13 -9 -22t-22 -9t-22 9t-9 22t9 22t22 9t22 -9t9 -22zM122 279q0 -13 -9 -22t-22 -9t-22 9t-9 22t9 22t22 9t22 -9t9 -22zM370 341q0 -13 -9 -22t-22 -9t-22 9t-9 22t9 22t22 9t22 -9t9 -22z " />
<glyph unicode="I" horiz-adv-x="266" d="M164 31q0 -13 -9 -22t-22 -9t-22 9t-9 22t9 22t22 9t22 -9t9 -22zM164 155q0 -13 -9 -22t-22 -9t-22 9t-9 22t9 22t22 9t22 -9t9 -22zM164 217q0 -13 -9 -22t-22 -9t-22 9t-9 22t9 22t22 9t22 -9t9 -22zM164 279q0 -13 -9 -22t-22 -9t-22 9t-9 22t9 22t22 9t22 -9t9 -22z M164 341q0 -13 -9 -22t-22 -9t-22 9t-9 22t9 22t22 9t22 -9t9 -22zM164 403q0 -13 -9 -22t-22 -9t-22 9t-9 22t9 22t22 9t22 -9t9 -22zM164 465q0 -13 -9 -22t-22 -9t-22 9t-9 22t9 22t22 9t22 -9t9 -22zM164 527q0 -13 -9 -22t-22 -9t-22 9t-9 22t9 22t22 9t22 -9t9 -22z M164 589q0 -13 -9 -22t-22 -9t-22 9t-9 22t9 22t22 9t22 -9t9 -22zM164 93q0 -13 -9 -22t-22 -9t-22 9t-9 22t9 22t22 9t22 -9t9 -22zM226 31q0 -13 -9 -22t-22 -9t-22 9t-9 22t9 22t22 9t22 -9t9 -22zM226 589q0 -13 -9 -22t-22 -9t-22 9t-9 22t9 22t22 9t22 -9t9 -22z M102 31q0 -13 -9 -22t-22 -9t-22 9t-9 22t9 22t22 9t22 -9t9 -22zM102 589q0 -13 -9 -22t-22 -9t-22 9t-9 22t9 22t22 9t22 -9t9 -22z" />
<glyph unicode="J" horiz-adv-x="432" d="M186 31q0 -13 -9 -22t-22 -9t-22 9t-9 22t9 22t22 9t22 -9t9 -22zM248 31q0 -13 -9 -22t-22 -9t-22 9t-9 22t9 22t22 9t22 -9t9 -22zM310 31q0 -13 -9 -22t-22 -9t-22 9t-9 22t9 22t22 9t22 -9t9 -22zM124 31q0 -13 -9 -22t-22 -9t-22 9t-9 22t9 22t22 9t22 -9t9 -22z M62 93q0 -13 -9 -22t-22 -9t-22 9t-9 22t9 22t22 9t22 -9t9 -22zM248 589q0 -13 -9 -22t-22 -9t-22 9t-9 22t9 22t22 9t22 -9t9 -22zM310 589q0 -13 -9 -22t-22 -9t-22 9t-9 22t9 22t22 9t22 -9t9 -22zM372 465q0 -13 -9 -22t-22 -9t-22 9t-9 22t9 22t22 9t22 -9t9 -22z M372 527q0 -13 -9 -22t-22 -9t-22 9t-9 22t9 22t22 9t22 -9t9 -22zM372 589q0 -13 -9 -22t-22 -9t-22 9t-9 22t9 22t22 9t22 -9t9 -22zM372 93q0 -13 -9 -22t-22 -9t-22 9t-9 22t9 22t22 9t22 -9t9 -22zM372 155q0 -13 -9 -22t-22 -9t-22 9t-9 22t9 22t22 9t22 -9t9 -22z M372 217q0 -13 -9 -22t-22 -9t-22 9t-9 22t9 22t22 9t22 -9t9 -22zM372 279q0 -13 -9 -22t-22 -9t-22 9t-9 22t9 22t22 9t22 -9t9 -22zM372 341q0 -13 -9 -22t-22 -9t-22 9t-9 22t9 22t22 9t22 -9t9 -22zM372 403q0 -13 -9 -22t-22 -9t-22 9t-9 22t9 22t22 9t22 -9t9 -22z " />
<glyph unicode="K" d="M122 31q0 -13 -9 -22t-22 -9t-22 9t-9 22t9 22t22 9t22 -9t9 -22zM122 465q0 -13 -9 -22t-22 -9t-22 9t-9 22t9 22t22 9t22 -9t9 -22zM122 527q0 -13 -9 -22t-22 -9t-22 9t-9 22t9 22t22 9t22 -9t9 -22zM122 589q0 -13 -9 -22t-22 -9t-22 9t-9 22t9 22t22 9t22 -9t9 -22z M122 93q0 -13 -9 -22t-22 -9t-22 9t-9 22t9 22t22 9t22 -9t9 -22zM122 155q0 -13 -9 -22t-22 -9t-22 9t-9 22t9 22t22 9t22 -9t9 -22zM122 217q0 -13 -9 -22t-22 -9t-22 9t-9 22t9 22t22 9t22 -9t9 -22zM122 279q0 -13 -9 -22t-22 -9t-22 9t-9 22t9 22t22 9t22 -9t9 -22z M122 341q0 -13 -9 -22t-22 -9t-22 9t-9 22t9 22t22 9t22 -9t9 -22zM122 403q0 -13 -9 -22t-22 -9t-22 9t-9 22t9 22t22 9t22 -9t9 -22zM370 155q0 -13 -9 -22t-22 -9t-22 9t-9 22t9 22t22 9t22 -9t9 -22zM370 527q0 -13 -9 -22t-22 -9t-22 9t-9 22t9 22t22 9t22 -9t9 -22z M246 279q0 -13 -9 -22t-22 -9t-22 9t-9 22t9 22t22 9t22 -9t9 -22zM246 403q0 -13 -9 -22t-22 -9t-22 9t-9 22t9 22t22 9t22 -9t9 -22zM308 465q0 -13 -9 -22t-22 -9t-22 9t-9 22t9 22t22 9t22 -9t9 -22zM308 217q0 -13 -9 -22t-22 -9t-22 9t-9 22t9 22t22 9t22 -9t9 -22z M184 341q0 -13 -9 -22t-22 -9t-22 9t-9 22t9 22t22 9t22 -9t9 -22zM432 31q0 -13 -9 -22t-22 -9t-22 9t-9 22t9 22t22 9t22 -9t9 -22zM432 589q0 -13 -9 -22t-22 -9t-22 9t-9 22t9 22t22 9t22 -9t9 -22zM432 93q0 -13 -9 -22t-22 -9t-22 9t-9 22t9 22t22 9t22 -9t9 -22z" />
<glyph unicode="L" horiz-adv-x="452" d="M184 31q0 -13 -9 -22t-22 -9t-22 9t-9 22t9 22t22 9t22 -9t9 -22zM246 31q0 -13 -9 -22t-22 -9t-22 9t-9 22t9 22t22 9t22 -9t9 -22zM308 31q0 -13 -9 -22t-22 -9t-22 9t-9 22t9 22t22 9t22 -9t9 -22zM122 31q0 -13 -9 -22t-22 -9t-22 9t-9 22t9 22t22 9t22 -9t9 -22z M122 155q0 -13 -9 -22t-22 -9t-22 9t-9 22t9 22t22 9t22 -9t9 -22zM122 217q0 -13 -9 -22t-22 -9t-22 9t-9 22t9 22t22 9t22 -9t9 -22zM122 279q0 -13 -9 -22t-22 -9t-22 9t-9 22t9 22t22 9t22 -9t9 -22zM122 341q0 -13 -9 -22t-22 -9t-22 9t-9 22t9 22t22 9t22 -9t9 -22z M122 403q0 -13 -9 -22t-22 -9t-22 9t-9 22t9 22t22 9t22 -9t9 -22zM122 465q0 -13 -9 -22t-22 -9t-22 9t-9 22t9 22t22 9t22 -9t9 -22zM122 527q0 -13 -9 -22t-22 -9t-22 9t-9 22t9 22t22 9t22 -9t9 -22zM122 589q0 -13 -9 -22t-22 -9t-22 9t-9 22t9 22t22 9t22 -9t9 -22z M122 93q0 -13 -9 -22t-22 -9t-22 9t-9 22t9 22t22 9t22 -9t9 -22zM370 31q0 -13 -9 -22t-22 -9t-22 9t-9 22t9 22t22 9t22 -9t9 -22zM432 31q0 -13 -9 -22t-22 -9t-22 9t-9 22t9 22t22 9t22 -9t9 -22z" />
<glyph unicode="M" horiz-adv-x="554" d="M494 31q0 -13 -9 -22t-22 -9t-22 9t-9 22t9 22t22 9t22 -9t9 -22zM494 155q0 -13 -9 -22t-22 -9t-22 9t-9 22t9 22t22 9t22 -9t9 -22zM494 217q0 -13 -9 -22t-22 -9t-22 9t-9 22t9 22t22 9t22 -9t9 -22zM494 279q0 -13 -9 -22t-22 -9t-22 9t-9 22t9 22t22 9t22 -9t9 -22z M494 341q0 -13 -9 -22t-22 -9t-22 9t-9 22t9 22t22 9t22 -9t9 -22zM494 403q0 -13 -9 -22t-22 -9t-22 9t-9 22t9 22t22 9t22 -9t9 -22zM494 465q0 -13 -9 -22t-22 -9t-22 9t-9 22t9 22t22 9t22 -9t9 -22zM494 527q0 -13 -9 -22t-22 -9t-22 9t-9 22t9 22t22 9t22 -9t9 -22z M494 589q0 -13 -9 -22t-22 -9t-22 9t-9 22t9 22t22 9t22 -9t9 -22zM494 93q0 -13 -9 -22t-22 -9t-22 9t-9 22t9 22t22 9t22 -9t9 -22zM432 527q0 -13 -9 -22t-22 -9t-22 9t-9 22t9 22t22 9t22 -9t9 -22zM370 465q0 -13 -9 -22t-22 -9t-22 9t-9 22t9 22t22 9t22 -9t9 -22z M122 465q0 -13 -9 -22t-22 -9t-22 9t-9 22t9 22t22 9t22 -9t9 -22zM184 465q0 13 9 22t22 9t22 -9t9 -22t-9 -22t-22 -9t-22 9t-9 22zM122 527q0 13 9 22t22 9t22 -9t9 -22t-9 -22t-22 -9t-22 9t-9 22zM122 31q0 -13 -9 -22t-22 -9t-22 9t-9 22t9 22t22 9t22 -9t9 -22z M122 155q0 -13 -9 -22t-22 -9t-22 9t-9 22t9 22t22 9t22 -9t9 -22zM122 217q0 -13 -9 -22t-22 -9t-22 9t-9 22t9 22t22 9t22 -9t9 -22zM122 279q0 -13 -9 -22t-22 -9t-22 9t-9 22t9 22t22 9t22 -9t9 -22zM122 341q0 -13 -9 -22t-22 -9t-22 9t-9 22t9 22t22 9t22 -9t9 -22z M122 403q0 -13 -9 -22t-22 -9t-22 9t-9 22t9 22t22 9t22 -9t9 -22zM122 527q0 -13 -9 -22t-22 -9t-22 9t-9 22t9 22t22 9t22 -9t9 -22zM122 589q0 -13 -9 -22t-22 -9t-22 9t-9 22t9 22t22 9t22 -9t9 -22zM122 93q0 -13 -9 -22t-22 -9t-22 9t-9 22t9 22t22 9t22 -9t9 -22z M308 403q0 -13 -9 -22t-22 -9t-22 9t-9 22t9 22t22 9t22 -9t9 -22z" />
<glyph unicode="N" horiz-adv-x="492" d="M122 403q0 -13 -9 -22t-22 -9t-22 9t-9 22t9 22t22 9t22 -9t9 -22zM184 403q0 13 9 22t22 9t22 -9t9 -22t-9 -22t-22 -9t-22 9t-9 22zM122 465q0 13 9 22t22 9t22 -9t9 -22t-9 -22t-22 -9t-22 9t-9 22zM432 31q0 -13 -9 -22t-22 -9t-22 9t-9 22t9 22t22 9t22 -9t9 -22z M432 465q0 -13 -9 -22t-22 -9t-22 9t-9 22t9 22t22 9t22 -9t9 -22zM432 527q0 -13 -9 -22t-22 -9t-22 9t-9 22t9 22t22 9t22 -9t9 -22zM432 589q0 -13 -9 -22t-22 -9t-22 9t-9 22t9 22t22 9t22 -9t9 -22zM432 93q0 -13 -9 -22t-22 -9t-22 9t-9 22t9 22t22 9t22 -9t9 -22z M432 155q0 -13 -9 -22t-22 -9t-22 9t-9 22t9 22t22 9t22 -9t9 -22zM432 217q0 -13 -9 -22t-22 -9t-22 9t-9 22t9 22t22 9t22 -9t9 -22zM432 279q0 -13 -9 -22t-22 -9t-22 9t-9 22t9 22t22 9t22 -9t9 -22zM432 341q0 -13 -9 -22t-22 -9t-22 9t-9 22t9 22t22 9t22 -9t9 -22z M432 403q0 -13 -9 -22t-22 -9t-22 9t-9 22t9 22t22 9t22 -9t9 -22zM122 31q0 -13 -9 -22t-22 -9t-22 9t-9 22t9 22t22 9t22 -9t9 -22zM122 155q0 -13 -9 -22t-22 -9t-22 9t-9 22t9 22t22 9t22 -9t9 -22zM122 217q0 -13 -9 -22t-22 -9t-22 9t-9 22t9 22t22 9t22 -9t9 -22z M122 279q0 -13 -9 -22t-22 -9t-22 9t-9 22t9 22t22 9t22 -9t9 -22zM122 341q0 -13 -9 -22t-22 -9t-22 9t-9 22t9 22t22 9t22 -9t9 -22zM122 465q0 -13 -9 -22t-22 -9t-22 9t-9 22t9 22t22 9t22 -9t9 -22zM122 527q0 -13 -9 -22t-22 -9t-22 9t-9 22t9 22t22 9t22 -9t9 -22z M122 589q0 -13 -9 -22t-22 -9t-22 9t-9 22t9 22t22 9t22 -9t9 -22zM122 93q0 -13 -9 -22t-22 -9t-22 9t-9 22t9 22t22 9t22 -9t9 -22zM246 341q0 -13 -9 -22t-22 -9t-22 9t-9 22t9 22t22 9t22 -9t9 -22zM308 217q0 -13 -9 -22t-22 -9t-22 9t-9 22t9 22t22 9t22 -9t9 -22z M308 279q0 -13 -9 -22t-22 -9t-22 9t-9 22t9 22t22 9t22 -9t9 -22zM370 155q0 -13 -9 -22t-22 -9t-22 9t-9 22t9 22t22 9t22 -9t9 -22z" />
<glyph unicode="O" horiz-adv-x="492" d="M246 31q0 -13 -9 -22t-22 -9t-22 9t-9 22t9 22t22 9t22 -9t9 -22zM308 31q0 -13 -9 -22t-22 -9t-22 9t-9 22t9 22t22 9t22 -9t9 -22zM370 31q0 -13 -9 -22t-22 -9t-22 9t-9 22t9 22t22 9t22 -9t9 -22zM184 31q0 -13 -9 -22t-22 -9t-22 9t-9 22t9 22t22 9t22 -9t9 -22z M246 589q0 -13 -9 -22t-22 -9t-22 9t-9 22t9 22t22 9t22 -9t9 -22zM308 589q0 -13 -9 -22t-22 -9t-22 9t-9 22t9 22t22 9t22 -9t9 -22zM370 589q0 -13 -9 -22t-22 -9t-22 9t-9 22t9 22t22 9t22 -9t9 -22zM184 589q0 -13 -9 -22t-22 -9t-22 9t-9 22t9 22t22 9t22 -9t9 -22z M122 155q0 -13 -9 -22t-22 -9t-22 9t-9 22t9 22t22 9t22 -9t9 -22zM122 217q0 -13 -9 -22t-22 -9t-22 9t-9 22t9 22t22 9t22 -9t9 -22zM122 279q0 -13 -9 -22t-22 -9t-22 9t-9 22t9 22t22 9t22 -9t9 -22zM122 341q0 -13 -9 -22t-22 -9t-22 9t-9 22t9 22t22 9t22 -9t9 -22z M122 403q0 -13 -9 -22t-22 -9t-22 9t-9 22t9 22t22 9t22 -9t9 -22zM122 465q0 -13 -9 -22t-22 -9t-22 9t-9 22t9 22t22 9t22 -9t9 -22zM122 527q0 -13 -9 -22t-22 -9t-22 9t-9 22t9 22t22 9t22 -9t9 -22zM122 93q0 -13 -9 -22t-22 -9t-22 9t-9 22t9 22t22 9t22 -9t9 -22z M432 155q0 -13 -9 -22t-22 -9t-22 9t-9 22t9 22t22 9t22 -9t9 -22zM432 217q0 -13 -9 -22t-22 -9t-22 9t-9 22t9 22t22 9t22 -9t9 -22zM432 279q0 -13 -9 -22t-22 -9t-22 9t-9 22t9 22t22 9t22 -9t9 -22zM432 341q0 -13 -9 -22t-22 -9t-22 9t-9 22t9 22t22 9t22 -9t9 -22z M432 403q0 -13 -9 -22t-22 -9t-22 9t-9 22t9 22t22 9t22 -9t9 -22zM432 465q0 -13 -9 -22t-22 -9t-22 9t-9 22t9 22t22 9t22 -9t9 -22zM432 527q0 -13 -9 -22t-22 -9t-22 9t-9 22t9 22t22 9t22 -9t9 -22zM432 93q0 -13 -9 -22t-22 -9t-22 9t-9 22t9 22t22 9t22 -9t9 -22z " />
<glyph unicode="P" d="M184 589q0 -13 -9 -22t-22 -9t-22 9t-9 22t9 22t22 9t22 -9t9 -22zM246 589q0 -13 -9 -22t-22 -9t-22 9t-9 22t9 22t22 9t22 -9t9 -22zM308 589q0 -13 -9 -22t-22 -9t-22 9t-9 22t9 22t22 9t22 -9t9 -22zM122 589q0 -13 -9 -22t-22 -9t-22 9t-9 22t9 22t22 9t22 -9t9 -22 zM122 217q0 -13 -9 -22t-22 -9t-22 9t-9 22t9 22t22 9t22 -9t9 -22zM184 217q0 13 9 22t22 9t22 -9t9 -22t-9 -22t-22 -9t-22 9t-9 22zM122 279q0 13 9 22t22 9t22 -9t9 -22t-9 -22t-22 -9t-22 9t-9 22zM122 31q0 -13 -9 -22t-22 -9t-22 9t-9 22t9 22t22 9t22 -9t9 -22z M122 155q0 -13 -9 -22t-22 -9t-22 9t-9 22t9 22t22 9t22 -9t9 -22zM122 279q0 -13 -9 -22t-22 -9t-22 9t-9 22t9 22t22 9t22 -9t9 -22zM122 341q0 -13 -9 -22t-22 -9t-22 9t-9 22t9 22t22 9t22 -9t9 -22zM122 403q0 -13 -9 -22t-22 -9t-22 9t-9 22t9 22t22 9t22 -9t9 -22z M122 465q0 -13 -9 -22t-22 -9t-22 9t-9 22t9 22t22 9t22 -9t9 -22zM122 527q0 -13 -9 -22t-22 -9t-22 9t-9 22t9 22t22 9t22 -9t9 -22zM122 93q0 -13 -9 -22t-22 -9t-22 9t-9 22t9 22t22 9t22 -9t9 -22zM370 589q0 -13 -9 -22t-22 -9t-22 9t-9 22t9 22t22 9t22 -9t9 -22z M432 465q0 -13 -9 -22t-22 -9t-22 9t-9 22t9 22t22 9t22 -9t9 -22zM432 527q0 -13 -9 -22t-22 -9t-22 9t-9 22t9 22t22 9t22 -9t9 -22zM308 217q0 -13 -9 -22t-22 -9t-22 9t-9 22t9 22t22 9t22 -9t9 -22zM370 217q0 -13 -9 -22t-22 -9t-22 9t-9 22t9 22t22 9t22 -9t9 -22z M432 279q0 -13 -9 -22t-22 -9t-22 9t-9 22t9 22t22 9t22 -9t9 -22zM432 341q0 -13 -9 -22t-22 -9t-22 9t-9 22t9 22t22 9t22 -9t9 -22zM432 403q0 -13 -9 -22t-22 -9t-22 9t-9 22t9 22t22 9t22 -9t9 -22z" />
<glyph unicode="Q" horiz-adv-x="492" d="M122 155q0 -13 -9 -22t-22 -9t-22 9t-9 22t9 22t22 9t22 -9t9 -22zM122 217q0 -13 -9 -22t-22 -9t-22 9t-9 22t9 22t22 9t22 -9t9 -22zM122 279q0 -13 -9 -22t-22 -9t-22 9t-9 22t9 22t22 9t22 -9t9 -22zM122 341q0 -13 -9 -22t-22 -9t-22 9t-9 22t9 22t22 9t22 -9t9 -22 zM122 403q0 -13 -9 -22t-22 -9t-22 9t-9 22t9 22t22 9t22 -9t9 -22zM122 465q0 -13 -9 -22t-22 -9t-22 9t-9 22t9 22t22 9t22 -9t9 -22zM122 527q0 -13 -9 -22t-22 -9t-22 9t-9 22t9 22t22 9t22 -9t9 -22zM122 93q0 -13 -9 -22t-22 -9t-22 9t-9 22t9 22t22 9t22 -9t9 -22z M432 155q0 -13 -9 -22t-22 -9t-22 9t-9 22t9 22t22 9t22 -9t9 -22zM432 217q0 -13 -9 -22t-22 -9t-22 9t-9 22t9 22t22 9t22 -9t9 -22zM432 279q0 -13 -9 -22t-22 -9t-22 9t-9 22t9 22t22 9t22 -9t9 -22zM432 341q0 -13 -9 -22t-22 -9t-22 9t-9 22t9 22t22 9t22 -9t9 -22z M432 403q0 -13 -9 -22t-22 -9t-22 9t-9 22t9 22t22 9t22 -9t9 -22zM432 465q0 -13 -9 -22t-22 -9t-22 9t-9 22t9 22t22 9t22 -9t9 -22zM432 527q0 -13 -9 -22t-22 -9t-22 9t-9 22t9 22t22 9t22 -9t9 -22zM432 93q0 -13 -9 -22t-22 -9t-22 9t-9 22t9 22t22 9t22 -9t9 -22z M246 589q0 -13 -9 -22t-22 -9t-22 9t-9 22t9 22t22 9t22 -9t9 -22zM308 589q0 -13 -9 -22t-22 -9t-22 9t-9 22t9 22t22 9t22 -9t9 -22zM370 589q0 -13 -9 -22t-22 -9t-22 9t-9 22t9 22t22 9t22 -9t9 -22zM184 589q0 -13 -9 -22t-22 -9t-22 9t-9 22t9 22t22 9t22 -9t9 -22z M246 31q0 -13 -9 -22t-22 -9t-22 9t-9 22t9 22t22 9t22 -9t9 -22zM308 31q0 -13 -9 -22t-22 -9t-22 9t-9 22t9 22t22 9t22 -9t9 -22zM370 31q0 -13 -9 -22t-22 -9t-22 9t-9 22t9 22t22 9t22 -9t9 -22zM184 31q0 -13 -9 -22t-22 -9t-22 9t-9 22t9 22t22 9t22 -9t9 -22z M308 93q0 -13 -9 -22t-22 -9t-22 9t-9 22t9 22t22 9t22 -9t9 -22zM308 -31q0 -13 -9 -22t-22 -9t-22 9t-9 22t9 22t22 9t22 -9t9 -22zM370 -93q0 -13 -9 -22t-22 -9t-22 9t-9 22t9 22t22 9t22 -9t9 -22z" />
<glyph unicode="R" d="M184 589q0 -13 -9 -22t-22 -9t-22 9t-9 22t9 22t22 9t22 -9t9 -22zM246 589q0 -13 -9 -22t-22 -9t-22 9t-9 22t9 22t22 9t22 -9t9 -22zM308 589q0 -13 -9 -22t-22 -9t-22 9t-9 22t9 22t22 9t22 -9t9 -22zM122 589q0 -13 -9 -22t-22 -9t-22 9t-9 22t9 22t22 9t22 -9t9 -22 zM370 93q0 -13 -9 -22t-22 -9t-22 9t-9 22t9 22t22 9t22 -9t9 -22zM370 217q0 -13 -9 -22t-22 -9t-22 9t-9 22t9 22t22 9t22 -9t9 -22zM432 279q0 -13 -9 -22t-22 -9t-22 9t-9 22t9 22t22 9t22 -9t9 -22zM432 31q0 -13 -9 -22t-22 -9t-22 9t-9 22t9 22t22 9t22 -9t9 -22z M308 155q0 -13 -9 -22t-22 -9t-22 9t-9 22t9 22t22 9t22 -9t9 -22zM122 217q0 -13 -9 -22t-22 -9t-22 9t-9 22t9 22t22 9t22 -9t9 -22zM184 217q0 13 9 22t22 9t22 -9t9 -22t-9 -22t-22 -9t-22 9t-9 22zM122 279q0 13 9 22t22 9t22 -9t9 -22t-9 -22t-22 -9t-22 9t-9 22z M122 31q0 -13 -9 -22t-22 -9t-22 9t-9 22t9 22t22 9t22 -9t9 -22zM122 155q0 -13 -9 -22t-22 -9t-22 9t-9 22t9 22t22 9t22 -9t9 -22zM122 279q0 -13 -9 -22t-22 -9t-22 9t-9 22t9 22t22 9t22 -9t9 -22zM122 341q0 -13 -9 -22t-22 -9t-22 9t-9 22t9 22t22 9t22 -9t9 -22z M122 403q0 -13 -9 -22t-22 -9t-22 9t-9 22t9 22t22 9t22 -9t9 -22zM122 465q0 -13 -9 -22t-22 -9t-22 9t-9 22t9 22t22 9t22 -9t9 -22zM122 527q0 -13 -9 -22t-22 -9t-22 9t-9 22t9 22t22 9t22 -9t9 -22zM122 93q0 -13 -9 -22t-22 -9t-22 9t-9 22t9 22t22 9t22 -9t9 -22z M370 589q0 -13 -9 -22t-22 -9t-22 9t-9 22t9 22t22 9t22 -9t9 -22zM432 465q0 -13 -9 -22t-22 -9t-22 9t-9 22t9 22t22 9t22 -9t9 -22zM432 527q0 -13 -9 -22t-22 -9t-22 9t-9 22t9 22t22 9t22 -9t9 -22zM308 217q0 -13 -9 -22t-22 -9t-22 9t-9 22t9 22t22 9t22 -9t9 -22z M432 341q0 -13 -9 -22t-22 -9t-22 9t-9 22t9 22t22 9t22 -9t9 -22zM432 403q0 -13 -9 -22t-22 -9t-22 9t-9 22t9 22t22 9t22 -9t9 -22z" />
<glyph unicode="S" horiz-adv-x="442" d="M216 31q0 -13 -9 -22t-22 -9t-22 9t-9 22t9 22t22 9t22 -9t9 -22zM278 31q0 -13 -9 -22t-22 -9t-22 9t-9 22t9 22t22 9t22 -9t9 -22zM340 31q0 -13 -9 -22t-22 -9t-22 9t-9 22t9 22t22 9t22 -9t9 -22zM154 31q0 -13 -9 -22t-22 -9t-22 9t-9 22t9 22t22 9t22 -9t9 -22z M216 341q0 -13 -9 -22t-22 -9t-22 9t-9 22t9 22t22 9t22 -9t9 -22zM278 341q0 -13 -9 -22t-22 -9t-22 9t-9 22t9 22t22 9t22 -9t9 -22zM340 341q0 -13 -9 -22t-22 -9t-22 9t-9 22t9 22t22 9t22 -9t9 -22zM154 341q0 -13 -9 -22t-22 -9t-22 9t-9 22t9 22t22 9t22 -9t9 -22z M216 589q0 -13 -9 -22t-22 -9t-22 9t-9 22t9 22t22 9t22 -9t9 -22zM278 589q0 -13 -9 -22t-22 -9t-22 9t-9 22t9 22t22 9t22 -9t9 -22zM340 589q0 -13 -9 -22t-22 -9t-22 9t-9 22t9 22t22 9t22 -9t9 -22zM154 589q0 -13 -9 -22t-22 -9t-22 9t-9 22t9 22t22 9t22 -9t9 -22z M92 403q0 -13 -9 -22t-22 -9t-22 9t-9 22t9 22t22 9t22 -9t9 -22zM92 465q0 -13 -9 -22t-22 -9t-22 9t-9 22t9 22t22 9t22 -9t9 -22zM92 527q0 -13 -9 -22t-22 -9t-22 9t-9 22t9 22t22 9t22 -9t9 -22zM92 93q0 -13 -9 -22t-22 -9t-22 9t-9 22t9 22t22 9t22 -9t9 -22z M402 155q0 -13 -9 -22t-22 -9t-22 9t-9 22t9 22t22 9t22 -9t9 -22zM402 217q0 -13 -9 -22t-22 -9t-22 9t-9 22t9 22t22 9t22 -9t9 -22zM402 279q0 -13 -9 -22t-22 -9t-22 9t-9 22t9 22t22 9t22 -9t9 -22zM402 527q0 -13 -9 -22t-22 -9t-22 9t-9 22t9 22t22 9t22 -9t9 -22z M402 93q0 -13 -9 -22t-22 -9t-22 9t-9 22t9 22t22 9t22 -9t9 -22z" />
<glyph unicode="T" horiz-adv-x="350" d="M144 589q0 -13 -9 -22t-22 -9t-22 9t-9 22t9 22t22 9t22 -9t9 -22zM206 589q0 -13 -9 -22t-22 -9t-22 9t-9 22t9 22t22 9t22 -9t9 -22zM268 589q0 -13 -9 -22t-22 -9t-22 9t-9 22t9 22t22 9t22 -9t9 -22zM82 589q0 -13 -9 -22t-22 -9t-22 9t-9 22t9 22t22 9t22 -9t9 -22z M206 31q0 -13 -9 -22t-22 -9t-22 9t-9 22t9 22t22 9t22 -9t9 -22zM206 465q0 -13 -9 -22t-22 -9t-22 9t-9 22t9 22t22 9t22 -9t9 -22zM206 527q0 -13 -9 -22t-22 -9t-22 9t-9 22t9 22t22 9t22 -9t9 -22zM206 93q0 -13 -9 -22t-22 -9t-22 9t-9 22t9 22t22 9t22 -9t9 -22z M206 155q0 -13 -9 -22t-22 -9t-22 9t-9 22t9 22t22 9t22 -9t9 -22zM206 217q0 -13 -9 -22t-22 -9t-22 9t-9 22t9 22t22 9t22 -9t9 -22zM206 279q0 -13 -9 -22t-22 -9t-22 9t-9 22t9 22t22 9t22 -9t9 -22zM206 341q0 -13 -9 -22t-22 -9t-22 9t-9 22t9 22t22 9t22 -9t9 -22z M206 403q0 -13 -9 -22t-22 -9t-22 9t-9 22t9 22t22 9t22 -9t9 -22zM330 589q0 -13 -9 -22t-22 -9t-22 9t-9 22t9 22t22 9t22 -9t9 -22z" />
<glyph unicode="U" horiz-adv-x="492" d="M246 31q0 -13 -9 -22t-22 -9t-22 9t-9 22t9 22t22 9t22 -9t9 -22zM308 31q0 -13 -9 -22t-22 -9t-22 9t-9 22t9 22t22 9t22 -9t9 -22zM370 31q0 -13 -9 -22t-22 -9t-22 9t-9 22t9 22t22 9t22 -9t9 -22zM184 31q0 -13 -9 -22t-22 -9t-22 9t-9 22t9 22t22 9t22 -9t9 -22z M122 155q0 -13 -9 -22t-22 -9t-22 9t-9 22t9 22t22 9t22 -9t9 -22zM122 217q0 -13 -9 -22t-22 -9t-22 9t-9 22t9 22t22 9t22 -9t9 -22zM122 279q0 -13 -9 -22t-22 -9t-22 9t-9 22t9 22t22 9t22 -9t9 -22zM122 341q0 -13 -9 -22t-22 -9t-22 9t-9 22t9 22t22 9t22 -9t9 -22z M122 403q0 -13 -9 -22t-22 -9t-22 9t-9 22t9 22t22 9t22 -9t9 -22zM122 465q0 -13 -9 -22t-22 -9t-22 9t-9 22t9 22t22 9t22 -9t9 -22zM122 527q0 -13 -9 -22t-22 -9t-22 9t-9 22t9 22t22 9t22 -9t9 -22zM122 93q0 -13 -9 -22t-22 -9t-22 9t-9 22t9 22t22 9t22 -9t9 -22z M432 465q0 -13 -9 -22t-22 -9t-22 9t-9 22t9 22t22 9t22 -9t9 -22zM432 527q0 -13 -9 -22t-22 -9t-22 9t-9 22t9 22t22 9t22 -9t9 -22zM432 93q0 -13 -9 -22t-22 -9t-22 9t-9 22t9 22t22 9t22 -9t9 -22zM432 155q0 -13 -9 -22t-22 -9t-22 9t-9 22t9 22t22 9t22 -9t9 -22z M432 217q0 -13 -9 -22t-22 -9t-22 9t-9 22t9 22t22 9t22 -9t9 -22zM432 279q0 -13 -9 -22t-22 -9t-22 9t-9 22t9 22t22 9t22 -9t9 -22zM432 341q0 -13 -9 -22t-22 -9t-22 9t-9 22t9 22t22 9t22 -9t9 -22zM432 403q0 -13 -9 -22t-22 -9t-22 9t-9 22t9 22t22 9t22 -9t9 -22z M122 589q0 -13 -9 -22t-22 -9t-22 9t-9 22t9 22t22 9t22 -9t9 -22zM432 589q0 -13 -9 -22t-22 -9t-22 9t-9 22t9 22t22 9t22 -9t9 -22z" />
<glyph unicode="V" horiz-adv-x="452" d="M288 31q0 -13 -9 -22t-22 -9t-22 9t-9 22t9 22t22 9t22 -9t9 -22zM350 93q0 -13 -9 -22t-22 -9t-22 9t-9 22t9 22t22 9t22 -9t9 -22zM350 155q0 -13 -9 -22t-22 -9t-22 9t-9 22t9 22t22 9t22 -9t9 -22zM350 217q0 -13 -9 -22t-22 -9t-22 9t-9 22t9 22t22 9t22 -9t9 -22z M350 279q0 -13 -9 -22t-22 -9t-22 9t-9 22t9 22t22 9t22 -9t9 -22zM412 341q0 -13 -9 -22t-22 -9t-22 9t-9 22t9 22t22 9t22 -9t9 -22zM412 403q0 -13 -9 -22t-22 -9t-22 9t-9 22t9 22t22 9t22 -9t9 -22zM412 465q0 -13 -9 -22t-22 -9t-22 9t-9 22t9 22t22 9t22 -9t9 -22z M412 527q0 -13 -9 -22t-22 -9t-22 9t-9 22t9 22t22 9t22 -9t9 -22zM412 589q0 -13 -9 -22t-22 -9t-22 9t-9 22t9 22t22 9t22 -9t9 -22zM164 31q0 13 9 22t22 9t22 -9t9 -22t-9 -22t-22 -9t-22 9t-9 22zM102 93q0 13 9 22t22 9t22 -9t9 -22t-9 -22t-22 -9t-22 9t-9 22z M102 155q0 13 9 22t22 9t22 -9t9 -22t-9 -22t-22 -9t-22 9t-9 22zM102 217q0 13 9 22t22 9t22 -9t9 -22t-9 -22t-22 -9t-22 9t-9 22zM102 279q0 13 9 22t22 9t22 -9t9 -22t-9 -22t-22 -9t-22 9t-9 22zM40 341q0 13 9 22t22 9t22 -9t9 -22t-9 -22t-22 -9t-22 9t-9 22zM40 403 q0 13 9 22t22 9t22 -9t9 -22t-9 -22t-22 -9t-22 9t-9 22zM40 465q0 13 9 22t22 9t22 -9t9 -22t-9 -22t-22 -9t-22 9t-9 22zM40 527q0 13 9 22t22 9t22 -9t9 -22t-9 -22t-22 -9t-22 9t-9 22zM40 589q0 13 9 22t22 9t22 -9t9 -22t-9 -22t-22 -9t-22 9t-9 22z" />
<glyph unicode="W" horiz-adv-x="678" d="M308 93q0 -13 -9 -22t-22 -9t-22 9t-9 22t9 22t22 9t22 -9t9 -22zM370 93q0 13 9 22t22 9t22 -9t9 -22t-9 -22t-22 -9t-22 9t-9 22zM308 155q0 13 9 22t22 9t22 -9t9 -22t-9 -22t-22 -9t-22 9t-9 22zM122 155q0 -13 -9 -22t-22 -9t-22 9t-9 22t9 22t22 9t22 -9t9 -22z M122 217q0 -13 -9 -22t-22 -9t-22 9t-9 22t9 22t22 9t22 -9t9 -22zM122 279q0 -13 -9 -22t-22 -9t-22 9t-9 22t9 22t22 9t22 -9t9 -22zM122 341q0 -13 -9 -22t-22 -9t-22 9t-9 22t9 22t22 9t22 -9t9 -22zM122 403q0 -13 -9 -22t-22 -9t-22 9t-9 22t9 22t22 9t22 -9t9 -22z M122 465q0 -13 -9 -22t-22 -9t-22 9t-9 22t9 22t22 9t22 -9t9 -22zM122 527q0 -13 -9 -22t-22 -9t-22 9t-9 22t9 22t22 9t22 -9t9 -22zM122 589q0 -13 -9 -22t-22 -9t-22 9t-9 22t9 22t22 9t22 -9t9 -22zM122 93q0 -13 -9 -22t-22 -9t-22 9t-9 22t9 22t22 9t22 -9t9 -22z M184 31q0 -13 -9 -22t-22 -9t-22 9t-9 22t9 22t22 9t22 -9t9 -22zM246 31q0 -13 -9 -22t-22 -9t-22 9t-9 22t9 22t22 9t22 -9t9 -22zM556 155q0 13 9 22t22 9t22 -9t9 -22t-9 -22t-22 -9t-22 9t-9 22zM556 217q0 13 9 22t22 9t22 -9t9 -22t-9 -22t-22 -9t-22 9t-9 22z M556 279q0 13 9 22t22 9t22 -9t9 -22t-9 -22t-22 -9t-22 9t-9 22zM556 341q0 13 9 22t22 9t22 -9t9 -22t-9 -22t-22 -9t-22 9t-9 22zM556 403q0 13 9 22t22 9t22 -9t9 -22t-9 -22t-22 -9t-22 9t-9 22zM556 465q0 13 9 22t22 9t22 -9t9 -22t-9 -22t-22 -9t-22 9t-9 22z M556 527q0 13 9 22t22 9t22 -9t9 -22t-9 -22t-22 -9t-22 9t-9 22zM556 589q0 13 9 22t22 9t22 -9t9 -22t-9 -22t-22 -9t-22 9t-9 22zM556 93q0 13 9 22t22 9t22 -9t9 -22t-9 -22t-22 -9t-22 9t-9 22zM494 31q0 13 9 22t22 9t22 -9t9 -22t-9 -22t-22 -9t-22 9t-9 22zM432 31 q0 13 9 22t22 9t22 -9t9 -22t-9 -22t-22 -9t-22 9t-9 22zM308 465q0 13 9 22t22 9t22 -9t9 -22t-9 -22t-22 -9t-22 9t-9 22zM308 527q0 13 9 22t22 9t22 -9t9 -22t-9 -22t-22 -9t-22 9t-9 22zM308 217q0 13 9 22t22 9t22 -9t9 -22t-9 -22t-22 -9t-22 9t-9 22zM308 279 q0 13 9 22t22 9t22 -9t9 -22t-9 -22t-22 -9t-22 9t-9 22zM308 341q0 13 9 22t22 9t22 -9t9 -22t-9 -22t-22 -9t-22 9t-9 22zM308 403q0 13 9 22t22 9t22 -9t9 -22t-9 -22t-22 -9t-22 9t-9 22z" />
<glyph unicode="X" d="M174 217q0 -13 -9 -22t-22 -9t-22 9t-9 22t9 22t22 9t22 -9t9 -22zM174 403q0 -13 -9 -22t-22 -9t-22 9t-9 22t9 22t22 9t22 -9t9 -22zM236 279q0 -13 -9 -22t-22 -9t-22 9t-9 22t9 22t22 9t22 -9t9 -22zM236 341q0 -13 -9 -22t-22 -9t-22 9t-9 22t9 22t22 9t22 -9t9 -22 zM298 279q0 -13 -9 -22t-22 -9t-22 9t-9 22t9 22t22 9t22 -9t9 -22zM298 341q0 -13 -9 -22t-22 -9t-22 9t-9 22t9 22t22 9t22 -9t9 -22zM360 217q0 -13 -9 -22t-22 -9t-22 9t-9 22t9 22t22 9t22 -9t9 -22zM360 403q0 -13 -9 -22t-22 -9t-22 9t-9 22t9 22t22 9t22 -9t9 -22z M112 31q0 -13 -9 -22t-22 -9t-22 9t-9 22t9 22t22 9t22 -9t9 -22zM112 155q0 -13 -9 -22t-22 -9t-22 9t-9 22t9 22t22 9t22 -9t9 -22zM112 465q0 -13 -9 -22t-22 -9t-22 9t-9 22t9 22t22 9t22 -9t9 -22zM112 527q0 -13 -9 -22t-22 -9t-22 9t-9 22t9 22t22 9t22 -9t9 -22z M112 589q0 -13 -9 -22t-22 -9t-22 9t-9 22t9 22t22 9t22 -9t9 -22zM112 93q0 -13 -9 -22t-22 -9t-22 9t-9 22t9 22t22 9t22 -9t9 -22zM422 31q0 -13 -9 -22t-22 -9t-22 9t-9 22t9 22t22 9t22 -9t9 -22zM422 465q0 -13 -9 -22t-22 -9t-22 9t-9 22t9 22t22 9t22 -9t9 -22z M422 527q0 -13 -9 -22t-22 -9t-22 9t-9 22t9 22t22 9t22 -9t9 -22zM422 589q0 -13 -9 -22t-22 -9t-22 9t-9 22t9 22t22 9t22 -9t9 -22zM422 93q0 -13 -9 -22t-22 -9t-22 9t-9 22t9 22t22 9t22 -9t9 -22zM422 155q0 -13 -9 -22t-22 -9t-22 9t-9 22t9 22t22 9t22 -9t9 -22z " />
<glyph unicode="Y" horiz-adv-x="474" d="M82 527q0 -13 -9 -22t-22 -9t-22 9t-9 22t9 22t22 9t22 -9t9 -22zM82 589q0 -13 -9 -22t-22 -9t-22 9t-9 22t9 22t22 9t22 -9t9 -22zM144 465q0 -13 -9 -22t-22 -9t-22 9t-9 22t9 22t22 9t22 -9t9 -22zM268 31q0 -13 -9 -22t-22 -9t-22 9t-9 22t9 22t22 9t22 -9t9 -22z M268 93q0 -13 -9 -22t-22 -9t-22 9t-9 22t9 22t22 9t22 -9t9 -22zM392 465q0 -13 -9 -22t-22 -9t-22 9t-9 22t9 22t22 9t22 -9t9 -22zM454 527q0 -13 -9 -22t-22 -9t-22 9t-9 22t9 22t22 9t22 -9t9 -22zM454 589q0 -13 -9 -22t-22 -9t-22 9t-9 22t9 22t22 9t22 -9t9 -22z M206 403q0 -13 -9 -22t-22 -9t-22 9t-9 22t9 22t22 9t22 -9t9 -22zM268 155q0 -13 -9 -22t-22 -9t-22 9t-9 22t9 22t22 9t22 -9t9 -22zM268 217q0 -13 -9 -22t-22 -9t-22 9t-9 22t9 22t22 9t22 -9t9 -22zM268 279q0 -13 -9 -22t-22 -9t-22 9t-9 22t9 22t22 9t22 -9t9 -22z M268 341q0 -13 -9 -22t-22 -9t-22 9t-9 22t9 22t22 9t22 -9t9 -22zM330 403q0 -13 -9 -22t-22 -9t-22 9t-9 22t9 22t22 9t22 -9t9 -22z" />
<glyph unicode="Z" horiz-adv-x="432" d="M154 31q0 -13 -9 -22t-22 -9t-22 9t-9 22t9 22t22 9t22 -9t9 -22zM216 31q0 -13 -9 -22t-22 -9t-22 9t-9 22t9 22t22 9t22 -9t9 -22zM278 31q0 -13 -9 -22t-22 -9t-22 9t-9 22t9 22t22 9t22 -9t9 -22zM92 31q0 -13 -9 -22t-22 -9t-22 9t-9 22t9 22t22 9t22 -9t9 -22z M154 589q0 -13 -9 -22t-22 -9t-22 9t-9 22t9 22t22 9t22 -9t9 -22zM216 589q0 -13 -9 -22t-22 -9t-22 9t-9 22t9 22t22 9t22 -9t9 -22zM278 589q0 -13 -9 -22t-22 -9t-22 9t-9 22t9 22t22 9t22 -9t9 -22zM92 589q0 -13 -9 -22t-22 -9t-22 9t-9 22t9 22t22 9t22 -9t9 -22z M92 93q0 -13 -9 -22t-22 -9t-22 9t-9 22t9 22t22 9t22 -9t9 -22zM340 31q0 -13 -9 -22t-22 -9t-22 9t-9 22t9 22t22 9t22 -9t9 -22zM340 465q0 -13 -9 -22t-22 -9t-22 9t-9 22t9 22t22 9t22 -9t9 -22zM340 589q0 -13 -9 -22t-22 -9t-22 9t-9 22t9 22t22 9t22 -9t9 -22z M402 31q0 -13 -9 -22t-22 -9t-22 9t-9 22t9 22t22 9t22 -9t9 -22zM402 527q0 -13 -9 -22t-22 -9t-22 9t-9 22t9 22t22 9t22 -9t9 -22zM402 589q0 -13 -9 -22t-22 -9t-22 9t-9 22t9 22t22 9t22 -9t9 -22zM154 155q0 -13 -9 -22t-22 -9t-22 9t-9 22t9 22t22 9t22 -9t9 -22z M154 217q0 -13 -9 -22t-22 -9t-22 9t-9 22t9 22t22 9t22 -9t9 -22zM216 279q0 -13 -9 -22t-22 -9t-22 9t-9 22t9 22t22 9t22 -9t9 -22zM278 341q0 -13 -9 -22t-22 -9t-22 9t-9 22t9 22t22 9t22 -9t9 -22zM340 403q0 -13 -9 -22t-22 -9t-22 9t-9 22t9 22t22 9t22 -9t9 -22z " />
<glyph unicode="[" horiz-adv-x="204" d="M102 31q0 -13 -9 -22t-22 -9t-22 9t-9 22t9 22t22 9t22 -9t9 -22zM102 465q0 -13 -9 -22t-22 -9t-22 9t-9 22t9 22t22 9t22 -9t9 -22zM102 527q0 -13 -9 -22t-22 -9t-22 9t-9 22t9 22t22 9t22 -9t9 -22zM102 589q0 -13 -9 -22t-22 -9t-22 9t-9 22t9 22t22 9t22 -9t9 -22z M102 93q0 -13 -9 -22t-22 -9t-22 9t-9 22t9 22t22 9t22 -9t9 -22zM102 155q0 -13 -9 -22t-22 -9t-22 9t-9 22t9 22t22 9t22 -9t9 -22zM102 217q0 -13 -9 -22t-22 -9t-22 9t-9 22t9 22t22 9t22 -9t9 -22zM102 279q0 -13 -9 -22t-22 -9t-22 9t-9 22t9 22t22 9t22 -9t9 -22z M102 341q0 -13 -9 -22t-22 -9t-22 9t-9 22t9 22t22 9t22 -9t9 -22zM102 403q0 -13 -9 -22t-22 -9t-22 9t-9 22t9 22t22 9t22 -9t9 -22zM164 31q0 -13 -9 -22t-22 -9t-22 9t-9 22t9 22t22 9t22 -9t9 -22zM164 589q0 -13 -9 -22t-22 -9t-22 9t-9 22t9 22t22 9t22 -9t9 -22z " />
<glyph unicode="\" horiz-adv-x="248" d="M186 31q0 13 9 22t22 9t22 -9t9 -22t-9 -22t-22 -9t-22 9t-9 22zM186 93q0 13 9 22t22 9t22 -9t9 -22t-9 -22t-22 -9t-22 9t-9 22zM124 155q0 13 9 22t22 9t22 -9t9 -22t-9 -22t-22 -9t-22 9t-9 22zM124 217q0 13 9 22t22 9t22 -9t9 -22t-9 -22t-22 -9t-22 9t-9 22z M124 279q0 13 9 22t22 9t22 -9t9 -22t-9 -22t-22 -9t-22 9t-9 22zM62 341q0 13 9 22t22 9t22 -9t9 -22t-9 -22t-22 -9t-22 9t-9 22zM62 403q0 13 9 22t22 9t22 -9t9 -22t-9 -22t-22 -9t-22 9t-9 22zM62 465q0 13 9 22t22 9t22 -9t9 -22t-9 -22t-22 -9t-22 9t-9 22zM0 527 q0 13 9 22t22 9t22 -9t9 -22t-9 -22t-22 -9t-22 9t-9 22zM0 589q0 13 9 22t22 9t22 -9t9 -22t-9 -22t-22 -9t-22 9t-9 22z" />
<glyph unicode="]" horiz-adv-x="204" d="M164 31q0 -13 -9 -22t-22 -9t-22 9t-9 22t9 22t22 9t22 -9t9 -22zM164 465q0 -13 -9 -22t-22 -9t-22 9t-9 22t9 22t22 9t22 -9t9 -22zM164 527q0 -13 -9 -22t-22 -9t-22 9t-9 22t9 22t22 9t22 -9t9 -22zM164 589q0 -13 -9 -22t-22 -9t-22 9t-9 22t9 22t22 9t22 -9t9 -22z M164 93q0 -13 -9 -22t-22 -9t-22 9t-9 22t9 22t22 9t22 -9t9 -22zM164 155q0 -13 -9 -22t-22 -9t-22 9t-9 22t9 22t22 9t22 -9t9 -22zM164 217q0 -13 -9 -22t-22 -9t-22 9t-9 22t9 22t22 9t22 -9t9 -22zM164 279q0 -13 -9 -22t-22 -9t-22 9t-9 22t9 22t22 9t22 -9t9 -22z M164 341q0 -13 -9 -22t-22 -9t-22 9t-9 22t9 22t22 9t22 -9t9 -22zM164 403q0 -13 -9 -22t-22 -9t-22 9t-9 22t9 22t22 9t22 -9t9 -22zM40 31q0 13 9 22t22 9t22 -9t9 -22t-9 -22t-22 -9t-22 9t-9 22zM40 589q0 13 9 22t22 9t22 -9t9 -22t-9 -22t-22 -9t-22 9t-9 22z" />
<glyph unicode="^" horiz-adv-x="266" d="M102 527q0 -13 -9 -22t-22 -9t-22 9t-9 22t9 22t22 9t22 -9t9 -22zM164 527q0 13 9 22t22 9t22 -9t9 -22t-9 -22t-22 -9t-22 9t-9 22zM102 589q0 13 9 22t22 9t22 -9t9 -22t-9 -22t-22 -9t-22 9t-9 22z" />
<glyph unicode="_" horiz-adv-x="248" d="M124 -31q0 -13 -9 -22t-22 -9t-22 9t-9 22t9 22t22 9t22 -9t9 -22zM186 -31q0 -13 -9 -22t-22 -9t-22 9t-9 22t9 22t22 9t22 -9t9 -22zM248 -31q0 -13 -9 -22t-22 -9t-22 9t-9 22t9 22t22 9t22 -9t9 -22zM62 -31q0 -13 -9 -22t-22 -9t-22 9t-9 22t9 22t22 9t22 -9t9 -22z " />
<glyph unicode="`" horiz-adv-x="175" d="M104 579q0 -17 -12.5 -29.5t-29.5 -12.5t-29.5 12.5t-12.5 29.5t12.5 29t29.5 12t29.5 -12t12.5 -29zM62 502q0 13 9 22t22 9t22 -9t9 -22t-9 -22t-22 -9t-22 9t-9 22zM97 448q0 7 5.5 12.5t13.5 5.5t13.5 -5.5t5.5 -12.5q0 -8 -5.5 -13.5t-13.5 -5.5t-13.5 5.5 t-5.5 13.5z" />
<glyph unicode="a" d="M236 403q0 -13 -9 -22t-22 -9t-22 9t-9 22t9 22t22 9t22 -9t9 -22zM298 403q0 -13 -9 -22t-22 -9t-22 9t-9 22t9 22t22 9t22 -9t9 -22zM360 403q0 -13 -9 -22t-22 -9t-22 9t-9 22t9 22t22 9t22 -9t9 -22zM174 403q0 -13 -9 -22t-22 -9t-22 9t-9 22t9 22t22 9t22 -9t9 -22 zM298 31q0 -13 -9 -22t-22 -9t-22 9t-9 22t9 22t22 9t22 -9t9 -22zM360 31q0 13 9 22t22 9t22 -9t9 -22t-9 -22t-22 -9t-22 9t-9 22zM298 93q0 13 9 22t22 9t22 -9t9 -22t-9 -22t-22 -9t-22 9t-9 22zM112 155q0 -13 -9 -22t-22 -9t-22 9t-9 22t9 22t22 9t22 -9t9 -22z M112 217q0 -13 -9 -22t-22 -9t-22 9t-9 22t9 22t22 9t22 -9t9 -22zM112 279q0 -13 -9 -22t-22 -9t-22 9t-9 22t9 22t22 9t22 -9t9 -22zM112 341q0 -13 -9 -22t-22 -9t-22 9t-9 22t9 22t22 9t22 -9t9 -22zM112 93q0 -13 -9 -22t-22 -9t-22 9t-9 22t9 22t22 9t22 -9t9 -22z M174 31q0 -13 -9 -22t-22 -9t-22 9t-9 22t9 22t22 9t22 -9t9 -22zM236 31q0 -13 -9 -22t-22 -9t-22 9t-9 22t9 22t22 9t22 -9t9 -22zM422 93q0 -13 -9 -22t-22 -9t-22 9t-9 22t9 22t22 9t22 -9t9 -22zM422 155q0 -13 -9 -22t-22 -9t-22 9t-9 22t9 22t22 9t22 -9t9 -22z M422 217q0 -13 -9 -22t-22 -9t-22 9t-9 22t9 22t22 9t22 -9t9 -22zM422 279q0 -13 -9 -22t-22 -9t-22 9t-9 22t9 22t22 9t22 -9t9 -22zM422 341q0 -13 -9 -22t-22 -9t-22 9t-9 22t9 22t22 9t22 -9t9 -22z" />
<glyph unicode="b" d="M236 31q0 -13 -9 -22t-22 -9t-22 9t-9 22t9 22t22 9t22 -9t9 -22zM298 31q0 -13 -9 -22t-22 -9t-22 9t-9 22t9 22t22 9t22 -9t9 -22zM360 31q0 -13 -9 -22t-22 -9t-22 9t-9 22t9 22t22 9t22 -9t9 -22zM174 31q0 -13 -9 -22t-22 -9t-22 9t-9 22t9 22t22 9t22 -9t9 -22z M112 155q0 -13 -9 -22t-22 -9t-22 9t-9 22t9 22t22 9t22 -9t9 -22zM112 217q0 -13 -9 -22t-22 -9t-22 9t-9 22t9 22t22 9t22 -9t9 -22zM112 279q0 -13 -9 -22t-22 -9t-22 9t-9 22t9 22t22 9t22 -9t9 -22zM112 341q0 -13 -9 -22t-22 -9t-22 9t-9 22t9 22t22 9t22 -9t9 -22z M112 403q0 -13 -9 -22t-22 -9t-22 9t-9 22t9 22t22 9t22 -9t9 -22zM112 465q0 -13 -9 -22t-22 -9t-22 9t-9 22t9 22t22 9t22 -9t9 -22zM112 527q0 -13 -9 -22t-22 -9t-22 9t-9 22t9 22t22 9t22 -9t9 -22zM112 589q0 -13 -9 -22t-22 -9t-22 9t-9 22t9 22t22 9t22 -9t9 -22z M112 93q0 -13 -9 -22t-22 -9t-22 9t-9 22t9 22t22 9t22 -9t9 -22zM422 93q0 -13 -9 -22t-22 -9t-22 9t-9 22t9 22t22 9t22 -9t9 -22zM174 341q0 -13 -9 -22t-22 -9t-22 9t-9 22t9 22t22 9t22 -9t9 -22zM236 403q0 -13 -9 -22t-22 -9t-22 9t-9 22t9 22t22 9t22 -9t9 -22z M298 403q0 -13 -9 -22t-22 -9t-22 9t-9 22t9 22t22 9t22 -9t9 -22zM360 403q0 -13 -9 -22t-22 -9t-22 9t-9 22t9 22t22 9t22 -9t9 -22zM422 155q0 -13 -9 -22t-22 -9t-22 9t-9 22t9 22t22 9t22 -9t9 -22zM422 217q0 -13 -9 -22t-22 -9t-22 9t-9 22t9 22t22 9t22 -9t9 -22z M422 279q0 -13 -9 -22t-22 -9t-22 9t-9 22t9 22t22 9t22 -9t9 -22zM422 341q0 -13 -9 -22t-22 -9t-22 9t-9 22t9 22t22 9t22 -9t9 -22z" />
<glyph unicode="c" horiz-adv-x="442" d="M236 31q0 -13 -9 -22t-22 -9t-22 9t-9 22t9 22t22 9t22 -9t9 -22zM298 31q0 -13 -9 -22t-22 -9t-22 9t-9 22t9 22t22 9t22 -9t9 -22zM360 31q0 -13 -9 -22t-22 -9t-22 9t-9 22t9 22t22 9t22 -9t9 -22zM174 31q0 -13 -9 -22t-22 -9t-22 9t-9 22t9 22t22 9t22 -9t9 -22z M236 403q0 -13 -9 -22t-22 -9t-22 9t-9 22t9 22t22 9t22 -9t9 -22zM298 403q0 -13 -9 -22t-22 -9t-22 9t-9 22t9 22t22 9t22 -9t9 -22zM360 403q0 -13 -9 -22t-22 -9t-22 9t-9 22t9 22t22 9t22 -9t9 -22zM174 403q0 -13 -9 -22t-22 -9t-22 9t-9 22t9 22t22 9t22 -9t9 -22z M112 155q0 -13 -9 -22t-22 -9t-22 9t-9 22t9 22t22 9t22 -9t9 -22zM112 217q0 -13 -9 -22t-22 -9t-22 9t-9 22t9 22t22 9t22 -9t9 -22zM112 279q0 -13 -9 -22t-22 -9t-22 9t-9 22t9 22t22 9t22 -9t9 -22zM112 341q0 -13 -9 -22t-22 -9t-22 9t-9 22t9 22t22 9t22 -9t9 -22z M112 93q0 -13 -9 -22t-22 -9t-22 9t-9 22t9 22t22 9t22 -9t9 -22zM422 31q0 -13 -9 -22t-22 -9t-22 9t-9 22t9 22t22 9t22 -9t9 -22zM422 341q0 -13 -9 -22t-22 -9t-22 9t-9 22t9 22t22 9t22 -9t9 -22z" />
<glyph unicode="d" d="M236 31q0 -13 -9 -22t-22 -9t-22 9t-9 22t9 22t22 9t22 -9t9 -22zM298 31q0 -13 -9 -22t-22 -9t-22 9t-9 22t9 22t22 9t22 -9t9 -22zM360 31q0 -13 -9 -22t-22 -9t-22 9t-9 22t9 22t22 9t22 -9t9 -22zM174 31q0 -13 -9 -22t-22 -9t-22 9t-9 22t9 22t22 9t22 -9t9 -22z M360 155q0 13 9 22t22 9t22 -9t9 -22t-9 -22t-22 -9t-22 9t-9 22zM360 217q0 13 9 22t22 9t22 -9t9 -22t-9 -22t-22 -9t-22 9t-9 22zM360 279q0 13 9 22t22 9t22 -9t9 -22t-9 -22t-22 -9t-22 9t-9 22zM360 341q0 13 9 22t22 9t22 -9t9 -22t-9 -22t-22 -9t-22 9t-9 22z M360 403q0 13 9 22t22 9t22 -9t9 -22t-9 -22t-22 -9t-22 9t-9 22zM360 465q0 13 9 22t22 9t22 -9t9 -22t-9 -22t-22 -9t-22 9t-9 22zM360 527q0 13 9 22t22 9t22 -9t9 -22t-9 -22t-22 -9t-22 9t-9 22zM360 589q0 13 9 22t22 9t22 -9t9 -22t-9 -22t-22 -9t-22 9t-9 22z M360 93q0 13 9 22t22 9t22 -9t9 -22t-9 -22t-22 -9t-22 9t-9 22zM50 93q0 13 9 22t22 9t22 -9t9 -22t-9 -22t-22 -9t-22 9t-9 22zM298 341q0 13 9 22t22 9t22 -9t9 -22t-9 -22t-22 -9t-22 9t-9 22zM236 403q0 13 9 22t22 9t22 -9t9 -22t-9 -22t-22 -9t-22 9t-9 22zM174 403 q0 13 9 22t22 9t22 -9t9 -22t-9 -22t-22 -9t-22 9t-9 22zM112 403q0 13 9 22t22 9t22 -9t9 -22t-9 -22t-22 -9t-22 9t-9 22zM50 155q0 13 9 22t22 9t22 -9t9 -22t-9 -22t-22 -9t-22 9t-9 22zM50 217q0 13 9 22t22 9t22 -9t9 -22t-9 -22t-22 -9t-22 9t-9 22zM50 279 q0 13 9 22t22 9t22 -9t9 -22t-9 -22t-22 -9t-22 9t-9 22zM50 341q0 13 9 22t22 9t22 -9t9 -22t-9 -22t-22 -9t-22 9t-9 22z" />
<glyph unicode="e" horiz-adv-x="462" d="M236 31q0 -13 -9 -22t-22 -9t-22 9t-9 22t9 22t22 9t22 -9t9 -22zM298 31q0 -13 -9 -22t-22 -9t-22 9t-9 22t9 22t22 9t22 -9t9 -22zM360 31q0 -13 -9 -22t-22 -9t-22 9t-9 22t9 22t22 9t22 -9t9 -22zM174 31q0 -13 -9 -22t-22 -9t-22 9t-9 22t9 22t22 9t22 -9t9 -22z M236 403q0 -13 -9 -22t-22 -9t-22 9t-9 22t9 22t22 9t22 -9t9 -22zM298 403q0 -13 -9 -22t-22 -9t-22 9t-9 22t9 22t22 9t22 -9t9 -22zM360 403q0 -13 -9 -22t-22 -9t-22 9t-9 22t9 22t22 9t22 -9t9 -22zM174 403q0 -13 -9 -22t-22 -9t-22 9t-9 22t9 22t22 9t22 -9t9 -22z M298 217q0 -13 -9 -22t-22 -9t-22 9t-9 22t9 22t22 9t22 -9t9 -22zM360 217q0 -13 -9 -22t-22 -9t-22 9t-9 22t9 22t22 9t22 -9t9 -22zM422 217q0 -13 -9 -22t-22 -9t-22 9t-9 22t9 22t22 9t22 -9t9 -22zM236 217q0 -13 -9 -22t-22 -9t-22 9t-9 22t9 22t22 9t22 -9t9 -22z M112 155q0 -13 -9 -22t-22 -9t-22 9t-9 22t9 22t22 9t22 -9t9 -22zM112 217q0 -13 -9 -22t-22 -9t-22 9t-9 22t9 22t22 9t22 -9t9 -22zM112 279q0 -13 -9 -22t-22 -9t-22 9t-9 22t9 22t22 9t22 -9t9 -22zM112 341q0 -13 -9 -22t-22 -9t-22 9t-9 22t9 22t22 9t22 -9t9 -22z M112 93q0 -13 -9 -22t-22 -9t-22 9t-9 22t9 22t22 9t22 -9t9 -22zM422 279q0 -13 -9 -22t-22 -9t-22 9t-9 22t9 22t22 9t22 -9t9 -22zM422 341q0 -13 -9 -22t-22 -9t-22 9t-9 22t9 22t22 9t22 -9t9 -22zM112 279q0 13 9 22t22 9t22 -9t9 -22t-9 -22t-22 -9t-22 9t-9 22z" />
<glyph unicode="f" horiz-adv-x="350" d="M144 403q0 -13 -9 -22t-22 -9t-22 9t-9 22t9 22t22 9t22 -9t9 -22zM206 341q0 -13 -9 -22t-22 -9t-22 9t-9 22t9 22t22 9t22 -9t9 -22zM206 403q0 -13 -9 -22t-22 -9t-22 9t-9 22t9 22t22 9t22 -9t9 -22zM206 465q0 -13 -9 -22t-22 -9t-22 9t-9 22t9 22t22 9t22 -9t9 -22 zM206 527q0 -13 -9 -22t-22 -9t-22 9t-9 22t9 22t22 9t22 -9t9 -22zM268 403q0 -13 -9 -22t-22 -9t-22 9t-9 22t9 22t22 9t22 -9t9 -22zM330 403q0 -13 -9 -22t-22 -9t-22 9t-9 22t9 22t22 9t22 -9t9 -22zM82 403q0 -13 -9 -22t-22 -9t-22 9t-9 22t9 22t22 9t22 -9t9 -22z M206 279q0 -13 -9 -22t-22 -9t-22 9t-9 22t9 22t22 9t22 -9t9 -22zM206 31q0 -13 -9 -22t-22 -9t-22 9t-9 22t9 22t22 9t22 -9t9 -22zM206 93q0 -13 -9 -22t-22 -9t-22 9t-9 22t9 22t22 9t22 -9t9 -22zM268 589q0 -13 -9 -22t-22 -9t-22 9t-9 22t9 22t22 9t22 -9t9 -22z M330 589q0 -13 -9 -22t-22 -9t-22 9t-9 22t9 22t22 9t22 -9t9 -22zM82 -93q0 -13 -9 -22t-22 -9t-22 9t-9 22t9 22t22 9t22 -9t9 -22zM144 -93q0 -13 -9 -22t-22 -9t-22 9t-9 22t9 22t22 9t22 -9t9 -22zM206 -31q0 -13 -9 -22t-22 -9t-22 9t-9 22t9 22t22 9t22 -9t9 -22z M206 155q0 -13 -9 -22t-22 -9t-22 9t-9 22t9 22t22 9t22 -9t9 -22zM206 217q0 -13 -9 -22t-22 -9t-22 9t-9 22t9 22t22 9t22 -9t9 -22z" />
<glyph unicode="g" horiz-adv-x="452" d="M226 -155q0 -13 -9 -22t-22 -9t-22 9t-9 22t9 22t22 9t22 -9t9 -22zM288 -155q0 -13 -9 -22t-22 -9t-22 9t-9 22t9 22t22 9t22 -9t9 -22zM350 -155q0 -13 -9 -22t-22 -9t-22 9t-9 22t9 22t22 9t22 -9t9 -22zM164 -155q0 -13 -9 -22t-22 -9t-22 9t-9 22t9 22t22 9t22 -9 t9 -22zM226 155q0 -13 -9 -22t-22 -9t-22 9t-9 22t9 22t22 9t22 -9t9 -22zM288 155q0 -13 -9 -22t-22 -9t-22 9t-9 22t9 22t22 9t22 -9t9 -22zM350 155q0 -13 -9 -22t-22 -9t-22 9t-9 22t9 22t22 9t22 -9t9 -22zM164 155q0 -13 -9 -22t-22 -9t-22 9t-9 22t9 22t22 9t22 -9 t9 -22zM226 31q0 -13 -9 -22t-22 -9t-22 9t-9 22t9 22t22 9t22 -9t9 -22zM288 31q0 -13 -9 -22t-22 -9t-22 9t-9 22t9 22t22 9t22 -9t9 -22zM350 31q0 -13 -9 -22t-22 -9t-22 9t-9 22t9 22t22 9t22 -9t9 -22zM164 31q0 -13 -9 -22t-22 -9t-22 9t-9 22t9 22t22 9t22 -9t9 -22 zM102 -31q0 -13 -9 -22t-22 -9t-22 9t-9 22t9 22t22 9t22 -9t9 -22zM102 93q0 -13 -9 -22t-22 -9t-22 9t-9 22t9 22t22 9t22 -9t9 -22zM102 217q0 -13 -9 -22t-22 -9t-22 9t-9 22t9 22t22 9t22 -9t9 -22zM102 279q0 -13 -9 -22t-22 -9t-22 9t-9 22t9 22t22 9t22 -9t9 -22z M102 341q0 -13 -9 -22t-22 -9t-22 9t-9 22t9 22t22 9t22 -9t9 -22zM102 -93q0 -13 -9 -22t-22 -9t-22 9t-9 22t9 22t22 9t22 -9t9 -22zM164 403q0 -13 -9 -22t-22 -9t-22 9t-9 22t9 22t22 9t22 -9t9 -22zM226 403q0 -13 -9 -22t-22 -9t-22 9t-9 22t9 22t22 9t22 -9t9 -22z M288 403q0 -13 -9 -22t-22 -9t-22 9t-9 22t9 22t22 9t22 -9t9 -22zM350 341q0 -13 -9 -22t-22 -9t-22 9t-9 22t9 22t22 9t22 -9t9 -22zM412 279q0 -13 -9 -22t-22 -9t-22 9t-9 22t9 22t22 9t22 -9t9 -22zM412 403q0 -13 -9 -22t-22 -9t-22 9t-9 22t9 22t22 9t22 -9t9 -22z M412 -93q0 -13 -9 -22t-22 -9t-22 9t-9 22t9 22t22 9t22 -9t9 -22zM412 -31q0 -13 -9 -22t-22 -9t-22 9t-9 22t9 22t22 9t22 -9t9 -22zM412 217q0 -13 -9 -22t-22 -9t-22 9t-9 22t9 22t22 9t22 -9t9 -22z" />
<glyph unicode="h" d="M112 31q0 -13 -9 -22t-22 -9t-22 9t-9 22t9 22t22 9t22 -9t9 -22zM112 465q0 -13 -9 -22t-22 -9t-22 9t-9 22t9 22t22 9t22 -9t9 -22zM112 527q0 -13 -9 -22t-22 -9t-22 9t-9 22t9 22t22 9t22 -9t9 -22zM112 589q0 -13 -9 -22t-22 -9t-22 9t-9 22t9 22t22 9t22 -9t9 -22z M112 93q0 -13 -9 -22t-22 -9t-22 9t-9 22t9 22t22 9t22 -9t9 -22zM112 155q0 -13 -9 -22t-22 -9t-22 9t-9 22t9 22t22 9t22 -9t9 -22zM112 217q0 -13 -9 -22t-22 -9t-22 9t-9 22t9 22t22 9t22 -9t9 -22zM112 279q0 -13 -9 -22t-22 -9t-22 9t-9 22t9 22t22 9t22 -9t9 -22z M112 341q0 -13 -9 -22t-22 -9t-22 9t-9 22t9 22t22 9t22 -9t9 -22zM112 403q0 -13 -9 -22t-22 -9t-22 9t-9 22t9 22t22 9t22 -9t9 -22zM422 93q0 -13 -9 -22t-22 -9t-22 9t-9 22t9 22t22 9t22 -9t9 -22zM174 341q0 -13 -9 -22t-22 -9t-22 9t-9 22t9 22t22 9t22 -9t9 -22z M236 403q0 -13 -9 -22t-22 -9t-22 9t-9 22t9 22t22 9t22 -9t9 -22zM298 403q0 -13 -9 -22t-22 -9t-22 9t-9 22t9 22t22 9t22 -9t9 -22zM360 403q0 -13 -9 -22t-22 -9t-22 9t-9 22t9 22t22 9t22 -9t9 -22zM422 155q0 -13 -9 -22t-22 -9t-22 9t-9 22t9 22t22 9t22 -9t9 -22z M422 217q0 -13 -9 -22t-22 -9t-22 9t-9 22t9 22t22 9t22 -9t9 -22zM422 279q0 -13 -9 -22t-22 -9t-22 9t-9 22t9 22t22 9t22 -9t9 -22zM422 341q0 -13 -9 -22t-22 -9t-22 9t-9 22t9 22t22 9t22 -9t9 -22zM422 31q0 -13 -9 -22t-22 -9t-22 9t-9 22t9 22t22 9t22 -9t9 -22z " />
<glyph unicode="i" horiz-adv-x="184" d="M134 552q0 -17 -12.5 -29.5t-29.5 -12.5t-29.5 12.5t-12.5 29.5t12.5 29t29.5 12t29.5 -12t12.5 -29zM123 155q0 -13 -9 -22t-22 -9t-22 9t-9 22t9 22t22 9t22 -9t9 -22zM123 217q0 -13 -9 -22t-22 -9t-22 9t-9 22t9 22t22 9t22 -9t9 -22zM123 279q0 -13 -9 -22t-22 -9 t-22 9t-9 22t9 22t22 9t22 -9t9 -22zM123 341q0 -13 -9 -22t-22 -9t-22 9t-9 22t9 22t22 9t22 -9t9 -22zM123 403q0 -13 -9 -22t-22 -9t-22 9t-9 22t9 22t22 9t22 -9t9 -22zM123 93q0 -13 -9 -22t-22 -9t-22 9t-9 22t9 22t22 9t22 -9t9 -22zM123 31q0 -13 -9 -22t-22 -9 t-22 9t-9 22t9 22t22 9t22 -9t9 -22z" />
<glyph unicode="j" horiz-adv-x="195" d="M134 155q0 -13 -9 -22t-22 -9t-22 9t-9 22t9 22t22 9t22 -9t9 -22zM134 217q0 -13 -9 -22t-22 -9t-22 9t-9 22t9 22t22 9t22 -9t9 -22zM134 279q0 -13 -9 -22t-22 -9t-22 9t-9 22t9 22t22 9t22 -9t9 -22zM134 341q0 -13 -9 -22t-22 -9t-22 9t-9 22t9 22t22 9t22 -9t9 -22 zM134 403q0 -13 -9 -22t-22 -9t-22 9t-9 22t9 22t22 9t22 -9t9 -22zM134 93q0 -13 -9 -22t-22 -9t-22 9t-9 22t9 22t22 9t22 -9t9 -22zM134 31q0 -13 -9 -22t-22 -9t-22 9t-9 22t9 22t22 9t22 -9t9 -22zM145 552q0 -17 -12.5 -29.5t-29.5 -12.5t-29.5 12.5t-12.5 29.5 t12.5 29t29.5 12t29.5 -12t12.5 -29zM134 -31q0 -13 -9 -22t-22 -9t-22 9t-9 22t9 22t22 9t22 -9t9 -22zM72 -93q0 -13 -9 -22t-22 -9t-22 9t-9 22t9 22t22 9t22 -9t9 -22z" />
<glyph unicode="k" horiz-adv-x="442" d="M112 31q0 -13 -9 -22t-22 -9t-22 9t-9 22t9 22t22 9t22 -9t9 -22zM112 465q0 -13 -9 -22t-22 -9t-22 9t-9 22t9 22t22 9t22 -9t9 -22zM112 527q0 -13 -9 -22t-22 -9t-22 9t-9 22t9 22t22 9t22 -9t9 -22zM112 589q0 -13 -9 -22t-22 -9t-22 9t-9 22t9 22t22 9t22 -9t9 -22z M112 93q0 -13 -9 -22t-22 -9t-22 9t-9 22t9 22t22 9t22 -9t9 -22zM112 155q0 -13 -9 -22t-22 -9t-22 9t-9 22t9 22t22 9t22 -9t9 -22zM112 217q0 -13 -9 -22t-22 -9t-22 9t-9 22t9 22t22 9t22 -9t9 -22zM112 279q0 -13 -9 -22t-22 -9t-22 9t-9 22t9 22t22 9t22 -9t9 -22z M112 341q0 -13 -9 -22t-22 -9t-22 9t-9 22t9 22t22 9t22 -9t9 -22zM112 403q0 -13 -9 -22t-22 -9t-22 9t-9 22t9 22t22 9t22 -9t9 -22zM422 31q0 -13 -9 -22t-22 -9t-22 9t-9 22t9 22t22 9t22 -9t9 -22zM422 403q0 -13 -9 -22t-22 -9t-22 9t-9 22t9 22t22 9t22 -9t9 -22z M298 155q0 -13 -9 -22t-22 -9t-22 9t-9 22t9 22t22 9t22 -9t9 -22zM298 279q0 -13 -9 -22t-22 -9t-22 9t-9 22t9 22t22 9t22 -9t9 -22zM360 341q0 -13 -9 -22t-22 -9t-22 9t-9 22t9 22t22 9t22 -9t9 -22zM360 93q0 -13 -9 -22t-22 -9t-22 9t-9 22t9 22t22 9t22 -9t9 -22z M236 217q0 -13 -9 -22t-22 -9t-22 9t-9 22t9 22t22 9t22 -9t9 -22zM174 155q0 -13 -9 -22t-22 -9t-22 9t-9 22t9 22t22 9t22 -9t9 -22z" />
<glyph unicode="l" horiz-adv-x="162" d="M112 31q0 -13 -9 -22t-22 -9t-22 9t-9 22t9 22t22 9t22 -9t9 -22zM112 465q0 -13 -9 -22t-22 -9t-22 9t-9 22t9 22t22 9t22 -9t9 -22zM112 527q0 -13 -9 -22t-22 -9t-22 9t-9 22t9 22t22 9t22 -9t9 -22zM112 589q0 -13 -9 -22t-22 -9t-22 9t-9 22t9 22t22 9t22 -9t9 -22z M112 93q0 -13 -9 -22t-22 -9t-22 9t-9 22t9 22t22 9t22 -9t9 -22zM112 155q0 -13 -9 -22t-22 -9t-22 9t-9 22t9 22t22 9t22 -9t9 -22zM112 217q0 -13 -9 -22t-22 -9t-22 9t-9 22t9 22t22 9t22 -9t9 -22zM112 403q0 -13 -9 -22t-22 -9t-22 9t-9 22t9 22t22 9t22 -9t9 -22z M112 279q0 -13 -9 -22t-22 -9t-22 9t-9 22t9 22t22 9t22 -9t9 -22zM112 341q0 -13 -9 -22t-22 -9t-22 9t-9 22t9 22t22 9t22 -9t9 -22z" />
<glyph unicode="m" horiz-adv-x="658" d="M112 155q0 -13 -9 -22t-22 -9t-22 9t-9 22t9 22t22 9t22 -9t9 -22zM112 217q0 -13 -9 -22t-22 -9t-22 9t-9 22t9 22t22 9t22 -9t9 -22zM112 279q0 -13 -9 -22t-22 -9t-22 9t-9 22t9 22t22 9t22 -9t9 -22zM112 341q0 -13 -9 -22t-22 -9t-22 9t-9 22t9 22t22 9t22 -9t9 -22 zM112 403q0 -13 -9 -22t-22 -9t-22 9t-9 22t9 22t22 9t22 -9t9 -22zM112 93q0 -13 -9 -22t-22 -9t-22 9t-9 22t9 22t22 9t22 -9t9 -22zM174 341q0 -13 -9 -22t-22 -9t-22 9t-9 22t9 22t22 9t22 -9t9 -22zM236 403q0 -13 -9 -22t-22 -9t-22 9t-9 22t9 22t22 9t22 -9t9 -22z M298 403q0 -13 -9 -22t-22 -9t-22 9t-9 22t9 22t22 9t22 -9t9 -22zM360 341q0 -13 -9 -22t-22 -9t-22 9t-9 22t9 22t22 9t22 -9t9 -22zM112 31q0 -13 -9 -22t-22 -9t-22 9t-9 22t9 22t22 9t22 -9t9 -22zM360 93q0 -13 -9 -22t-22 -9t-22 9t-9 22t9 22t22 9t22 -9t9 -22z M360 155q0 -13 -9 -22t-22 -9t-22 9t-9 22t9 22t22 9t22 -9t9 -22zM360 217q0 -13 -9 -22t-22 -9t-22 9t-9 22t9 22t22 9t22 -9t9 -22zM360 279q0 -13 -9 -22t-22 -9t-22 9t-9 22t9 22t22 9t22 -9t9 -22zM360 31q0 -13 -9 -22t-22 -9t-22 9t-9 22t9 22t22 9t22 -9t9 -22z M608 93q0 -13 -9 -22t-22 -9t-22 9t-9 22t9 22t22 9t22 -9t9 -22zM422 341q0 -13 -9 -22t-22 -9t-22 9t-9 22t9 22t22 9t22 -9t9 -22zM484 403q0 -13 -9 -22t-22 -9t-22 9t-9 22t9 22t22 9t22 -9t9 -22zM546 403q0 -13 -9 -22t-22 -9t-22 9t-9 22t9 22t22 9t22 -9t9 -22z M608 155q0 -13 -9 -22t-22 -9t-22 9t-9 22t9 22t22 9t22 -9t9 -22zM608 217q0 -13 -9 -22t-22 -9t-22 9t-9 22t9 22t22 9t22 -9t9 -22zM608 279q0 -13 -9 -22t-22 -9t-22 9t-9 22t9 22t22 9t22 -9t9 -22zM608 341q0 -13 -9 -22t-22 -9t-22 9t-9 22t9 22t22 9t22 -9t9 -22z M608 31q0 -13 -9 -22t-22 -9t-22 9t-9 22t9 22t22 9t22 -9t9 -22z" />
<glyph unicode="n" d="M112 155q0 -13 -9 -22t-22 -9t-22 9t-9 22t9 22t22 9t22 -9t9 -22zM112 217q0 -13 -9 -22t-22 -9t-22 9t-9 22t9 22t22 9t22 -9t9 -22zM112 279q0 -13 -9 -22t-22 -9t-22 9t-9 22t9 22t22 9t22 -9t9 -22zM112 341q0 -13 -9 -22t-22 -9t-22 9t-9 22t9 22t22 9t22 -9t9 -22 zM112 403q0 -13 -9 -22t-22 -9t-22 9t-9 22t9 22t22 9t22 -9t9 -22zM112 93q0 -13 -9 -22t-22 -9t-22 9t-9 22t9 22t22 9t22 -9t9 -22zM422 93q0 -13 -9 -22t-22 -9t-22 9t-9 22t9 22t22 9t22 -9t9 -22zM174 341q0 -13 -9 -22t-22 -9t-22 9t-9 22t9 22t22 9t22 -9t9 -22z M236 403q0 -13 -9 -22t-22 -9t-22 9t-9 22t9 22t22 9t22 -9t9 -22zM298 403q0 -13 -9 -22t-22 -9t-22 9t-9 22t9 22t22 9t22 -9t9 -22zM360 403q0 -13 -9 -22t-22 -9t-22 9t-9 22t9 22t22 9t22 -9t9 -22zM422 155q0 -13 -9 -22t-22 -9t-22 9t-9 22t9 22t22 9t22 -9t9 -22z M422 217q0 -13 -9 -22t-22 -9t-22 9t-9 22t9 22t22 9t22 -9t9 -22zM422 279q0 -13 -9 -22t-22 -9t-22 9t-9 22t9 22t22 9t22 -9t9 -22zM422 341q0 -13 -9 -22t-22 -9t-22 9t-9 22t9 22t22 9t22 -9t9 -22zM112 31q0 -13 -9 -22t-22 -9t-22 9t-9 22t9 22t22 9t22 -9t9 -22z M422 31q0 -13 -9 -22t-22 -9t-22 9t-9 22t9 22t22 9t22 -9t9 -22z" />
<glyph unicode="o" d="M236 31q0 -13 -9 -22t-22 -9t-22 9t-9 22t9 22t22 9t22 -9t9 -22zM298 31q0 -13 -9 -22t-22 -9t-22 9t-9 22t9 22t22 9t22 -9t9 -22zM360 31q0 -13 -9 -22t-22 -9t-22 9t-9 22t9 22t22 9t22 -9t9 -22zM174 31q0 -13 -9 -22t-22 -9t-22 9t-9 22t9 22t22 9t22 -9t9 -22z M236 403q0 -13 -9 -22t-22 -9t-22 9t-9 22t9 22t22 9t22 -9t9 -22zM298 403q0 -13 -9 -22t-22 -9t-22 9t-9 22t9 22t22 9t22 -9t9 -22zM360 403q0 -13 -9 -22t-22 -9t-22 9t-9 22t9 22t22 9t22 -9t9 -22zM174 403q0 -13 -9 -22t-22 -9t-22 9t-9 22t9 22t22 9t22 -9t9 -22z M112 155q0 -13 -9 -22t-22 -9t-22 9t-9 22t9 22t22 9t22 -9t9 -22zM112 217q0 -13 -9 -22t-22 -9t-22 9t-9 22t9 22t22 9t22 -9t9 -22zM112 279q0 -13 -9 -22t-22 -9t-22 9t-9 22t9 22t22 9t22 -9t9 -22zM112 341q0 -13 -9 -22t-22 -9t-22 9t-9 22t9 22t22 9t22 -9t9 -22z M112 93q0 -13 -9 -22t-22 -9t-22 9t-9 22t9 22t22 9t22 -9t9 -22zM422 93q0 -13 -9 -22t-22 -9t-22 9t-9 22t9 22t22 9t22 -9t9 -22zM422 155q0 -13 -9 -22t-22 -9t-22 9t-9 22t9 22t22 9t22 -9t9 -22zM422 217q0 -13 -9 -22t-22 -9t-22 9t-9 22t9 22t22 9t22 -9t9 -22z M422 279q0 -13 -9 -22t-22 -9t-22 9t-9 22t9 22t22 9t22 -9t9 -22zM422 341q0 -13 -9 -22t-22 -9t-22 9t-9 22t9 22t22 9t22 -9t9 -22z" />
<glyph unicode="p" d="M236 403q0 -13 -9 -22t-22 -9t-22 9t-9 22t9 22t22 9t22 -9t9 -22zM298 403q0 -13 -9 -22t-22 -9t-22 9t-9 22t9 22t22 9t22 -9t9 -22zM360 403q0 -13 -9 -22t-22 -9t-22 9t-9 22t9 22t22 9t22 -9t9 -22zM174 403q0 -13 -9 -22t-22 -9t-22 9t-9 22t9 22t22 9t22 -9t9 -22 zM112 31q0 -13 -9 -22t-22 -9t-22 9t-9 22t9 22t22 9t22 -9t9 -22zM174 31q0 13 9 22t22 9t22 -9t9 -22t-9 -22t-22 -9t-22 9t-9 22zM112 93q0 13 9 22t22 9t22 -9t9 -22t-9 -22t-22 -9t-22 9t-9 22zM112 279q0 -13 -9 -22t-22 -9t-22 9t-9 22t9 22t22 9t22 -9t9 -22z M112 217q0 -13 -9 -22t-22 -9t-22 9t-9 22t9 22t22 9t22 -9t9 -22zM112 155q0 -13 -9 -22t-22 -9t-22 9t-9 22t9 22t22 9t22 -9t9 -22zM112 93q0 -13 -9 -22t-22 -9t-22 9t-9 22t9 22t22 9t22 -9t9 -22zM112 -31q0 -13 -9 -22t-22 -9t-22 9t-9 22t9 22t22 9t22 -9t9 -22z M112 -93q0 -13 -9 -22t-22 -9t-22 9t-9 22t9 22t22 9t22 -9t9 -22zM112 -155q0 -13 -9 -22t-22 -9t-22 9t-9 22t9 22t22 9t22 -9t9 -22zM112 341q0 -13 -9 -22t-22 -9t-22 9t-9 22t9 22t22 9t22 -9t9 -22zM422 341q0 -13 -9 -22t-22 -9t-22 9t-9 22t9 22t22 9t22 -9t9 -22z M298 31q0 -13 -9 -22t-22 -9t-22 9t-9 22t9 22t22 9t22 -9t9 -22zM360 31q0 -13 -9 -22t-22 -9t-22 9t-9 22t9 22t22 9t22 -9t9 -22zM422 279q0 -13 -9 -22t-22 -9t-22 9t-9 22t9 22t22 9t22 -9t9 -22zM422 217q0 -13 -9 -22t-22 -9t-22 9t-9 22t9 22t22 9t22 -9t9 -22z M422 155q0 -13 -9 -22t-22 -9t-22 9t-9 22t9 22t22 9t22 -9t9 -22zM422 93q0 -13 -9 -22t-22 -9t-22 9t-9 22t9 22t22 9t22 -9t9 -22z" />
<glyph unicode="q" d="M112 155q0 -13 -9 -22t-22 -9t-22 9t-9 22t9 22t22 9t22 -9t9 -22zM112 217q0 -13 -9 -22t-22 -9t-22 9t-9 22t9 22t22 9t22 -9t9 -22zM112 279q0 -13 -9 -22t-22 -9t-22 9t-9 22t9 22t22 9t22 -9t9 -22zM112 341q0 -13 -9 -22t-22 -9t-22 9t-9 22t9 22t22 9t22 -9t9 -22 zM112 93q0 -13 -9 -22t-22 -9t-22 9t-9 22t9 22t22 9t22 -9t9 -22zM174 31q0 -13 -9 -22t-22 -9t-22 9t-9 22t9 22t22 9t22 -9t9 -22zM236 31q0 -13 -9 -22t-22 -9t-22 9t-9 22t9 22t22 9t22 -9t9 -22zM422 93q0 -13 -9 -22t-22 -9t-22 9t-9 22t9 22t22 9t22 -9t9 -22z M422 155q0 -13 -9 -22t-22 -9t-22 9t-9 22t9 22t22 9t22 -9t9 -22zM422 217q0 -13 -9 -22t-22 -9t-22 9t-9 22t9 22t22 9t22 -9t9 -22zM422 279q0 -13 -9 -22t-22 -9t-22 9t-9 22t9 22t22 9t22 -9t9 -22zM422 341q0 -13 -9 -22t-22 -9t-22 9t-9 22t9 22t22 9t22 -9t9 -22z M298 31q0 -13 -9 -22t-22 -9t-22 9t-9 22t9 22t22 9t22 -9t9 -22zM360 31q0 13 9 22t22 9t22 -9t9 -22t-9 -22t-22 -9t-22 9t-9 22zM298 93q0 13 9 22t22 9t22 -9t9 -22t-9 -22t-22 -9t-22 9t-9 22zM236 403q0 -13 -9 -22t-22 -9t-22 9t-9 22t9 22t22 9t22 -9t9 -22z M298 403q0 -13 -9 -22t-22 -9t-22 9t-9 22t9 22t22 9t22 -9t9 -22zM360 403q0 -13 -9 -22t-22 -9t-22 9t-9 22t9 22t22 9t22 -9t9 -22zM174 403q0 -13 -9 -22t-22 -9t-22 9t-9 22t9 22t22 9t22 -9t9 -22zM360 -31q0 13 9 22t22 9t22 -9t9 -22t-9 -22t-22 -9t-22 9t-9 22z M360 -93q0 13 9 22t22 9t22 -9t9 -22t-9 -22t-22 -9t-22 9t-9 22zM360 -155q0 13 9 22t22 9t22 -9t9 -22t-9 -22t-22 -9t-22 9t-9 22z" />
<glyph unicode="r" horiz-adv-x="370" d="M112 155q0 -13 -9 -22t-22 -9t-22 9t-9 22t9 22t22 9t22 -9t9 -22zM112 217q0 -13 -9 -22t-22 -9t-22 9t-9 22t9 22t22 9t22 -9t9 -22zM112 279q0 -13 -9 -22t-22 -9t-22 9t-9 22t9 22t22 9t22 -9t9 -22zM112 341q0 -13 -9 -22t-22 -9t-22 9t-9 22t9 22t22 9t22 -9t9 -22 zM112 403q0 -13 -9 -22t-22 -9t-22 9t-9 22t9 22t22 9t22 -9t9 -22zM112 93q0 -13 -9 -22t-22 -9t-22 9t-9 22t9 22t22 9t22 -9t9 -22zM174 341q0 -13 -9 -22t-22 -9t-22 9t-9 22t9 22t22 9t22 -9t9 -22zM236 403q0 -13 -9 -22t-22 -9t-22 9t-9 22t9 22t22 9t22 -9t9 -22z M298 403q0 -13 -9 -22t-22 -9t-22 9t-9 22t9 22t22 9t22 -9t9 -22zM360 341q0 -13 -9 -22t-22 -9t-22 9t-9 22t9 22t22 9t22 -9t9 -22zM112 31q0 -13 -9 -22t-22 -9t-22 9t-9 22t9 22t22 9t22 -9t9 -22z" />
<glyph unicode="s" horiz-adv-x="452" d="M226 31q0 -13 -9 -22t-22 -9t-22 9t-9 22t9 22t22 9t22 -9t9 -22zM288 31q0 -13 -9 -22t-22 -9t-22 9t-9 22t9 22t22 9t22 -9t9 -22zM350 31q0 -13 -9 -22t-22 -9t-22 9t-9 22t9 22t22 9t22 -9t9 -22zM164 31q0 -13 -9 -22t-22 -9t-22 9t-9 22t9 22t22 9t22 -9t9 -22z M226 217q0 -13 -9 -22t-22 -9t-22 9t-9 22t9 22t22 9t22 -9t9 -22zM288 217q0 -13 -9 -22t-22 -9t-22 9t-9 22t9 22t22 9t22 -9t9 -22zM350 217q0 -13 -9 -22t-22 -9t-22 9t-9 22t9 22t22 9t22 -9t9 -22zM164 217q0 -13 -9 -22t-22 -9t-22 9t-9 22t9 22t22 9t22 -9t9 -22z M226 403q0 -13 -9 -22t-22 -9t-22 9t-9 22t9 22t22 9t22 -9t9 -22zM288 403q0 -13 -9 -22t-22 -9t-22 9t-9 22t9 22t22 9t22 -9t9 -22zM350 403q0 -13 -9 -22t-22 -9t-22 9t-9 22t9 22t22 9t22 -9t9 -22zM164 403q0 -13 -9 -22t-22 -9t-22 9t-9 22t9 22t22 9t22 -9t9 -22z M102 279q0 -13 -9 -22t-22 -9t-22 9t-9 22t9 22t22 9t22 -9t9 -22zM102 341q0 -13 -9 -22t-22 -9t-22 9t-9 22t9 22t22 9t22 -9t9 -22zM102 93q0 -13 -9 -22t-22 -9t-22 9t-9 22t9 22t22 9t22 -9t9 -22zM412 93q0 -13 -9 -22t-22 -9t-22 9t-9 22t9 22t22 9t22 -9t9 -22z M412 155q0 -13 -9 -22t-22 -9t-22 9t-9 22t9 22t22 9t22 -9t9 -22zM412 341q0 -13 -9 -22t-22 -9t-22 9t-9 22t9 22t22 9t22 -9t9 -22z" />
<glyph unicode="t" horiz-adv-x="402" d="M144 403q0 -13 -9 -22t-22 -9t-22 9t-9 22t9 22t22 9t22 -9t9 -22zM206 403q0 -13 -9 -22t-22 -9t-22 9t-9 22t9 22t22 9t22 -9t9 -22zM268 403q0 -13 -9 -22t-22 -9t-22 9t-9 22t9 22t22 9t22 -9t9 -22zM82 403q0 -13 -9 -22t-22 -9t-22 9t-9 22t9 22t22 9t22 -9t9 -22z M144 465q0 -13 -9 -22t-22 -9t-22 9t-9 22t9 22t22 9t22 -9t9 -22zM144 527q0 -13 -9 -22t-22 -9t-22 9t-9 22t9 22t22 9t22 -9t9 -22zM144 589q0 -13 -9 -22t-22 -9t-22 9t-9 22t9 22t22 9t22 -9t9 -22zM144 93q0 -13 -9 -22t-22 -9t-22 9t-9 22t9 22t22 9t22 -9t9 -22z M206 31q0 -13 -9 -22t-22 -9t-22 9t-9 22t9 22t22 9t22 -9t9 -22zM268 31q0 -13 -9 -22t-22 -9t-22 9t-9 22t9 22t22 9t22 -9t9 -22zM330 31q0 -13 -9 -22t-22 -9t-22 9t-9 22t9 22t22 9t22 -9t9 -22zM392 93q0 -13 -9 -22t-22 -9t-22 9t-9 22t9 22t22 9t22 -9t9 -22z M144 155q0 -13 -9 -22t-22 -9t-22 9t-9 22t9 22t22 9t22 -9t9 -22zM144 217q0 -13 -9 -22t-22 -9t-22 9t-9 22t9 22t22 9t22 -9t9 -22zM144 279q0 -13 -9 -22t-22 -9t-22 9t-9 22t9 22t22 9t22 -9t9 -22zM144 341q0 -13 -9 -22t-22 -9t-22 9t-9 22t9 22t22 9t22 -9t9 -22z M330 403q0 -13 -9 -22t-22 -9t-22 9t-9 22t9 22t22 9t22 -9t9 -22z" />
<glyph unicode="u" d="M298 31q0 -13 -9 -22t-22 -9t-22 9t-9 22t9 22t22 9t22 -9t9 -22zM360 31q0 13 9 22t22 9t22 -9t9 -22t-9 -22t-22 -9t-22 9t-9 22zM298 93q0 13 9 22t22 9t22 -9t9 -22t-9 -22t-22 -9t-22 9t-9 22zM360 279q0 13 9 22t22 9t22 -9t9 -22t-9 -22t-22 -9t-22 9t-9 22z M360 217q0 13 9 22t22 9t22 -9t9 -22t-9 -22t-22 -9t-22 9t-9 22zM360 155q0 13 9 22t22 9t22 -9t9 -22t-9 -22t-22 -9t-22 9t-9 22zM360 93q0 13 9 22t22 9t22 -9t9 -22t-9 -22t-22 -9t-22 9t-9 22zM360 341q0 13 9 22t22 9t22 -9t9 -22t-9 -22t-22 -9t-22 9t-9 22zM50 341 q0 13 9 22t22 9t22 -9t9 -22t-9 -22t-22 -9t-22 9t-9 22zM174 31q0 13 9 22t22 9t22 -9t9 -22t-9 -22t-22 -9t-22 9t-9 22zM112 31q0 13 9 22t22 9t22 -9t9 -22t-9 -22t-22 -9t-22 9t-9 22zM50 279q0 13 9 22t22 9t22 -9t9 -22t-9 -22t-22 -9t-22 9t-9 22zM50 217q0 13 9 22 t22 9t22 -9t9 -22t-9 -22t-22 -9t-22 9t-9 22zM50 155q0 13 9 22t22 9t22 -9t9 -22t-9 -22t-22 -9t-22 9t-9 22zM50 93q0 13 9 22t22 9t22 -9t9 -22t-9 -22t-22 -9t-22 9t-9 22zM360 403q0 13 9 22t22 9t22 -9t9 -22t-9 -22t-22 -9t-22 9t-9 22zM50 403q0 13 9 22t22 9 t22 -9t9 -22t-9 -22t-22 -9t-22 9t-9 22z" />
<glyph unicode="v" horiz-adv-x="390" d="M102 341q0 -13 -9 -22t-22 -9t-22 9t-9 22t9 22t22 9t22 -9t9 -22zM102 403q0 -13 -9 -22t-22 -9t-22 9t-9 22t9 22t22 9t22 -9t9 -22zM226 31q0 -13 -9 -22t-22 -9t-22 9t-9 22t9 22t22 9t22 -9t9 -22zM226 93q0 -13 -9 -22t-22 -9t-22 9t-9 22t9 22t22 9t22 -9t9 -22z M164 155q0 -13 -9 -22t-22 -9t-22 9t-9 22t9 22t22 9t22 -9t9 -22zM164 217q0 -13 -9 -22t-22 -9t-22 9t-9 22t9 22t22 9t22 -9t9 -22zM164 279q0 -13 -9 -22t-22 -9t-22 9t-9 22t9 22t22 9t22 -9t9 -22zM288 155q0 -13 -9 -22t-22 -9t-22 9t-9 22t9 22t22 9t22 -9t9 -22z M288 217q0 -13 -9 -22t-22 -9t-22 9t-9 22t9 22t22 9t22 -9t9 -22zM288 279q0 -13 -9 -22t-22 -9t-22 9t-9 22t9 22t22 9t22 -9t9 -22zM350 341q0 -13 -9 -22t-22 -9t-22 9t-9 22t9 22t22 9t22 -9t9 -22zM350 403q0 -13 -9 -22t-22 -9t-22 9t-9 22t9 22t22 9t22 -9t9 -22z " />
<glyph unicode="w" horiz-adv-x="658" d="M298 31q0 -13 -9 -22t-22 -9t-22 9t-9 22t9 22t22 9t22 -9t9 -22zM360 31q0 13 9 22t22 9t22 -9t9 -22t-9 -22t-22 -9t-22 9t-9 22zM298 93q0 13 9 22t22 9t22 -9t9 -22t-9 -22t-22 -9t-22 9t-9 22zM112 155q0 -13 -9 -22t-22 -9t-22 9t-9 22t9 22t22 9t22 -9t9 -22z M112 217q0 -13 -9 -22t-22 -9t-22 9t-9 22t9 22t22 9t22 -9t9 -22zM112 279q0 -13 -9 -22t-22 -9t-22 9t-9 22t9 22t22 9t22 -9t9 -22zM112 341q0 -13 -9 -22t-22 -9t-22 9t-9 22t9 22t22 9t22 -9t9 -22zM112 403q0 -13 -9 -22t-22 -9t-22 9t-9 22t9 22t22 9t22 -9t9 -22z M112 93q0 -13 -9 -22t-22 -9t-22 9t-9 22t9 22t22 9t22 -9t9 -22zM174 31q0 -13 -9 -22t-22 -9t-22 9t-9 22t9 22t22 9t22 -9t9 -22zM236 31q0 -13 -9 -22t-22 -9t-22 9t-9 22t9 22t22 9t22 -9t9 -22zM360 155q0 -13 -9 -22t-22 -9t-22 9t-9 22t9 22t22 9t22 -9t9 -22z M360 217q0 -13 -9 -22t-22 -9t-22 9t-9 22t9 22t22 9t22 -9t9 -22zM360 279q0 -13 -9 -22t-22 -9t-22 9t-9 22t9 22t22 9t22 -9t9 -22zM360 341q0 -13 -9 -22t-22 -9t-22 9t-9 22t9 22t22 9t22 -9t9 -22zM360 403q0 -13 -9 -22t-22 -9t-22 9t-9 22t9 22t22 9t22 -9t9 -22z M484 31q0 -13 -9 -22t-22 -9t-22 9t-9 22t9 22t22 9t22 -9t9 -22zM546 31q0 -13 -9 -22t-22 -9t-22 9t-9 22t9 22t22 9t22 -9t9 -22zM608 93q0 -13 -9 -22t-22 -9t-22 9t-9 22t9 22t22 9t22 -9t9 -22zM608 155q0 -13 -9 -22t-22 -9t-22 9t-9 22t9 22t22 9t22 -9t9 -22z M608 217q0 -13 -9 -22t-22 -9t-22 9t-9 22t9 22t22 9t22 -9t9 -22zM608 279q0 -13 -9 -22t-22 -9t-22 9t-9 22t9 22t22 9t22 -9t9 -22zM608 341q0 -13 -9 -22t-22 -9t-22 9t-9 22t9 22t22 9t22 -9t9 -22zM608 403q0 -13 -9 -22t-22 -9t-22 9t-9 22t9 22t22 9t22 -9t9 -22z " />
<glyph unicode="x" horiz-adv-x="390" d="M288 155q0 -13 -9 -22t-22 -9t-22 9t-9 22t9 22t22 9t22 -9t9 -22zM288 279q0 -13 -9 -22t-22 -9t-22 9t-9 22t9 22t22 9t22 -9t9 -22zM350 341q0 -13 -9 -22t-22 -9t-22 9t-9 22t9 22t22 9t22 -9t9 -22zM350 93q0 -13 -9 -22t-22 -9t-22 9t-9 22t9 22t22 9t22 -9t9 -22z M226 217q0 -13 -9 -22t-22 -9t-22 9t-9 22t9 22t22 9t22 -9t9 -22zM102 31q0 -13 -9 -22t-22 -9t-22 9t-9 22t9 22t22 9t22 -9t9 -22zM102 341q0 -13 -9 -22t-22 -9t-22 9t-9 22t9 22t22 9t22 -9t9 -22zM102 403q0 -13 -9 -22t-22 -9t-22 9t-9 22t9 22t22 9t22 -9t9 -22z M102 93q0 -13 -9 -22t-22 -9t-22 9t-9 22t9 22t22 9t22 -9t9 -22zM350 31q0 -13 -9 -22t-22 -9t-22 9t-9 22t9 22t22 9t22 -9t9 -22zM164 155q0 -13 -9 -22t-22 -9t-22 9t-9 22t9 22t22 9t22 -9t9 -22zM164 279q0 -13 -9 -22t-22 -9t-22 9t-9 22t9 22t22 9t22 -9t9 -22z M350 403q0 -13 -9 -22t-22 -9t-22 9t-9 22t9 22t22 9t22 -9t9 -22z" />
<glyph unicode="y" d="M236 -155q0 -13 -9 -22t-22 -9t-22 9t-9 22t9 22t22 9t22 -9t9 -22zM298 -155q0 -13 -9 -22t-22 -9t-22 9t-9 22t9 22t22 9t22 -9t9 -22zM360 -155q0 -13 -9 -22t-22 -9t-22 9t-9 22t9 22t22 9t22 -9t9 -22zM174 -155q0 -13 -9 -22t-22 -9t-22 9t-9 22t9 22t22 9t22 -9 t9 -22zM360 279q0 13 9 22t22 9t22 -9t9 -22t-9 -22t-22 -9t-22 9t-9 22zM360 217q0 13 9 22t22 9t22 -9t9 -22t-9 -22t-22 -9t-22 9t-9 22zM360 155q0 13 9 22t22 9t22 -9t9 -22t-9 -22t-22 -9t-22 9t-9 22zM360 93q0 13 9 22t22 9t22 -9t9 -22t-9 -22t-22 -9t-22 9t-9 22z M360 341q0 13 9 22t22 9t22 -9t9 -22t-9 -22t-22 -9t-22 9t-9 22zM50 341q0 13 9 22t22 9t22 -9t9 -22t-9 -22t-22 -9t-22 9t-9 22zM174 31q0 13 9 22t22 9t22 -9t9 -22t-9 -22t-22 -9t-22 9t-9 22zM112 31q0 13 9 22t22 9t22 -9t9 -22t-9 -22t-22 -9t-22 9t-9 22zM50 279 q0 13 9 22t22 9t22 -9t9 -22t-9 -22t-22 -9t-22 9t-9 22zM50 217q0 13 9 22t22 9t22 -9t9 -22t-9 -22t-22 -9t-22 9t-9 22zM50 155q0 13 9 22t22 9t22 -9t9 -22t-9 -22t-22 -9t-22 9t-9 22zM50 93q0 13 9 22t22 9t22 -9t9 -22t-9 -22t-22 -9t-22 9t-9 22zM360 403q0 13 9 22 t22 9t22 -9t9 -22t-9 -22t-22 -9t-22 9t-9 22zM50 403q0 13 9 22t22 9t22 -9t9 -22t-9 -22t-22 -9t-22 9t-9 22zM298 31q0 -13 -9 -22t-22 -9t-22 9t-9 22t9 22t22 9t22 -9t9 -22zM360 31q0 13 9 22t22 9t22 -9t9 -22t-9 -22t-22 -9t-22 9t-9 22zM298 93q0 13 9 22t22 9 t22 -9t9 -22t-9 -22t-22 -9t-22 9t-9 22zM112 -93q0 -13 -9 -22t-22 -9t-22 9t-9 22t9 22t22 9t22 -9t9 -22zM422 -93q0 -13 -9 -22t-22 -9t-22 9t-9 22t9 22t22 9t22 -9t9 -22zM422 -31q0 -13 -9 -22t-22 -9t-22 9t-9 22t9 22t22 9t22 -9t9 -22z" />
<glyph unicode="z" horiz-adv-x="452" d="M164 31q0 -13 -9 -22t-22 -9t-22 9t-9 22t9 22t22 9t22 -9t9 -22zM226 31q0 -13 -9 -22t-22 -9t-22 9t-9 22t9 22t22 9t22 -9t9 -22zM288 31q0 -13 -9 -22t-22 -9t-22 9t-9 22t9 22t22 9t22 -9t9 -22zM102 31q0 -13 -9 -22t-22 -9t-22 9t-9 22t9 22t22 9t22 -9t9 -22z M164 403q0 -13 -9 -22t-22 -9t-22 9t-9 22t9 22t22 9t22 -9t9 -22zM226 403q0 -13 -9 -22t-22 -9t-22 9t-9 22t9 22t22 9t22 -9t9 -22zM288 403q0 -13 -9 -22t-22 -9t-22 9t-9 22t9 22t22 9t22 -9t9 -22zM102 403q0 -13 -9 -22t-22 -9t-22 9t-9 22t9 22t22 9t22 -9t9 -22z M102 93q0 -13 -9 -22t-22 -9t-22 9t-9 22t9 22t22 9t22 -9t9 -22zM350 31q0 -13 -9 -22t-22 -9t-22 9t-9 22t9 22t22 9t22 -9t9 -22zM412 31q0 -13 -9 -22t-22 -9t-22 9t-9 22t9 22t22 9t22 -9t9 -22zM164 155q0 -13 -9 -22t-22 -9t-22 9t-9 22t9 22t22 9t22 -9t9 -22z M226 217q0 -13 -9 -22t-22 -9t-22 9t-9 22t9 22t22 9t22 -9t9 -22zM288 217q0 -13 -9 -22t-22 -9t-22 9t-9 22t9 22t22 9t22 -9t9 -22zM350 279q0 -13 -9 -22t-22 -9t-22 9t-9 22t9 22t22 9t22 -9t9 -22zM350 403q0 -13 -9 -22t-22 -9t-22 9t-9 22t9 22t22 9t22 -9t9 -22z M412 341q0 -13 -9 -22t-22 -9t-22 9t-9 22t9 22t22 9t22 -9t9 -22zM412 403q0 -13 -9 -22t-22 -9t-22 9t-9 22t9 22t22 9t22 -9t9 -22z" />
<glyph unicode="{" horiz-adv-x="266" d="M164 31q0 -13 -9 -22t-22 -9t-22 9t-9 22t9 22t22 9t22 -9t9 -22zM164 155q0 -13 -9 -22t-22 -9t-22 9t-9 22t9 22t22 9t22 -9t9 -22zM164 217q0 -13 -9 -22t-22 -9t-22 9t-9 22t9 22t22 9t22 -9t9 -22zM164 341q0 -13 -9 -22t-22 -9t-22 9t-9 22t9 22t22 9t22 -9t9 -22z M164 403q0 -13 -9 -22t-22 -9t-22 9t-9 22t9 22t22 9t22 -9t9 -22zM164 465q0 -13 -9 -22t-22 -9t-22 9t-9 22t9 22t22 9t22 -9t9 -22zM164 93q0 -13 -9 -22t-22 -9t-22 9t-9 22t9 22t22 9t22 -9t9 -22zM226 -31q0 -13 -9 -22t-22 -9t-22 9t-9 22t9 22t22 9t22 -9t9 -22z M102 279q0 -13 -9 -22t-22 -9t-22 9t-9 22t9 22t22 9t22 -9t9 -22zM164 527q0 -13 -9 -22t-22 -9t-22 9t-9 22t9 22t22 9t22 -9t9 -22zM226 589q0 -13 -9 -22t-22 -9t-22 9t-9 22t9 22t22 9t22 -9t9 -22z" />
<glyph unicode="|" horiz-adv-x="183" d="M123 31q0 -13 -9 -22t-22 -9t-22 9t-9 22t9 22t22 9t22 -9t9 -22zM123 465q0 -13 -9 -22t-22 -9t-22 9t-9 22t9 22t22 9t22 -9t9 -22zM123 527q0 -13 -9 -22t-22 -9t-22 9t-9 22t9 22t22 9t22 -9t9 -22zM123 589q0 -13 -9 -22t-22 -9t-22 9t-9 22t9 22t22 9t22 -9t9 -22z M123 93q0 -13 -9 -22t-22 -9t-22 9t-9 22t9 22t22 9t22 -9t9 -22zM123 155q0 -13 -9 -22t-22 -9t-22 9t-9 22t9 22t22 9t22 -9t9 -22zM123 217q0 -13 -9 -22t-22 -9t-22 9t-9 22t9 22t22 9t22 -9t9 -22zM123 279q0 -13 -9 -22t-22 -9t-22 9t-9 22t9 22t22 9t22 -9t9 -22z M123 341q0 -13 -9 -22t-22 -9t-22 9t-9 22t9 22t22 9t22 -9t9 -22zM123 403q0 -13 -9 -22t-22 -9t-22 9t-9 22t9 22t22 9t22 -9t9 -22zM122 651q0 -13 -9 -22t-22 -9t-22 9t-9 22t9 22t22 9t22 -9t9 -22zM123 -31q0 -13 -9 -22t-22 -9t-22 9t-9 22t9 22t22 9t22 -9t9 -22z " />
<glyph unicode="}" horiz-adv-x="266" d="M102 31q0 13 9 22t22 9t22 -9t9 -22t-9 -22t-22 -9t-22 9t-9 22zM102 155q0 13 9 22t22 9t22 -9t9 -22t-9 -22t-22 -9t-22 9t-9 22zM102 217q0 13 9 22t22 9t22 -9t9 -22t-9 -22t-22 -9t-22 9t-9 22zM102 341q0 13 9 22t22 9t22 -9t9 -22t-9 -22t-22 -9t-22 9t-9 22z M102 403q0 13 9 22t22 9t22 -9t9 -22t-9 -22t-22 -9t-22 9t-9 22zM102 465q0 13 9 22t22 9t22 -9t9 -22t-9 -22t-22 -9t-22 9t-9 22zM102 93q0 13 9 22t22 9t22 -9t9 -22t-9 -22t-22 -9t-22 9t-9 22zM40 -31q0 13 9 22t22 9t22 -9t9 -22t-9 -22t-22 -9t-22 9t-9 22zM164 279 q0 13 9 22t22 9t22 -9t9 -22t-9 -22t-22 -9t-22 9t-9 22zM102 527q0 13 9 22t22 9t22 -9t9 -22t-9 -22t-22 -9t-22 9t-9 22zM40 589q0 13 9 22t22 9t22 -9t9 -22t-9 -22t-22 -9t-22 9t-9 22z" />
<glyph unicode="~" horiz-adv-x="452" d="M412 341q0 -13 -9 -22t-22 -9t-22 9t-9 22t9 22t22 9t22 -9t9 -22zM102 279q0 -13 -9 -22t-22 -9t-22 9t-9 22t9 22t22 9t22 -9t9 -22zM164 341q0 -13 -9 -22t-22 -9t-22 9t-9 22t9 22t22 9t22 -9t9 -22zM226 341q0 -13 -9 -22t-22 -9t-22 9t-9 22t9 22t22 9t22 -9t9 -22 zM288 279q0 -13 -9 -22t-22 -9t-22 9t-9 22t9 22t22 9t22 -9t9 -22zM350 279q0 -13 -9 -22t-22 -9t-22 9t-9 22t9 22t22 9t22 -9t9 -22z" />
<glyph unicode="&#xa0;" horiz-adv-x="554" d="M246 31q0 -13 -9 -22t-22 -9t-22 9t-9 22t9 22t22 9t22 -9t9 -22zM308 31q0 -13 -9 -22t-22 -9t-22 9t-9 22t9 22t22 9t22 -9t9 -22zM370 31q0 -13 -9 -22t-22 -9t-22 9t-9 22t9 22t22 9t22 -9t9 -22zM184 31q0 -13 -9 -22t-22 -9t-22 9t-9 22t9 22t22 9t22 -9t9 -22z M246 589q0 -13 -9 -22t-22 -9t-22 9t-9 22t9 22t22 9t22 -9t9 -22zM308 589q0 -13 -9 -22t-22 -9t-22 9t-9 22t9 22t22 9t22 -9t9 -22zM370 589q0 -13 -9 -22t-22 -9t-22 9t-9 22t9 22t22 9t22 -9t9 -22zM184 589q0 -13 -9 -22t-22 -9t-22 9t-9 22t9 22t22 9t22 -9t9 -22z M122 155q0 -13 -9 -22t-22 -9t-22 9t-9 22t9 22t22 9t22 -9t9 -22zM122 217q0 -13 -9 -22t-22 -9t-22 9t-9 22t9 22t22 9t22 -9t9 -22zM122 279q0 -13 -9 -22t-22 -9t-22 9t-9 22t9 22t22 9t22 -9t9 -22zM122 341q0 -13 -9 -22t-22 -9t-22 9t-9 22t9 22t22 9t22 -9t9 -22z M122 403q0 -13 -9 -22t-22 -9t-22 9t-9 22t9 22t22 9t22 -9t9 -22zM122 465q0 -13 -9 -22t-22 -9t-22 9t-9 22t9 22t22 9t22 -9t9 -22zM122 527q0 -13 -9 -22t-22 -9t-22 9t-9 22t9 22t22 9t22 -9t9 -22zM122 93q0 -13 -9 -22t-22 -9t-22 9t-9 22t9 22t22 9t22 -9t9 -22z M432 31q0 -13 -9 -22t-22 -9t-22 9t-9 22t9 22t22 9t22 -9t9 -22zM432 589q0 -13 -9 -22t-22 -9t-22 9t-9 22t9 22t22 9t22 -9t9 -22zM494 155q0 -13 -9 -22t-22 -9t-22 9t-9 22t9 22t22 9t22 -9t9 -22zM494 217q0 -13 -9 -22t-22 -9t-22 9t-9 22t9 22t22 9t22 -9t9 -22z M494 279q0 -13 -9 -22t-22 -9t-22 9t-9 22t9 22t22 9t22 -9t9 -22zM494 341q0 -13 -9 -22t-22 -9t-22 9t-9 22t9 22t22 9t22 -9t9 -22zM494 403q0 -13 -9 -22t-22 -9t-22 9t-9 22t9 22t22 9t22 -9t9 -22zM494 465q0 -13 -9 -22t-22 -9t-22 9t-9 22t9 22t22 9t22 -9t9 -22z M494 527q0 -13 -9 -22t-22 -9t-22 9t-9 22t9 22t22 9t22 -9t9 -22zM494 93q0 -13 -9 -22t-22 -9t-22 9t-9 22t9 22t22 9t22 -9t9 -22z" />
<glyph unicode="&#xa4;" horiz-adv-x="474" d="M186 589q0 -13 -9 -22t-22 -9t-22 9t-9 22t9 22t22 9t22 -9t9 -22zM248 589q0 -13 -9 -22t-22 -9t-22 9t-9 22t9 22t22 9t22 -9t9 -22zM310 589q0 -13 -9 -22t-22 -9t-22 9t-9 22t9 22t22 9t22 -9t9 -22zM124 589q0 -13 -9 -22t-22 -9t-22 9t-9 22t9 22t22 9t22 -9t9 -22 zM124 155q0 -13 -9 -22t-22 -9t-22 9t-9 22t9 22t22 9t22 -9t9 -22zM186 155q0 -13 -9 -22t-22 -9t-22 9t-9 22t9 22t22 9t22 -9t9 -22zM248 155q0 -13 -9 -22t-22 -9t-22 9t-9 22t9 22t22 9t22 -9t9 -22zM62 155q0 -13 -9 -22t-22 -9t-22 9t-9 22t9 22t22 9t22 -9t9 -22z M186 279q0 -13 -9 -22t-22 -9t-22 9t-9 22t9 22t22 9t22 -9t9 -22zM248 279q0 -13 -9 -22t-22 -9t-22 9t-9 22t9 22t22 9t22 -9t9 -22zM310 279q0 -13 -9 -22t-22 -9t-22 9t-9 22t9 22t22 9t22 -9t9 -22zM124 279q0 -13 -9 -22t-22 -9t-22 9t-9 22t9 22t22 9t22 -9t9 -22z M124 31q0 -13 -9 -22t-22 -9t-22 9t-9 22t9 22t22 9t22 -9t9 -22zM124 465q0 -13 -9 -22t-22 -9t-22 9t-9 22t9 22t22 9t22 -9t9 -22zM124 527q0 -13 -9 -22t-22 -9t-22 9t-9 22t9 22t22 9t22 -9t9 -22zM124 93q0 -13 -9 -22t-22 -9t-22 9t-9 22t9 22t22 9t22 -9t9 -22z M372 589q0 -13 -9 -22t-22 -9t-22 9t-9 22t9 22t22 9t22 -9t9 -22zM434 341q0 -13 -9 -22t-22 -9t-22 9t-9 22t9 22t22 9t22 -9t9 -22zM434 403q0 -13 -9 -22t-22 -9t-22 9t-9 22t9 22t22 9t22 -9t9 -22zM434 465q0 -13 -9 -22t-22 -9t-22 9t-9 22t9 22t22 9t22 -9t9 -22z M434 527q0 -13 -9 -22t-22 -9t-22 9t-9 22t9 22t22 9t22 -9t9 -22zM124 217q0 -13 -9 -22t-22 -9t-22 9t-9 22t9 22t22 9t22 -9t9 -22zM124 341q0 -13 -9 -22t-22 -9t-22 9t-9 22t9 22t22 9t22 -9t9 -22zM124 403q0 -13 -9 -22t-22 -9t-22 9t-9 22t9 22t22 9t22 -9t9 -22z M310 155q0 -13 -9 -22t-22 -9t-22 9t-9 22t9 22t22 9t22 -9t9 -22zM372 155q0 -13 -9 -22t-22 -9t-22 9t-9 22t9 22t22 9t22 -9t9 -22zM372 279q0 -13 -9 -22t-22 -9t-22 9t-9 22t9 22t22 9t22 -9t9 -22z" />
<glyph unicode="&#xa6;" horiz-adv-x="182" d="M122 31q0 -13 -9 -22t-22 -9t-22 9t-9 22t9 22t22 9t22 -9t9 -22zM122 465q0 -13 -9 -22t-22 -9t-22 9t-9 22t9 22t22 9t22 -9t9 -22zM122 527q0 -13 -9 -22t-22 -9t-22 9t-9 22t9 22t22 9t22 -9t9 -22zM122 589q0 -13 -9 -22t-22 -9t-22 9t-9 22t9 22t22 9t22 -9t9 -22z M122 93q0 -13 -9 -22t-22 -9t-22 9t-9 22t9 22t22 9t22 -9t9 -22zM122 155q0 -13 -9 -22t-22 -9t-22 9t-9 22t9 22t22 9t22 -9t9 -22zM122 217q0 -13 -9 -22t-22 -9t-22 9t-9 22t9 22t22 9t22 -9t9 -22zM122 403q0 -13 -9 -22t-22 -9t-22 9t-9 22t9 22t22 9t22 -9t9 -22z " />
<glyph unicode="&#xa7;" horiz-adv-x="390" d="M102 217q0 -13 -9 -22t-22 -9t-22 9t-9 22t9 22t22 9t22 -9t9 -22zM102 279q0 -13 -9 -22t-22 -9t-22 9t-9 22t9 22t22 9t22 -9t9 -22zM102 341q0 -13 -9 -22t-22 -9t-22 9t-9 22t9 22t22 9t22 -9t9 -22zM102 465q0 -13 -9 -22t-22 -9t-22 9t-9 22t9 22t22 9t22 -9t9 -22 zM102 527q0 -13 -9 -22t-22 -9t-22 9t-9 22t9 22t22 9t22 -9t9 -22zM164 589q0 -13 -9 -22t-22 -9t-22 9t-9 22t9 22t22 9t22 -9t9 -22zM226 589q0 -13 -9 -22t-22 -9t-22 9t-9 22t9 22t22 9t22 -9t9 -22zM226 93q0 -13 -9 -22t-22 -9t-22 9t-9 22t9 22t22 9t22 -9t9 -22z M288 589q0 -13 -9 -22t-22 -9t-22 9t-9 22t9 22t22 9t22 -9t9 -22zM288 93q0 -13 -9 -22t-22 -9t-22 9t-9 22t9 22t22 9t22 -9t9 -22zM350 31q0 -13 -9 -22t-22 -9t-22 9t-9 22t9 22t22 9t22 -9t9 -22zM350 527q0 -13 -9 -22t-22 -9t-22 9t-9 22t9 22t22 9t22 -9t9 -22z M164 155q0 -13 -9 -22t-22 -9t-22 9t-9 22t9 22t22 9t22 -9t9 -22zM164 403q0 -13 -9 -22t-22 -9t-22 9t-9 22t9 22t22 9t22 -9t9 -22zM226 403q0 -13 -9 -22t-22 -9t-22 9t-9 22t9 22t22 9t22 -9t9 -22zM288 341q0 -13 -9 -22t-22 -9t-22 9t-9 22t9 22t22 9t22 -9t9 -22z M350 155q0 -13 -9 -22t-22 -9t-22 9t-9 22t9 22t22 9t22 -9t9 -22zM350 217q0 -13 -9 -22t-22 -9t-22 9t-9 22t9 22t22 9t22 -9t9 -22zM350 279q0 -13 -9 -22t-22 -9t-22 9t-9 22t9 22t22 9t22 -9t9 -22zM102 -31q0 -13 -9 -22t-22 -9t-22 9t-9 22t9 22t22 9t22 -9t9 -22z M164 -93q0 -13 -9 -22t-22 -9t-22 9t-9 22t9 22t22 9t22 -9t9 -22zM226 -93q0 -13 -9 -22t-22 -9t-22 9t-9 22t9 22t22 9t22 -9t9 -22zM288 -93q0 -13 -9 -22t-22 -9t-22 9t-9 22t9 22t22 9t22 -9t9 -22zM350 -31q0 -13 -9 -22t-22 -9t-22 9t-9 22t9 22t22 9t22 -9t9 -22z " />
<glyph unicode="&#xa9;" horiz-adv-x="554" d="M122 155q0 -13 -9 -22t-22 -9t-22 9t-9 22t9 22t22 9t22 -9t9 -22zM122 217q0 -13 -9 -22t-22 -9t-22 9t-9 22t9 22t22 9t22 -9t9 -22zM122 279q0 -13 -9 -22t-22 -9t-22 9t-9 22t9 22t22 9t22 -9t9 -22zM122 341q0 -13 -9 -22t-22 -9t-22 9t-9 22t9 22t22 9t22 -9t9 -22 zM122 403q0 -13 -9 -22t-22 -9t-22 9t-9 22t9 22t22 9t22 -9t9 -22zM122 465q0 -13 -9 -22t-22 -9t-22 9t-9 22t9 22t22 9t22 -9t9 -22zM122 527q0 -13 -9 -22t-22 -9t-22 9t-9 22t9 22t22 9t22 -9t9 -22zM122 93q0 -13 -9 -22t-22 -9t-22 9t-9 22t9 22t22 9t22 -9t9 -22z M432 31q0 -13 -9 -22t-22 -9t-22 9t-9 22t9 22t22 9t22 -9t9 -22zM432 589q0 -13 -9 -22t-22 -9t-22 9t-9 22t9 22t22 9t22 -9t9 -22zM494 155q0 -13 -9 -22t-22 -9t-22 9t-9 22t9 22t22 9t22 -9t9 -22zM494 217q0 -13 -9 -22t-22 -9t-22 9t-9 22t9 22t22 9t22 -9t9 -22z M494 279q0 -13 -9 -22t-22 -9t-22 9t-9 22t9 22t22 9t22 -9t9 -22zM494 341q0 -13 -9 -22t-22 -9t-22 9t-9 22t9 22t22 9t22 -9t9 -22zM494 403q0 -13 -9 -22t-22 -9t-22 9t-9 22t9 22t22 9t22 -9t9 -22zM494 465q0 -13 -9 -22t-22 -9t-22 9t-9 22t9 22t22 9t22 -9t9 -22z M494 527q0 -13 -9 -22t-22 -9t-22 9t-9 22t9 22t22 9t22 -9t9 -22zM494 93q0 -13 -9 -22t-22 -9t-22 9t-9 22t9 22t22 9t22 -9t9 -22zM246 589q0 -13 -9 -22t-22 -9t-22 9t-9 22t9 22t22 9t22 -9t9 -22zM308 589q0 -13 -9 -22t-22 -9t-22 9t-9 22t9 22t22 9t22 -9t9 -22z M370 589q0 -13 -9 -22t-22 -9t-22 9t-9 22t9 22t22 9t22 -9t9 -22zM184 589q0 -13 -9 -22t-22 -9t-22 9t-9 22t9 22t22 9t22 -9t9 -22zM246 31q0 -13 -9 -22t-22 -9t-22 9t-9 22t9 22t22 9t22 -9t9 -22zM308 31q0 -13 -9 -22t-22 -9t-22 9t-9 22t9 22t22 9t22 -9t9 -22z M370 31q0 -13 -9 -22t-22 -9t-22 9t-9 22t9 22t22 9t22 -9t9 -22zM184 31q0 -13 -9 -22t-22 -9t-22 9t-9 22t9 22t22 9t22 -9t9 -22zM308 465q0 -13 -9 -22t-22 -9t-22 9t-9 22t9 22t22 9t22 -9t9 -22zM370 465q0 -13 -9 -22t-22 -9t-22 9t-9 22t9 22t22 9t22 -9t9 -22z M246 217q0 -13 -9 -22t-22 -9t-22 9t-9 22t9 22t22 9t22 -9t9 -22zM246 279q0 -13 -9 -22t-22 -9t-22 9t-9 22t9 22t22 9t22 -9t9 -22zM246 341q0 -13 -9 -22t-22 -9t-22 9t-9 22t9 22t22 9t22 -9t9 -22zM246 403q0 -13 -9 -22t-22 -9t-22 9t-9 22t9 22t22 9t22 -9t9 -22z M308 155q0 -13 -9 -22t-22 -9t-22 9t-9 22t9 22t22 9t22 -9t9 -22zM370 155q0 -13 -9 -22t-22 -9t-22 9t-9 22t9 22t22 9t22 -9t9 -22zM246 465q0 -13 -9 -22t-22 -9t-22 9t-9 22t9 22t22 9t22 -9t9 -22zM246 155q0 -13 -9 -22t-22 -9t-22 9t-9 22t9 22t22 9t22 -9t9 -22z " />
<glyph unicode="&#xaa;" d="M236 403q0 -13 -9 -22t-22 -9t-22 9t-9 22t9 22t22 9t22 -9t9 -22zM298 403q0 -13 -9 -22t-22 -9t-22 9t-9 22t9 22t22 9t22 -9t9 -22zM360 403q0 -13 -9 -22t-22 -9t-22 9t-9 22t9 22t22 9t22 -9t9 -22zM174 403q0 -13 -9 -22t-22 -9t-22 9t-9 22t9 22t22 9t22 -9t9 -22 zM298 31q0 -13 -9 -22t-22 -9t-22 9t-9 22t9 22t22 9t22 -9t9 -22zM360 31q0 13 9 22t22 9t22 -9t9 -22t-9 -22t-22 -9t-22 9t-9 22zM298 93q0 13 9 22t22 9t22 -9t9 -22t-9 -22t-22 -9t-22 9t-9 22zM112 155q0 -13 -9 -22t-22 -9t-22 9t-9 22t9 22t22 9t22 -9t9 -22z M112 217q0 -13 -9 -22t-22 -9t-22 9t-9 22t9 22t22 9t22 -9t9 -22zM112 279q0 -13 -9 -22t-22 -9t-22 9t-9 22t9 22t22 9t22 -9t9 -22zM112 341q0 -13 -9 -22t-22 -9t-22 9t-9 22t9 22t22 9t22 -9t9 -22zM112 93q0 -13 -9 -22t-22 -9t-22 9t-9 22t9 22t22 9t22 -9t9 -22z M174 31q0 -13 -9 -22t-22 -9t-22 9t-9 22t9 22t22 9t22 -9t9 -22zM236 31q0 -13 -9 -22t-22 -9t-22 9t-9 22t9 22t22 9t22 -9t9 -22zM422 93q0 -13 -9 -22t-22 -9t-22 9t-9 22t9 22t22 9t22 -9t9 -22zM422 155q0 -13 -9 -22t-22 -9t-22 9t-9 22t9 22t22 9t22 -9t9 -22z M422 217q0 -13 -9 -22t-22 -9t-22 9t-9 22t9 22t22 9t22 -9t9 -22zM422 279q0 -13 -9 -22t-22 -9t-22 9t-9 22t9 22t22 9t22 -9t9 -22zM422 341q0 -13 -9 -22t-22 -9t-22 9t-9 22t9 22t22 9t22 -9t9 -22z" />
<glyph unicode="&#xab;" horiz-adv-x="390" d="M164 155q0 -13 -9 -22t-22 -9t-22 9t-9 22t9 22t22 9t22 -9t9 -22zM164 279q0 -13 -9 -22t-22 -9t-22 9t-9 22t9 22t22 9t22 -9t9 -22zM226 341q0 -13 -9 -22t-22 -9t-22 9t-9 22t9 22t22 9t22 -9t9 -22zM226 93q0 -13 -9 -22t-22 -9t-22 9t-9 22t9 22t22 9t22 -9t9 -22z M102 217q0 -13 -9 -22t-22 -9t-22 9t-9 22t9 22t22 9t22 -9t9 -22zM288 155q0 -13 -9 -22t-22 -9t-22 9t-9 22t9 22t22 9t22 -9t9 -22zM288 279q0 -13 -9 -22t-22 -9t-22 9t-9 22t9 22t22 9t22 -9t9 -22zM350 341q0 -13 -9 -22t-22 -9t-22 9t-9 22t9 22t22 9t22 -9t9 -22z M350 93q0 -13 -9 -22t-22 -9t-22 9t-9 22t9 22t22 9t22 -9t9 -22zM226 217q0 -13 -9 -22t-22 -9t-22 9t-9 22t9 22t22 9t22 -9t9 -22z" />
<glyph unicode="&#xac;" horiz-adv-x="554" d="M246 31q0 -13 -9 -22t-22 -9t-22 9t-9 22t9 22t22 9t22 -9t9 -22zM308 31q0 -13 -9 -22t-22 -9t-22 9t-9 22t9 22t22 9t22 -9t9 -22zM370 31q0 -13 -9 -22t-22 -9t-22 9t-9 22t9 22t22 9t22 -9t9 -22zM184 31q0 -13 -9 -22t-22 -9t-22 9t-9 22t9 22t22 9t22 -9t9 -22z M246 589q0 -13 -9 -22t-22 -9t-22 9t-9 22t9 22t22 9t22 -9t9 -22zM308 589q0 -13 -9 -22t-22 -9t-22 9t-9 22t9 22t22 9t22 -9t9 -22zM370 589q0 -13 -9 -22t-22 -9t-22 9t-9 22t9 22t22 9t22 -9t9 -22zM184 589q0 -13 -9 -22t-22 -9t-22 9t-9 22t9 22t22 9t22 -9t9 -22z M122 155q0 -13 -9 -22t-22 -9t-22 9t-9 22t9 22t22 9t22 -9t9 -22zM122 217q0 -13 -9 -22t-22 -9t-22 9t-9 22t9 22t22 9t22 -9t9 -22zM122 279q0 -13 -9 -22t-22 -9t-22 9t-9 22t9 22t22 9t22 -9t9 -22zM122 341q0 -13 -9 -22t-22 -9t-22 9t-9 22t9 22t22 9t22 -9t9 -22z M122 403q0 -13 -9 -22t-22 -9t-22 9t-9 22t9 22t22 9t22 -9t9 -22zM122 465q0 -13 -9 -22t-22 -9t-22 9t-9 22t9 22t22 9t22 -9t9 -22zM122 527q0 -13 -9 -22t-22 -9t-22 9t-9 22t9 22t22 9t22 -9t9 -22zM122 93q0 -13 -9 -22t-22 -9t-22 9t-9 22t9 22t22 9t22 -9t9 -22z M432 31q0 -13 -9 -22t-22 -9t-22 9t-9 22t9 22t22 9t22 -9t9 -22zM432 589q0 -13 -9 -22t-22 -9t-22 9t-9 22t9 22t22 9t22 -9t9 -22zM494 155q0 -13 -9 -22t-22 -9t-22 9t-9 22t9 22t22 9t22 -9t9 -22zM494 217q0 -13 -9 -22t-22 -9t-22 9t-9 22t9 22t22 9t22 -9t9 -22z M494 279q0 -13 -9 -22t-22 -9t-22 9t-9 22t9 22t22 9t22 -9t9 -22zM494 341q0 -13 -9 -22t-22 -9t-22 9t-9 22t9 22t22 9t22 -9t9 -22zM494 403q0 -13 -9 -22t-22 -9t-22 9t-9 22t9 22t22 9t22 -9t9 -22zM494 465q0 -13 -9 -22t-22 -9t-22 9t-9 22t9 22t22 9t22 -9t9 -22z M494 527q0 -13 -9 -22t-22 -9t-22 9t-9 22t9 22t22 9t22 -9t9 -22zM494 93q0 -13 -9 -22t-22 -9t-22 9t-9 22t9 22t22 9t22 -9t9 -22z" />
<glyph unicode="&#xad;" horiz-adv-x="328" d="M164 279q0 -13 -9 -22t-22 -9t-22 9t-9 22t9 22t22 9t22 -9t9 -22zM226 279q0 -13 -9 -22t-22 -9t-22 9t-9 22t9 22t22 9t22 -9t9 -22zM288 279q0 -13 -9 -22t-22 -9t-22 9t-9 22t9 22t22 9t22 -9t9 -22zM102 279q0 -13 -9 -22t-22 -9t-22 9t-9 22t9 22t22 9t22 -9t9 -22 z" />
<glyph unicode="&#xae;" horiz-adv-x="554" d="M246 403q0 -13 -9 -22t-22 -9t-22 9t-9 22t9 22t22 9t22 -9t9 -22zM308 403q0 13 9 22t22 9t22 -9t9 -22t-9 -22t-22 -9t-22 9t-9 22zM246 465q0 13 9 22t22 9t22 -9t9 -22t-9 -22t-22 -9t-22 9t-9 22zM246 155q0 -13 -9 -22t-22 -9t-22 9t-9 22t9 22t22 9t22 -9t9 -22z M308 155q0 13 9 22t22 9t22 -9t9 -22t-9 -22t-22 -9t-22 9t-9 22zM246 217q0 13 9 22t22 9t22 -9t9 -22t-9 -22t-22 -9t-22 9t-9 22zM122 155q0 -13 -9 -22t-22 -9t-22 9t-9 22t9 22t22 9t22 -9t9 -22zM122 217q0 -13 -9 -22t-22 -9t-22 9t-9 22t9 22t22 9t22 -9t9 -22z M122 279q0 -13 -9 -22t-22 -9t-22 9t-9 22t9 22t22 9t22 -9t9 -22zM122 341q0 -13 -9 -22t-22 -9t-22 9t-9 22t9 22t22 9t22 -9t9 -22zM122 403q0 -13 -9 -22t-22 -9t-22 9t-9 22t9 22t22 9t22 -9t9 -22zM122 465q0 -13 -9 -22t-22 -9t-22 9t-9 22t9 22t22 9t22 -9t9 -22z M122 527q0 -13 -9 -22t-22 -9t-22 9t-9 22t9 22t22 9t22 -9t9 -22zM122 93q0 -13 -9 -22t-22 -9t-22 9t-9 22t9 22t22 9t22 -9t9 -22zM432 31q0 -13 -9 -22t-22 -9t-22 9t-9 22t9 22t22 9t22 -9t9 -22zM432 589q0 -13 -9 -22t-22 -9t-22 9t-9 22t9 22t22 9t22 -9t9 -22z M494 155q0 -13 -9 -22t-22 -9t-22 9t-9 22t9 22t22 9t22 -9t9 -22zM494 217q0 -13 -9 -22t-22 -9t-22 9t-9 22t9 22t22 9t22 -9t9 -22zM494 279q0 -13 -9 -22t-22 -9t-22 9t-9 22t9 22t22 9t22 -9t9 -22zM494 341q0 -13 -9 -22t-22 -9t-22 9t-9 22t9 22t22 9t22 -9t9 -22z M494 403q0 -13 -9 -22t-22 -9t-22 9t-9 22t9 22t22 9t22 -9t9 -22zM494 465q0 -13 -9 -22t-22 -9t-22 9t-9 22t9 22t22 9t22 -9t9 -22zM494 527q0 -13 -9 -22t-22 -9t-22 9t-9 22t9 22t22 9t22 -9t9 -22zM494 93q0 -13 -9 -22t-22 -9t-22 9t-9 22t9 22t22 9t22 -9t9 -22z M246 589q0 -13 -9 -22t-22 -9t-22 9t-9 22t9 22t22 9t22 -9t9 -22zM308 589q0 -13 -9 -22t-22 -9t-22 9t-9 22t9 22t22 9t22 -9t9 -22zM370 589q0 -13 -9 -22t-22 -9t-22 9t-9 22t9 22t22 9t22 -9t9 -22zM184 589q0 -13 -9 -22t-22 -9t-22 9t-9 22t9 22t22 9t22 -9t9 -22z M246 31q0 -13 -9 -22t-22 -9t-22 9t-9 22t9 22t22 9t22 -9t9 -22zM308 31q0 -13 -9 -22t-22 -9t-22 9t-9 22t9 22t22 9t22 -9t9 -22zM370 31q0 -13 -9 -22t-22 -9t-22 9t-9 22t9 22t22 9t22 -9t9 -22zM184 31q0 -13 -9 -22t-22 -9t-22 9t-9 22t9 22t22 9t22 -9t9 -22z M370 465q0 -13 -9 -22t-22 -9t-22 9t-9 22t9 22t22 9t22 -9t9 -22zM246 217q0 -13 -9 -22t-22 -9t-22 9t-9 22t9 22t22 9t22 -9t9 -22zM246 341q0 -13 -9 -22t-22 -9t-22 9t-9 22t9 22t22 9t22 -9t9 -22zM246 279q0 13 9 22t22 9t22 -9t9 -22t-9 -22t-22 -9t-22 9t-9 22z M184 279q0 13 9 22t22 9t22 -9t9 -22t-9 -22t-22 -9t-22 9t-9 22zM308 341q0 13 9 22t22 9t22 -9t9 -22t-9 -22t-22 -9t-22 9t-9 22zM184 465q0 13 9 22t22 9t22 -9t9 -22t-9 -22t-22 -9t-22 9t-9 22zM370 279q0 -13 -9 -22t-22 -9t-22 9t-9 22t9 22t22 9t22 -9t9 -22z" />
<glyph unicode="&#xb0;" horiz-adv-x="554" d="M246 31q0 -13 -9 -22t-22 -9t-22 9t-9 22t9 22t22 9t22 -9t9 -22zM308 31q0 -13 -9 -22t-22 -9t-22 9t-9 22t9 22t22 9t22 -9t9 -22zM370 31q0 -13 -9 -22t-22 -9t-22 9t-9 22t9 22t22 9t22 -9t9 -22zM184 31q0 -13 -9 -22t-22 -9t-22 9t-9 22t9 22t22 9t22 -9t9 -22z M246 589q0 -13 -9 -22t-22 -9t-22 9t-9 22t9 22t22 9t22 -9t9 -22zM308 589q0 -13 -9 -22t-22 -9t-22 9t-9 22t9 22t22 9t22 -9t9 -22zM370 589q0 -13 -9 -22t-22 -9t-22 9t-9 22t9 22t22 9t22 -9t9 -22zM184 589q0 -13 -9 -22t-22 -9t-22 9t-9 22t9 22t22 9t22 -9t9 -22z M122 155q0 -13 -9 -22t-22 -9t-22 9t-9 22t9 22t22 9t22 -9t9 -22zM122 217q0 -13 -9 -22t-22 -9t-22 9t-9 22t9 22t22 9t22 -9t9 -22zM122 279q0 -13 -9 -22t-22 -9t-22 9t-9 22t9 22t22 9t22 -9t9 -22zM122 341q0 -13 -9 -22t-22 -9t-22 9t-9 22t9 22t22 9t22 -9t9 -22z M122 403q0 -13 -9 -22t-22 -9t-22 9t-9 22t9 22t22 9t22 -9t9 -22zM122 465q0 -13 -9 -22t-22 -9t-22 9t-9 22t9 22t22 9t22 -9t9 -22zM122 527q0 -13 -9 -22t-22 -9t-22 9t-9 22t9 22t22 9t22 -9t9 -22zM122 93q0 -13 -9 -22t-22 -9t-22 9t-9 22t9 22t22 9t22 -9t9 -22z M432 31q0 -13 -9 -22t-22 -9t-22 9t-9 22t9 22t22 9t22 -9t9 -22zM432 589q0 -13 -9 -22t-22 -9t-22 9t-9 22t9 22t22 9t22 -9t9 -22zM494 155q0 -13 -9 -22t-22 -9t-22 9t-9 22t9 22t22 9t22 -9t9 -22zM494 217q0 -13 -9 -22t-22 -9t-22 9t-9 22t9 22t22 9t22 -9t9 -22z M494 279q0 -13 -9 -22t-22 -9t-22 9t-9 22t9 22t22 9t22 -9t9 -22zM494 341q0 -13 -9 -22t-22 -9t-22 9t-9 22t9 22t22 9t22 -9t9 -22zM494 403q0 -13 -9 -22t-22 -9t-22 9t-9 22t9 22t22 9t22 -9t9 -22zM494 465q0 -13 -9 -22t-22 -9t-22 9t-9 22t9 22t22 9t22 -9t9 -22z M494 527q0 -13 -9 -22t-22 -9t-22 9t-9 22t9 22t22 9t22 -9t9 -22zM494 93q0 -13 -9 -22t-22 -9t-22 9t-9 22t9 22t22 9t22 -9t9 -22z" />
<glyph unicode="&#xb1;" horiz-adv-x="390" d="M164 93q0 -13 -9 -22t-22 -9t-22 9t-9 22t9 22t22 9t22 -9t9 -22zM226 93q0 -13 -9 -22t-22 -9t-22 9t-9 22t9 22t22 9t22 -9t9 -22zM288 93q0 -13 -9 -22t-22 -9t-22 9t-9 22t9 22t22 9t22 -9t9 -22zM102 93q0 -13 -9 -22t-22 -9t-22 9t-9 22t9 22t22 9t22 -9t9 -22z M164 279q0 -13 -9 -22t-22 -9t-22 9t-9 22t9 22t22 9t22 -9t9 -22zM226 279q0 -13 -9 -22t-22 -9t-22 9t-9 22t9 22t22 9t22 -9t9 -22zM288 279q0 -13 -9 -22t-22 -9t-22 9t-9 22t9 22t22 9t22 -9t9 -22zM102 279q0 -13 -9 -22t-22 -9t-22 9t-9 22t9 22t22 9t22 -9t9 -22z M350 93q0 -13 -9 -22t-22 -9t-22 9t-9 22t9 22t22 9t22 -9t9 -22zM226 217q0 -13 -9 -22t-22 -9t-22 9t-9 22t9 22t22 9t22 -9t9 -22zM226 341q0 -13 -9 -22t-22 -9t-22 9t-9 22t9 22t22 9t22 -9t9 -22zM226 403q0 -13 -9 -22t-22 -9t-22 9t-9 22t9 22t22 9t22 -9t9 -22z M350 279q0 -13 -9 -22t-22 -9t-22 9t-9 22t9 22t22 9t22 -9t9 -22z" />
<glyph unicode="&#xb2;" horiz-adv-x="432" d="M154 31q0 -13 -9 -22t-22 -9t-22 9t-9 22t9 22t22 9t22 -9t9 -22zM216 31q0 -13 -9 -22t-22 -9t-22 9t-9 22t9 22t22 9t22 -9t9 -22zM278 31q0 -13 -9 -22t-22 -9t-22 9t-9 22t9 22t22 9t22 -9t9 -22zM92 31q0 -13 -9 -22t-22 -9t-22 9t-9 22t9 22t22 9t22 -9t9 -22z M216 589q0 -13 -9 -22t-22 -9t-22 9t-9 22t9 22t22 9t22 -9t9 -22zM278 589q0 -13 -9 -22t-22 -9t-22 9t-9 22t9 22t22 9t22 -9t9 -22zM340 589q0 -13 -9 -22t-22 -9t-22 9t-9 22t9 22t22 9t22 -9t9 -22zM154 589q0 -13 -9 -22t-22 -9t-22 9t-9 22t9 22t22 9t22 -9t9 -22z M92 465q0 -13 -9 -22t-22 -9t-22 9t-9 22t9 22t22 9t22 -9t9 -22zM92 527q0 -13 -9 -22t-22 -9t-22 9t-9 22t9 22t22 9t22 -9t9 -22zM92 93q0 -13 -9 -22t-22 -9t-22 9t-9 22t9 22t22 9t22 -9t9 -22zM154 155q0 -13 -9 -22t-22 -9t-22 9t-9 22t9 22t22 9t22 -9t9 -22z M216 217q0 -13 -9 -22t-22 -9t-22 9t-9 22t9 22t22 9t22 -9t9 -22zM278 279q0 -13 -9 -22t-22 -9t-22 9t-9 22t9 22t22 9t22 -9t9 -22zM340 31q0 -13 -9 -22t-22 -9t-22 9t-9 22t9 22t22 9t22 -9t9 -22zM340 341q0 -13 -9 -22t-22 -9t-22 9t-9 22t9 22t22 9t22 -9t9 -22z M402 31q0 -13 -9 -22t-22 -9t-22 9t-9 22t9 22t22 9t22 -9t9 -22zM402 403q0 -13 -9 -22t-22 -9t-22 9t-9 22t9 22t22 9t22 -9t9 -22zM402 465q0 -13 -9 -22t-22 -9t-22 9t-9 22t9 22t22 9t22 -9t9 -22zM402 527q0 -13 -9 -22t-22 -9t-22 9t-9 22t9 22t22 9t22 -9t9 -22z " />
<glyph unicode="&#xb3;" horiz-adv-x="452" d="M144 589q0 -13 -9 -22t-22 -9t-22 9t-9 22t9 22t22 9t22 -9t9 -22zM206 589q0 -13 -9 -22t-22 -9t-22 9t-9 22t9 22t22 9t22 -9t9 -22zM268 589q0 -13 -9 -22t-22 -9t-22 9t-9 22t9 22t22 9t22 -9t9 -22zM82 589q0 -13 -9 -22t-22 -9t-22 9t-9 22t9 22t22 9t22 -9t9 -22z M206 31q0 -13 -9 -22t-22 -9t-22 9t-9 22t9 22t22 9t22 -9t9 -22zM268 31q0 -13 -9 -22t-22 -9t-22 9t-9 22t9 22t22 9t22 -9t9 -22zM330 31q0 -13 -9 -22t-22 -9t-22 9t-9 22t9 22t22 9t22 -9t9 -22zM144 31q0 -13 -9 -22t-22 -9t-22 9t-9 22t9 22t22 9t22 -9t9 -22z M82 527q0 -13 -9 -22t-22 -9t-22 9t-9 22t9 22t22 9t22 -9t9 -22zM82 93q0 -13 -9 -22t-22 -9t-22 9t-9 22t9 22t22 9t22 -9t9 -22zM268 341q0 -13 -9 -22t-22 -9t-22 9t-9 22t9 22t22 9t22 -9t9 -22zM330 403q0 -13 -9 -22t-22 -9t-22 9t-9 22t9 22t22 9t22 -9t9 -22z M330 589q0 -13 -9 -22t-22 -9t-22 9t-9 22t9 22t22 9t22 -9t9 -22zM392 155q0 -13 -9 -22t-22 -9t-22 9t-9 22t9 22t22 9t22 -9t9 -22zM392 217q0 -13 -9 -22t-22 -9t-22 9t-9 22t9 22t22 9t22 -9t9 -22zM392 279q0 -13 -9 -22t-22 -9t-22 9t-9 22t9 22t22 9t22 -9t9 -22z M392 465q0 -13 -9 -22t-22 -9t-22 9t-9 22t9 22t22 9t22 -9t9 -22zM392 527q0 -13 -9 -22t-22 -9t-22 9t-9 22t9 22t22 9t22 -9t9 -22zM392 589q0 -13 -9 -22t-22 -9t-22 9t-9 22t9 22t22 9t22 -9t9 -22zM392 93q0 -13 -9 -22t-22 -9t-22 9t-9 22t9 22t22 9t22 -9t9 -22z " />
<glyph unicode="&#xb5;" horiz-adv-x="554" d="M246 31q0 -13 -9 -22t-22 -9t-22 9t-9 22t9 22t22 9t22 -9t9 -22zM308 31q0 -13 -9 -22t-22 -9t-22 9t-9 22t9 22t22 9t22 -9t9 -22zM370 31q0 -13 -9 -22t-22 -9t-22 9t-9 22t9 22t22 9t22 -9t9 -22zM184 31q0 -13 -9 -22t-22 -9t-22 9t-9 22t9 22t22 9t22 -9t9 -22z M246 589q0 -13 -9 -22t-22 -9t-22 9t-9 22t9 22t22 9t22 -9t9 -22zM308 589q0 -13 -9 -22t-22 -9t-22 9t-9 22t9 22t22 9t22 -9t9 -22zM370 589q0 -13 -9 -22t-22 -9t-22 9t-9 22t9 22t22 9t22 -9t9 -22zM184 589q0 -13 -9 -22t-22 -9t-22 9t-9 22t9 22t22 9t22 -9t9 -22z M122 155q0 -13 -9 -22t-22 -9t-22 9t-9 22t9 22t22 9t22 -9t9 -22zM122 217q0 -13 -9 -22t-22 -9t-22 9t-9 22t9 22t22 9t22 -9t9 -22zM122 279q0 -13 -9 -22t-22 -9t-22 9t-9 22t9 22t22 9t22 -9t9 -22zM122 341q0 -13 -9 -22t-22 -9t-22 9t-9 22t9 22t22 9t22 -9t9 -22z M122 403q0 -13 -9 -22t-22 -9t-22 9t-9 22t9 22t22 9t22 -9t9 -22zM122 465q0 -13 -9 -22t-22 -9t-22 9t-9 22t9 22t22 9t22 -9t9 -22zM122 527q0 -13 -9 -22t-22 -9t-22 9t-9 22t9 22t22 9t22 -9t9 -22zM122 93q0 -13 -9 -22t-22 -9t-22 9t-9 22t9 22t22 9t22 -9t9 -22z M432 31q0 -13 -9 -22t-22 -9t-22 9t-9 22t9 22t22 9t22 -9t9 -22zM432 589q0 -13 -9 -22t-22 -9t-22 9t-9 22t9 22t22 9t22 -9t9 -22zM494 155q0 -13 -9 -22t-22 -9t-22 9t-9 22t9 22t22 9t22 -9t9 -22zM494 217q0 -13 -9 -22t-22 -9t-22 9t-9 22t9 22t22 9t22 -9t9 -22z M494 279q0 -13 -9 -22t-22 -9t-22 9t-9 22t9 22t22 9t22 -9t9 -22zM494 341q0 -13 -9 -22t-22 -9t-22 9t-9 22t9 22t22 9t22 -9t9 -22zM494 403q0 -13 -9 -22t-22 -9t-22 9t-9 22t9 22t22 9t22 -9t9 -22zM494 465q0 -13 -9 -22t-22 -9t-22 9t-9 22t9 22t22 9t22 -9t9 -22z M494 527q0 -13 -9 -22t-22 -9t-22 9t-9 22t9 22t22 9t22 -9t9 -22zM494 93q0 -13 -9 -22t-22 -9t-22 9t-9 22t9 22t22 9t22 -9t9 -22z" />
<glyph unicode="&#xb6;" horiz-adv-x="390" d="M206 589q0 -13 -9 -22t-22 -9t-22 9t-9 22t9 22t22 9t22 -9t9 -22zM268 589q0 -13 -9 -22t-22 -9t-22 9t-9 22t9 22t22 9t22 -9t9 -22zM330 589q0 -13 -9 -22t-22 -9t-22 9t-9 22t9 22t22 9t22 -9t9 -22zM144 589q0 -13 -9 -22t-22 -9t-22 9t-9 22t9 22t22 9t22 -9t9 -22 zM206 -31q0 -13 -9 -22t-22 -9t-22 9t-9 22t9 22t22 9t22 -9t9 -22zM206 93q0 -13 -9 -22t-22 -9t-22 9t-9 22t9 22t22 9t22 -9t9 -22zM206 155q0 -13 -9 -22t-22 -9t-22 9t-9 22t9 22t22 9t22 -9t9 -22zM206 217q0 -13 -9 -22t-22 -9t-22 9t-9 22t9 22t22 9t22 -9t9 -22z M206 279q0 -13 -9 -22t-22 -9t-22 9t-9 22t9 22t22 9t22 -9t9 -22zM206 341q0 -13 -9 -22t-22 -9t-22 9t-9 22t9 22t22 9t22 -9t9 -22zM206 403q0 -13 -9 -22t-22 -9t-22 9t-9 22t9 22t22 9t22 -9t9 -22zM206 465q0 -13 -9 -22t-22 -9t-22 9t-9 22t9 22t22 9t22 -9t9 -22z M206 527q0 -13 -9 -22t-22 -9t-22 9t-9 22t9 22t22 9t22 -9t9 -22zM206 31q0 -13 -9 -22t-22 -9t-22 9t-9 22t9 22t22 9t22 -9t9 -22zM144 465q0 -13 -9 -22t-22 -9t-22 9t-9 22t9 22t22 9t22 -9t9 -22zM82 403q0 -13 -9 -22t-22 -9t-22 9t-9 22t9 22t22 9t22 -9t9 -22z M330 -31q0 -13 -9 -22t-22 -9t-22 9t-9 22t9 22t22 9t22 -9t9 -22zM330 403q0 -13 -9 -22t-22 -9t-22 9t-9 22t9 22t22 9t22 -9t9 -22zM330 465q0 -13 -9 -22t-22 -9t-22 9t-9 22t9 22t22 9t22 -9t9 -22zM330 527q0 -13 -9 -22t-22 -9t-22 9t-9 22t9 22t22 9t22 -9t9 -22z M330 31q0 -13 -9 -22t-22 -9t-22 9t-9 22t9 22t22 9t22 -9t9 -22zM330 93q0 -13 -9 -22t-22 -9t-22 9t-9 22t9 22t22 9t22 -9t9 -22zM330 155q0 -13 -9 -22t-22 -9t-22 9t-9 22t9 22t22 9t22 -9t9 -22zM330 217q0 -13 -9 -22t-22 -9t-22 9t-9 22t9 22t22 9t22 -9t9 -22z M330 279q0 -13 -9 -22t-22 -9t-22 9t-9 22t9 22t22 9t22 -9t9 -22zM330 341q0 -13 -9 -22t-22 -9t-22 9t-9 22t9 22t22 9t22 -9t9 -22zM82 341q0 -13 -9 -22t-22 -9t-22 9t-9 22t9 22t22 9t22 -9t9 -22zM82 465q0 -13 -9 -22t-22 -9t-22 9t-9 22t9 22t22 9t22 -9t9 -22z M82 527q0 -13 -9 -22t-22 -9t-22 9t-9 22t9 22t22 9t22 -9t9 -22zM144 527q0 -13 -9 -22t-22 -9t-22 9t-9 22t9 22t22 9t22 -9t9 -22zM144 279q0 -13 -9 -22t-22 -9t-22 9t-9 22t9 22t22 9t22 -9t9 -22zM144 341q0 -13 -9 -22t-22 -9t-22 9t-9 22t9 22t22 9t22 -9t9 -22z M144 403q0 -13 -9 -22t-22 -9t-22 9t-9 22t9 22t22 9t22 -9t9 -22z" />
<glyph unicode="&#xb7;" horiz-adv-x="554" d="M246 31q0 -13 -9 -22t-22 -9t-22 9t-9 22t9 22t22 9t22 -9t9 -22zM308 31q0 -13 -9 -22t-22 -9t-22 9t-9 22t9 22t22 9t22 -9t9 -22zM370 31q0 -13 -9 -22t-22 -9t-22 9t-9 22t9 22t22 9t22 -9t9 -22zM184 31q0 -13 -9 -22t-22 -9t-22 9t-9 22t9 22t22 9t22 -9t9 -22z M246 589q0 -13 -9 -22t-22 -9t-22 9t-9 22t9 22t22 9t22 -9t9 -22zM308 589q0 -13 -9 -22t-22 -9t-22 9t-9 22t9 22t22 9t22 -9t9 -22zM370 589q0 -13 -9 -22t-22 -9t-22 9t-9 22t9 22t22 9t22 -9t9 -22zM184 589q0 -13 -9 -22t-22 -9t-22 9t-9 22t9 22t22 9t22 -9t9 -22z M122 155q0 -13 -9 -22t-22 -9t-22 9t-9 22t9 22t22 9t22 -9t9 -22zM122 217q0 -13 -9 -22t-22 -9t-22 9t-9 22t9 22t22 9t22 -9t9 -22zM122 279q0 -13 -9 -22t-22 -9t-22 9t-9 22t9 22t22 9t22 -9t9 -22zM122 341q0 -13 -9 -22t-22 -9t-22 9t-9 22t9 22t22 9t22 -9t9 -22z M122 403q0 -13 -9 -22t-22 -9t-22 9t-9 22t9 22t22 9t22 -9t9 -22zM122 465q0 -13 -9 -22t-22 -9t-22 9t-9 22t9 22t22 9t22 -9t9 -22zM122 527q0 -13 -9 -22t-22 -9t-22 9t-9 22t9 22t22 9t22 -9t9 -22zM122 93q0 -13 -9 -22t-22 -9t-22 9t-9 22t9 22t22 9t22 -9t9 -22z M432 31q0 -13 -9 -22t-22 -9t-22 9t-9 22t9 22t22 9t22 -9t9 -22zM432 589q0 -13 -9 -22t-22 -9t-22 9t-9 22t9 22t22 9t22 -9t9 -22zM494 155q0 -13 -9 -22t-22 -9t-22 9t-9 22t9 22t22 9t22 -9t9 -22zM494 217q0 -13 -9 -22t-22 -9t-22 9t-9 22t9 22t22 9t22 -9t9 -22z M494 279q0 -13 -9 -22t-22 -9t-22 9t-9 22t9 22t22 9t22 -9t9 -22zM494 341q0 -13 -9 -22t-22 -9t-22 9t-9 22t9 22t22 9t22 -9t9 -22zM494 403q0 -13 -9 -22t-22 -9t-22 9t-9 22t9 22t22 9t22 -9t9 -22zM494 465q0 -13 -9 -22t-22 -9t-22 9t-9 22t9 22t22 9t22 -9t9 -22z M494 527q0 -13 -9 -22t-22 -9t-22 9t-9 22t9 22t22 9t22 -9t9 -22zM494 93q0 -13 -9 -22t-22 -9t-22 9t-9 22t9 22t22 9t22 -9t9 -22z" />
<glyph unicode="&#xb9;" horiz-adv-x="246" d="M62 465q0 -13 -9 -22t-22 -9t-22 9t-9 22t9 22t22 9t22 -9t9 -22zM124 465q0 13 9 22t22 9t22 -9t9 -22t-9 -22t-22 -9t-22 9t-9 22zM62 527q0 13 9 22t22 9t22 -9t9 -22t-9 -22t-22 -9t-22 9t-9 22zM186 31q0 -13 -9 -22t-22 -9t-22 9t-9 22t9 22t22 9t22 -9t9 -22z M186 155q0 -13 -9 -22t-22 -9t-22 9t-9 22t9 22t22 9t22 -9t9 -22zM186 217q0 -13 -9 -22t-22 -9t-22 9t-9 22t9 22t22 9t22 -9t9 -22zM186 279q0 -13 -9 -22t-22 -9t-22 9t-9 22t9 22t22 9t22 -9t9 -22zM186 341q0 -13 -9 -22t-22 -9t-22 9t-9 22t9 22t22 9t22 -9t9 -22z M186 403q0 -13 -9 -22t-22 -9t-22 9t-9 22t9 22t22 9t22 -9t9 -22zM186 527q0 -13 -9 -22t-22 -9t-22 9t-9 22t9 22t22 9t22 -9t9 -22zM186 589q0 -13 -9 -22t-22 -9t-22 9t-9 22t9 22t22 9t22 -9t9 -22zM186 93q0 -13 -9 -22t-22 -9t-22 9t-9 22t9 22t22 9t22 -9t9 -22z " />
<glyph unicode="&#xba;" d="M236 31q0 -13 -9 -22t-22 -9t-22 9t-9 22t9 22t22 9t22 -9t9 -22zM298 31q0 -13 -9 -22t-22 -9t-22 9t-9 22t9 22t22 9t22 -9t9 -22zM360 31q0 -13 -9 -22t-22 -9t-22 9t-9 22t9 22t22 9t22 -9t9 -22zM174 31q0 -13 -9 -22t-22 -9t-22 9t-9 22t9 22t22 9t22 -9t9 -22z M236 403q0 -13 -9 -22t-22 -9t-22 9t-9 22t9 22t22 9t22 -9t9 -22zM298 403q0 -13 -9 -22t-22 -9t-22 9t-9 22t9 22t22 9t22 -9t9 -22zM360 403q0 -13 -9 -22t-22 -9t-22 9t-9 22t9 22t22 9t22 -9t9 -22zM174 403q0 -13 -9 -22t-22 -9t-22 9t-9 22t9 22t22 9t22 -9t9 -22z M112 155q0 -13 -9 -22t-22 -9t-22 9t-9 22t9 22t22 9t22 -9t9 -22zM112 217q0 -13 -9 -22t-22 -9t-22 9t-9 22t9 22t22 9t22 -9t9 -22zM112 279q0 -13 -9 -22t-22 -9t-22 9t-9 22t9 22t22 9t22 -9t9 -22zM112 341q0 -13 -9 -22t-22 -9t-22 9t-9 22t9 22t22 9t22 -9t9 -22z M112 93q0 -13 -9 -22t-22 -9t-22 9t-9 22t9 22t22 9t22 -9t9 -22zM422 93q0 -13 -9 -22t-22 -9t-22 9t-9 22t9 22t22 9t22 -9t9 -22zM422 155q0 -13 -9 -22t-22 -9t-22 9t-9 22t9 22t22 9t22 -9t9 -22zM422 217q0 -13 -9 -22t-22 -9t-22 9t-9 22t9 22t22 9t22 -9t9 -22z M422 279q0 -13 -9 -22t-22 -9t-22 9t-9 22t9 22t22 9t22 -9t9 -22zM422 341q0 -13 -9 -22t-22 -9t-22 9t-9 22t9 22t22 9t22 -9t9 -22z" />
<glyph unicode="&#xbb;" horiz-adv-x="390" d="M226 155q0 13 9 22t22 9t22 -9t9 -22t-9 -22t-22 -9t-22 9t-9 22zM226 279q0 13 9 22t22 9t22 -9t9 -22t-9 -22t-22 -9t-22 9t-9 22zM164 341q0 13 9 22t22 9t22 -9t9 -22t-9 -22t-22 -9t-22 9t-9 22zM164 93q0 13 9 22t22 9t22 -9t9 -22t-9 -22t-22 -9t-22 9t-9 22z M288 217q0 13 9 22t22 9t22 -9t9 -22t-9 -22t-22 -9t-22 9t-9 22zM102 155q0 13 9 22t22 9t22 -9t9 -22t-9 -22t-22 -9t-22 9t-9 22zM102 279q0 13 9 22t22 9t22 -9t9 -22t-9 -22t-22 -9t-22 9t-9 22zM40 341q0 13 9 22t22 9t22 -9t9 -22t-9 -22t-22 -9t-22 9t-9 22zM40 93 q0 13 9 22t22 9t22 -9t9 -22t-9 -22t-22 -9t-22 9t-9 22zM164 217q0 13 9 22t22 9t22 -9t9 -22t-9 -22t-22 -9t-22 9t-9 22z" />
<glyph unicode="&#xc0;" d="M224 830q0 -17 -12.5 -29.5t-29.5 -12.5t-29.5 12.5t-12.5 29.5t12.5 29t29.5 12t29.5 -12t12.5 -29zM182 753q0 13 9 22t22 9t22 -9t9 -22t-9 -22t-22 -9t-22 9t-9 22zM217 699q0 7 5.5 12.5t13.5 5.5t13.5 -5.5t5.5 -12.5q0 -8 -5.5 -13.5t-13.5 -5.5t-13.5 5.5 t-5.5 13.5zM174 217q0 -13 -9 -22t-22 -9t-22 9t-9 22t9 22t22 9t22 -9t9 -22zM236 217q0 -13 -9 -22t-22 -9t-22 9t-9 22t9 22t22 9t22 -9t9 -22zM298 217q0 -13 -9 -22t-22 -9t-22 9t-9 22t9 22t22 9t22 -9t9 -22zM112 217q0 -13 -9 -22t-22 -9t-22 9t-9 22t9 22t22 9 t22 -9t9 -22zM112 31q0 -13 -9 -22t-22 -9t-22 9t-9 22t9 22t22 9t22 -9t9 -22zM112 155q0 -13 -9 -22t-22 -9t-22 9t-9 22t9 22t22 9t22 -9t9 -22zM112 279q0 -13 -9 -22t-22 -9t-22 9t-9 22t9 22t22 9t22 -9t9 -22zM112 341q0 -13 -9 -22t-22 -9t-22 9t-9 22t9 22t22 9 t22 -9t9 -22zM112 403q0 -13 -9 -22t-22 -9t-22 9t-9 22t9 22t22 9t22 -9t9 -22zM112 465q0 -13 -9 -22t-22 -9t-22 9t-9 22t9 22t22 9t22 -9t9 -22zM112 93q0 -13 -9 -22t-22 -9t-22 9t-9 22t9 22t22 9t22 -9t9 -22zM174 527q0 -13 -9 -22t-22 -9t-22 9t-9 22t9 22t22 9 t22 -9t9 -22zM236 589q0 -13 -9 -22t-22 -9t-22 9t-9 22t9 22t22 9t22 -9t9 -22zM298 589q0 -13 -9 -22t-22 -9t-22 9t-9 22t9 22t22 9t22 -9t9 -22zM360 527q0 -13 -9 -22t-22 -9t-22 9t-9 22t9 22t22 9t22 -9t9 -22zM422 31q0 -13 -9 -22t-22 -9t-22 9t-9 22t9 22t22 9 t22 -9t9 -22zM422 465q0 -13 -9 -22t-22 -9t-22 9t-9 22t9 22t22 9t22 -9t9 -22zM422 93q0 -13 -9 -22t-22 -9t-22 9t-9 22t9 22t22 9t22 -9t9 -22zM360 217q0 -13 -9 -22t-22 -9t-22 9t-9 22t9 22t22 9t22 -9t9 -22zM422 155q0 -13 -9 -22t-22 -9t-22 9t-9 22t9 22t22 9 t22 -9t9 -22zM422 217q0 -13 -9 -22t-22 -9t-22 9t-9 22t9 22t22 9t22 -9t9 -22zM422 279q0 -13 -9 -22t-22 -9t-22 9t-9 22t9 22t22 9t22 -9t9 -22zM422 341q0 -13 -9 -22t-22 -9t-22 9t-9 22t9 22t22 9t22 -9t9 -22zM422 403q0 -13 -9 -22t-22 -9t-22 9t-9 22t9 22t22 9 t22 -9t9 -22z" />
<glyph unicode="&#xc2;" d="M205 711q0 -13 -9 -22t-22 -9t-22 9t-9 22t9 22t22 9t22 -9t9 -22zM267 711q0 13 9 22t22 9t22 -9t9 -22t-9 -22t-22 -9t-22 9t-9 22zM205 773q0 13 9 22t22 9t22 -9t9 -22t-9 -22t-22 -9t-22 9t-9 22zM174 217q0 -13 -9 -22t-22 -9t-22 9t-9 22t9 22t22 9t22 -9t9 -22z M236 217q0 -13 -9 -22t-22 -9t-22 9t-9 22t9 22t22 9t22 -9t9 -22zM298 217q0 -13 -9 -22t-22 -9t-22 9t-9 22t9 22t22 9t22 -9t9 -22zM112 217q0 -13 -9 -22t-22 -9t-22 9t-9 22t9 22t22 9t22 -9t9 -22zM112 31q0 -13 -9 -22t-22 -9t-22 9t-9 22t9 22t22 9t22 -9t9 -22z M112 155q0 -13 -9 -22t-22 -9t-22 9t-9 22t9 22t22 9t22 -9t9 -22zM112 279q0 -13 -9 -22t-22 -9t-22 9t-9 22t9 22t22 9t22 -9t9 -22zM112 341q0 -13 -9 -22t-22 -9t-22 9t-9 22t9 22t22 9t22 -9t9 -22zM112 403q0 -13 -9 -22t-22 -9t-22 9t-9 22t9 22t22 9t22 -9t9 -22z M112 465q0 -13 -9 -22t-22 -9t-22 9t-9 22t9 22t22 9t22 -9t9 -22zM112 93q0 -13 -9 -22t-22 -9t-22 9t-9 22t9 22t22 9t22 -9t9 -22zM174 527q0 -13 -9 -22t-22 -9t-22 9t-9 22t9 22t22 9t22 -9t9 -22zM236 589q0 -13 -9 -22t-22 -9t-22 9t-9 22t9 22t22 9t22 -9t9 -22z M298 589q0 -13 -9 -22t-22 -9t-22 9t-9 22t9 22t22 9t22 -9t9 -22zM360 527q0 -13 -9 -22t-22 -9t-22 9t-9 22t9 22t22 9t22 -9t9 -22zM422 31q0 -13 -9 -22t-22 -9t-22 9t-9 22t9 22t22 9t22 -9t9 -22zM422 465q0 -13 -9 -22t-22 -9t-22 9t-9 22t9 22t22 9t22 -9t9 -22z M422 93q0 -13 -9 -22t-22 -9t-22 9t-9 22t9 22t22 9t22 -9t9 -22zM360 217q0 -13 -9 -22t-22 -9t-22 9t-9 22t9 22t22 9t22 -9t9 -22zM422 155q0 -13 -9 -22t-22 -9t-22 9t-9 22t9 22t22 9t22 -9t9 -22zM422 217q0 -13 -9 -22t-22 -9t-22 9t-9 22t9 22t22 9t22 -9t9 -22z M422 279q0 -13 -9 -22t-22 -9t-22 9t-9 22t9 22t22 9t22 -9t9 -22zM422 341q0 -13 -9 -22t-22 -9t-22 9t-9 22t9 22t22 9t22 -9t9 -22zM422 403q0 -13 -9 -22t-22 -9t-22 9t-9 22t9 22t22 9t22 -9t9 -22z" />
<glyph unicode="&#xc3;" d="M422 773q0 -13 -9 -22t-22 -9t-22 9t-9 22t9 22t22 9t22 -9t9 -22zM112 711q0 -13 -9 -22t-22 -9t-22 9t-9 22t9 22t22 9t22 -9t9 -22zM174 773q0 -13 -9 -22t-22 -9t-22 9t-9 22t9 22t22 9t22 -9t9 -22zM236 773q0 -13 -9 -22t-22 -9t-22 9t-9 22t9 22t22 9t22 -9t9 -22 zM298 711q0 -13 -9 -22t-22 -9t-22 9t-9 22t9 22t22 9t22 -9t9 -22zM360 711q0 -13 -9 -22t-22 -9t-22 9t-9 22t9 22t22 9t22 -9t9 -22zM174 217q0 -13 -9 -22t-22 -9t-22 9t-9 22t9 22t22 9t22 -9t9 -22zM236 217q0 -13 -9 -22t-22 -9t-22 9t-9 22t9 22t22 9t22 -9t9 -22z M298 217q0 -13 -9 -22t-22 -9t-22 9t-9 22t9 22t22 9t22 -9t9 -22zM112 217q0 -13 -9 -22t-22 -9t-22 9t-9 22t9 22t22 9t22 -9t9 -22zM112 31q0 -13 -9 -22t-22 -9t-22 9t-9 22t9 22t22 9t22 -9t9 -22zM112 155q0 -13 -9 -22t-22 -9t-22 9t-9 22t9 22t22 9t22 -9t9 -22z M112 279q0 -13 -9 -22t-22 -9t-22 9t-9 22t9 22t22 9t22 -9t9 -22zM112 341q0 -13 -9 -22t-22 -9t-22 9t-9 22t9 22t22 9t22 -9t9 -22zM112 403q0 -13 -9 -22t-22 -9t-22 9t-9 22t9 22t22 9t22 -9t9 -22zM112 465q0 -13 -9 -22t-22 -9t-22 9t-9 22t9 22t22 9t22 -9t9 -22z M112 93q0 -13 -9 -22t-22 -9t-22 9t-9 22t9 22t22 9t22 -9t9 -22zM174 527q0 -13 -9 -22t-22 -9t-22 9t-9 22t9 22t22 9t22 -9t9 -22zM236 589q0 -13 -9 -22t-22 -9t-22 9t-9 22t9 22t22 9t22 -9t9 -22zM298 589q0 -13 -9 -22t-22 -9t-22 9t-9 22t9 22t22 9t22 -9t9 -22z M360 527q0 -13 -9 -22t-22 -9t-22 9t-9 22t9 22t22 9t22 -9t9 -22zM422 31q0 -13 -9 -22t-22 -9t-22 9t-9 22t9 22t22 9t22 -9t9 -22zM422 465q0 -13 -9 -22t-22 -9t-22 9t-9 22t9 22t22 9t22 -9t9 -22zM422 93q0 -13 -9 -22t-22 -9t-22 9t-9 22t9 22t22 9t22 -9t9 -22z M360 217q0 -13 -9 -22t-22 -9t-22 9t-9 22t9 22t22 9t22 -9t9 -22zM422 155q0 -13 -9 -22t-22 -9t-22 9t-9 22t9 22t22 9t22 -9t9 -22zM422 217q0 -13 -9 -22t-22 -9t-22 9t-9 22t9 22t22 9t22 -9t9 -22zM422 279q0 -13 -9 -22t-22 -9t-22 9t-9 22t9 22t22 9t22 -9t9 -22z M422 341q0 -13 -9 -22t-22 -9t-22 9t-9 22t9 22t22 9t22 -9t9 -22zM422 403q0 -13 -9 -22t-22 -9t-22 9t-9 22t9 22t22 9t22 -9t9 -22z" />
<glyph unicode="&#xc5;" d="M205 630q0 -13 -9 -22t-22 -9t-22 9t-9 22t9 22t22 9t22 -9t9 -22zM267 630q0 -13 -9 -22t-22 -9t-22 9t-9 22t9 22t22 9t22 -9t9 -22zM329 630q0 -13 -9 -22t-22 -9t-22 9t-9 22t9 22t22 9t22 -9t9 -22zM143 630q0 -13 -9 -22t-22 -9t-22 9t-9 22t9 22t22 9t22 -9t9 -22 zM205 1188q0 -13 -9 -22t-22 -9t-22 9t-9 22t9 22t22 9t22 -9t9 -22zM267 1188q0 -13 -9 -22t-22 -9t-22 9t-9 22t9 22t22 9t22 -9t9 -22zM329 1188q0 -13 -9 -22t-22 -9t-22 9t-9 22t9 22t22 9t22 -9t9 -22zM143 1188q0 -13 -9 -22t-22 -9t-22 9t-9 22t9 22t22 9t22 -9 t9 -22zM81 754q0 -13 -9 -22t-22 -9t-22 9t-9 22t9 22t22 9t22 -9t9 -22zM81 816q0 -13 -9 -22t-22 -9t-22 9t-9 22t9 22t22 9t22 -9t9 -22zM81 878q0 -13 -9 -22t-22 -9t-22 9t-9 22t9 22t22 9t22 -9t9 -22zM81 940q0 -13 -9 -22t-22 -9t-22 9t-9 22t9 22t22 9t22 -9t9 -22 zM81 1002q0 -13 -9 -22t-22 -9t-22 9t-9 22t9 22t22 9t22 -9t9 -22zM81 1064q0 -13 -9 -22t-22 -9t-22 9t-9 22t9 22t22 9t22 -9t9 -22zM81 1126q0 -13 -9 -22t-22 -9t-22 9t-9 22t9 22t22 9t22 -9t9 -22zM81 692q0 -13 -9 -22t-22 -9t-22 9t-9 22t9 22t22 9t22 -9t9 -22z M391 630q0 -13 -9 -22t-22 -9t-22 9t-9 22t9 22t22 9t22 -9t9 -22zM391 1188q0 -13 -9 -22t-22 -9t-22 9t-9 22t9 22t22 9t22 -9t9 -22zM453 754q0 -13 -9 -22t-22 -9t-22 9t-9 22t9 22t22 9t22 -9t9 -22zM453 816q0 -13 -9 -22t-22 -9t-22 9t-9 22t9 22t22 9t22 -9t9 -22z M453 878q0 -13 -9 -22t-22 -9t-22 9t-9 22t9 22t22 9t22 -9t9 -22zM453 940q0 -13 -9 -22t-22 -9t-22 9t-9 22t9 22t22 9t22 -9t9 -22zM453 1002q0 -13 -9 -22t-22 -9t-22 9t-9 22t9 22t22 9t22 -9t9 -22zM453 1064q0 -13 -9 -22t-22 -9t-22 9t-9 22t9 22t22 9t22 -9t9 -22z M453 1126q0 -13 -9 -22t-22 -9t-22 9t-9 22t9 22t22 9t22 -9t9 -22zM453 692q0 -13 -9 -22t-22 -9t-22 9t-9 22t9 22t22 9t22 -9t9 -22zM174 217q0 -13 -9 -22t-22 -9t-22 9t-9 22t9 22t22 9t22 -9t9 -22zM236 217q0 -13 -9 -22t-22 -9t-22 9t-9 22t9 22t22 9t22 -9t9 -22z M298 217q0 -13 -9 -22t-22 -9t-22 9t-9 22t9 22t22 9t22 -9t9 -22zM112 217q0 -13 -9 -22t-22 -9t-22 9t-9 22t9 22t22 9t22 -9t9 -22zM112 31q0 -13 -9 -22t-22 -9t-22 9t-9 22t9 22t22 9t22 -9t9 -22zM112 155q0 -13 -9 -22t-22 -9t-22 9t-9 22t9 22t22 9t22 -9t9 -22z M112 279q0 -13 -9 -22t-22 -9t-22 9t-9 22t9 22t22 9t22 -9t9 -22zM112 341q0 -13 -9 -22t-22 -9t-22 9t-9 22t9 22t22 9t22 -9t9 -22zM112 403q0 -13 -9 -22t-22 -9t-22 9t-9 22t9 22t22 9t22 -9t9 -22zM112 465q0 -13 -9 -22t-22 -9t-22 9t-9 22t9 22t22 9t22 -9t9 -22z M112 93q0 -13 -9 -22t-22 -9t-22 9t-9 22t9 22t22 9t22 -9t9 -22zM174 527q0 -13 -9 -22t-22 -9t-22 9t-9 22t9 22t22 9t22 -9t9 -22zM236 589q0 -13 -9 -22t-22 -9t-22 9t-9 22t9 22t22 9t22 -9t9 -22zM298 589q0 -13 -9 -22t-22 -9t-22 9t-9 22t9 22t22 9t22 -9t9 -22z M360 527q0 -13 -9 -22t-22 -9t-22 9t-9 22t9 22t22 9t22 -9t9 -22zM422 31q0 -13 -9 -22t-22 -9t-22 9t-9 22t9 22t22 9t22 -9t9 -22zM422 465q0 -13 -9 -22t-22 -9t-22 9t-9 22t9 22t22 9t22 -9t9 -22zM422 93q0 -13 -9 -22t-22 -9t-22 9t-9 22t9 22t22 9t22 -9t9 -22z M360 217q0 -13 -9 -22t-22 -9t-22 9t-9 22t9 22t22 9t22 -9t9 -22zM422 155q0 -13 -9 -22t-22 -9t-22 9t-9 22t9 22t22 9t22 -9t9 -22zM422 217q0 -13 -9 -22t-22 -9t-22 9t-9 22t9 22t22 9t22 -9t9 -22zM422 279q0 -13 -9 -22t-22 -9t-22 9t-9 22t9 22t22 9t22 -9t9 -22z M422 341q0 -13 -9 -22t-22 -9t-22 9t-9 22t9 22t22 9t22 -9t9 -22zM422 403q0 -13 -9 -22t-22 -9t-22 9t-9 22t9 22t22 9t22 -9t9 -22z" />
<glyph unicode="&#xc8;" horiz-adv-x="390" d="M203 830q0 -17 -12.5 -29.5t-29.5 -12.5t-29.5 12.5t-12.5 29.5t12.5 29t29.5 12t29.5 -12t12.5 -29zM161 753q0 13 9 22t22 9t22 -9t9 -22t-9 -22t-22 -9t-22 9t-9 22zM196 699q0 7 5.5 12.5t13.5 5.5t13.5 -5.5t5.5 -12.5q0 -8 -5.5 -13.5t-13.5 -5.5t-13.5 5.5 t-5.5 13.5zM184 31q0 -13 -9 -22t-22 -9t-22 9t-9 22t9 22t22 9t22 -9t9 -22zM246 31q0 -13 -9 -22t-22 -9t-22 9t-9 22t9 22t22 9t22 -9t9 -22zM308 31q0 -13 -9 -22t-22 -9t-22 9t-9 22t9 22t22 9t22 -9t9 -22zM122 31q0 -13 -9 -22t-22 -9t-22 9t-9 22t9 22t22 9t22 -9 t9 -22zM184 589q0 -13 -9 -22t-22 -9t-22 9t-9 22t9 22t22 9t22 -9t9 -22zM246 589q0 -13 -9 -22t-22 -9t-22 9t-9 22t9 22t22 9t22 -9t9 -22zM308 589q0 -13 -9 -22t-22 -9t-22 9t-9 22t9 22t22 9t22 -9t9 -22zM122 589q0 -13 -9 -22t-22 -9t-22 9t-9 22t9 22t22 9t22 -9 t9 -22zM184 341q0 -13 -9 -22t-22 -9t-22 9t-9 22t9 22t22 9t22 -9t9 -22zM246 341q0 -13 -9 -22t-22 -9t-22 9t-9 22t9 22t22 9t22 -9t9 -22zM308 341q0 -13 -9 -22t-22 -9t-22 9t-9 22t9 22t22 9t22 -9t9 -22zM122 341q0 -13 -9 -22t-22 -9t-22 9t-9 22t9 22t22 9t22 -9 t9 -22zM122 155q0 -13 -9 -22t-22 -9t-22 9t-9 22t9 22t22 9t22 -9t9 -22zM122 217q0 -13 -9 -22t-22 -9t-22 9t-9 22t9 22t22 9t22 -9t9 -22zM122 279q0 -13 -9 -22t-22 -9t-22 9t-9 22t9 22t22 9t22 -9t9 -22zM122 403q0 -13 -9 -22t-22 -9t-22 9t-9 22t9 22t22 9t22 -9 t9 -22zM122 465q0 -13 -9 -22t-22 -9t-22 9t-9 22t9 22t22 9t22 -9t9 -22zM122 527q0 -13 -9 -22t-22 -9t-22 9t-9 22t9 22t22 9t22 -9t9 -22zM122 93q0 -13 -9 -22t-22 -9t-22 9t-9 22t9 22t22 9t22 -9t9 -22zM370 31q0 -13 -9 -22t-22 -9t-22 9t-9 22t9 22t22 9t22 -9 t9 -22zM370 589q0 -13 -9 -22t-22 -9t-22 9t-9 22t9 22t22 9t22 -9t9 -22z" />
<glyph unicode="&#xca;" horiz-adv-x="390" d="M184 711q0 -13 -9 -22t-22 -9t-22 9t-9 22t9 22t22 9t22 -9t9 -22zM246 711q0 13 9 22t22 9t22 -9t9 -22t-9 -22t-22 -9t-22 9t-9 22zM184 773q0 13 9 22t22 9t22 -9t9 -22t-9 -22t-22 -9t-22 9t-9 22zM184 31q0 -13 -9 -22t-22 -9t-22 9t-9 22t9 22t22 9t22 -9t9 -22z M246 31q0 -13 -9 -22t-22 -9t-22 9t-9 22t9 22t22 9t22 -9t9 -22zM308 31q0 -13 -9 -22t-22 -9t-22 9t-9 22t9 22t22 9t22 -9t9 -22zM122 31q0 -13 -9 -22t-22 -9t-22 9t-9 22t9 22t22 9t22 -9t9 -22zM184 589q0 -13 -9 -22t-22 -9t-22 9t-9 22t9 22t22 9t22 -9t9 -22z M246 589q0 -13 -9 -22t-22 -9t-22 9t-9 22t9 22t22 9t22 -9t9 -22zM308 589q0 -13 -9 -22t-22 -9t-22 9t-9 22t9 22t22 9t22 -9t9 -22zM122 589q0 -13 -9 -22t-22 -9t-22 9t-9 22t9 22t22 9t22 -9t9 -22zM184 341q0 -13 -9 -22t-22 -9t-22 9t-9 22t9 22t22 9t22 -9t9 -22z M246 341q0 -13 -9 -22t-22 -9t-22 9t-9 22t9 22t22 9t22 -9t9 -22zM308 341q0 -13 -9 -22t-22 -9t-22 9t-9 22t9 22t22 9t22 -9t9 -22zM122 341q0 -13 -9 -22t-22 -9t-22 9t-9 22t9 22t22 9t22 -9t9 -22zM122 155q0 -13 -9 -22t-22 -9t-22 9t-9 22t9 22t22 9t22 -9t9 -22z M122 217q0 -13 -9 -22t-22 -9t-22 9t-9 22t9 22t22 9t22 -9t9 -22zM122 279q0 -13 -9 -22t-22 -9t-22 9t-9 22t9 22t22 9t22 -9t9 -22zM122 403q0 -13 -9 -22t-22 -9t-22 9t-9 22t9 22t22 9t22 -9t9 -22zM122 465q0 -13 -9 -22t-22 -9t-22 9t-9 22t9 22t22 9t22 -9t9 -22z M122 527q0 -13 -9 -22t-22 -9t-22 9t-9 22t9 22t22 9t22 -9t9 -22zM122 93q0 -13 -9 -22t-22 -9t-22 9t-9 22t9 22t22 9t22 -9t9 -22zM370 31q0 -13 -9 -22t-22 -9t-22 9t-9 22t9 22t22 9t22 -9t9 -22zM370 589q0 -13 -9 -22t-22 -9t-22 9t-9 22t9 22t22 9t22 -9t9 -22z" />
<glyph unicode="&#xcc;" horiz-adv-x="266" d="M121 830q0 -17 -12.5 -29.5t-29.5 -12.5t-29.5 12.5t-12.5 29.5t12.5 29t29.5 12t29.5 -12t12.5 -29zM79 753q0 13 9 22t22 9t22 -9t9 -22t-9 -22t-22 -9t-22 9t-9 22zM114 699q0 7 5.5 12.5t13.5 5.5t13.5 -5.5t5.5 -12.5q0 -8 -5.5 -13.5t-13.5 -5.5t-13.5 5.5 t-5.5 13.5zM164 31q0 -13 -9 -22t-22 -9t-22 9t-9 22t9 22t22 9t22 -9t9 -22zM164 155q0 -13 -9 -22t-22 -9t-22 9t-9 22t9 22t22 9t22 -9t9 -22zM164 217q0 -13 -9 -22t-22 -9t-22 9t-9 22t9 22t22 9t22 -9t9 -22zM164 279q0 -13 -9 -22t-22 -9t-22 9t-9 22t9 22t22 9 t22 -9t9 -22zM164 341q0 -13 -9 -22t-22 -9t-22 9t-9 22t9 22t22 9t22 -9t9 -22zM164 403q0 -13 -9 -22t-22 -9t-22 9t-9 22t9 22t22 9t22 -9t9 -22zM164 465q0 -13 -9 -22t-22 -9t-22 9t-9 22t9 22t22 9t22 -9t9 -22zM164 527q0 -13 -9 -22t-22 -9t-22 9t-9 22t9 22t22 9 t22 -9t9 -22zM164 589q0 -13 -9 -22t-22 -9t-22 9t-9 22t9 22t22 9t22 -9t9 -22zM164 93q0 -13 -9 -22t-22 -9t-22 9t-9 22t9 22t22 9t22 -9t9 -22zM226 31q0 -13 -9 -22t-22 -9t-22 9t-9 22t9 22t22 9t22 -9t9 -22zM226 589q0 -13 -9 -22t-22 -9t-22 9t-9 22t9 22t22 9 t22 -9t9 -22zM102 31q0 -13 -9 -22t-22 -9t-22 9t-9 22t9 22t22 9t22 -9t9 -22zM102 589q0 -13 -9 -22t-22 -9t-22 9t-9 22t9 22t22 9t22 -9t9 -22z" />
<glyph unicode="&#xce;" horiz-adv-x="266" d="M102 711q0 -13 -9 -22t-22 -9t-22 9t-9 22t9 22t22 9t22 -9t9 -22zM164 711q0 13 9 22t22 9t22 -9t9 -22t-9 -22t-22 -9t-22 9t-9 22zM102 773q0 13 9 22t22 9t22 -9t9 -22t-9 -22t-22 -9t-22 9t-9 22zM164 31q0 -13 -9 -22t-22 -9t-22 9t-9 22t9 22t22 9t22 -9t9 -22z M164 155q0 -13 -9 -22t-22 -9t-22 9t-9 22t9 22t22 9t22 -9t9 -22zM164 217q0 -13 -9 -22t-22 -9t-22 9t-9 22t9 22t22 9t22 -9t9 -22zM164 279q0 -13 -9 -22t-22 -9t-22 9t-9 22t9 22t22 9t22 -9t9 -22zM164 341q0 -13 -9 -22t-22 -9t-22 9t-9 22t9 22t22 9t22 -9t9 -22z M164 403q0 -13 -9 -22t-22 -9t-22 9t-9 22t9 22t22 9t22 -9t9 -22zM164 465q0 -13 -9 -22t-22 -9t-22 9t-9 22t9 22t22 9t22 -9t9 -22zM164 527q0 -13 -9 -22t-22 -9t-22 9t-9 22t9 22t22 9t22 -9t9 -22zM164 589q0 -13 -9 -22t-22 -9t-22 9t-9 22t9 22t22 9t22 -9t9 -22z M164 93q0 -13 -9 -22t-22 -9t-22 9t-9 22t9 22t22 9t22 -9t9 -22zM226 31q0 -13 -9 -22t-22 -9t-22 9t-9 22t9 22t22 9t22 -9t9 -22zM226 589q0 -13 -9 -22t-22 -9t-22 9t-9 22t9 22t22 9t22 -9t9 -22zM102 31q0 -13 -9 -22t-22 -9t-22 9t-9 22t9 22t22 9t22 -9t9 -22z M102 589q0 -13 -9 -22t-22 -9t-22 9t-9 22t9 22t22 9t22 -9t9 -22z" />
<glyph unicode="&#xd1;" horiz-adv-x="492" d="M432 773q0 -13 -9 -22t-22 -9t-22 9t-9 22t9 22t22 9t22 -9t9 -22zM122 711q0 -13 -9 -22t-22 -9t-22 9t-9 22t9 22t22 9t22 -9t9 -22zM184 773q0 -13 -9 -22t-22 -9t-22 9t-9 22t9 22t22 9t22 -9t9 -22zM246 773q0 -13 -9 -22t-22 -9t-22 9t-9 22t9 22t22 9t22 -9t9 -22 zM308 711q0 -13 -9 -22t-22 -9t-22 9t-9 22t9 22t22 9t22 -9t9 -22zM370 711q0 -13 -9 -22t-22 -9t-22 9t-9 22t9 22t22 9t22 -9t9 -22zM122 403q0 -13 -9 -22t-22 -9t-22 9t-9 22t9 22t22 9t22 -9t9 -22zM184 403q0 13 9 22t22 9t22 -9t9 -22t-9 -22t-22 -9t-22 9t-9 22z M122 465q0 13 9 22t22 9t22 -9t9 -22t-9 -22t-22 -9t-22 9t-9 22zM432 31q0 -13 -9 -22t-22 -9t-22 9t-9 22t9 22t22 9t22 -9t9 -22zM432 465q0 -13 -9 -22t-22 -9t-22 9t-9 22t9 22t22 9t22 -9t9 -22zM432 527q0 -13 -9 -22t-22 -9t-22 9t-9 22t9 22t22 9t22 -9t9 -22z M432 589q0 -13 -9 -22t-22 -9t-22 9t-9 22t9 22t22 9t22 -9t9 -22zM432 93q0 -13 -9 -22t-22 -9t-22 9t-9 22t9 22t22 9t22 -9t9 -22zM432 155q0 -13 -9 -22t-22 -9t-22 9t-9 22t9 22t22 9t22 -9t9 -22zM432 217q0 -13 -9 -22t-22 -9t-22 9t-9 22t9 22t22 9t22 -9t9 -22z M432 279q0 -13 -9 -22t-22 -9t-22 9t-9 22t9 22t22 9t22 -9t9 -22zM432 341q0 -13 -9 -22t-22 -9t-22 9t-9 22t9 22t22 9t22 -9t9 -22zM432 403q0 -13 -9 -22t-22 -9t-22 9t-9 22t9 22t22 9t22 -9t9 -22zM122 31q0 -13 -9 -22t-22 -9t-22 9t-9 22t9 22t22 9t22 -9t9 -22z M122 155q0 -13 -9 -22t-22 -9t-22 9t-9 22t9 22t22 9t22 -9t9 -22zM122 217q0 -13 -9 -22t-22 -9t-22 9t-9 22t9 22t22 9t22 -9t9 -22zM122 279q0 -13 -9 -22t-22 -9t-22 9t-9 22t9 22t22 9t22 -9t9 -22zM122 341q0 -13 -9 -22t-22 -9t-22 9t-9 22t9 22t22 9t22 -9t9 -22z M122 465q0 -13 -9 -22t-22 -9t-22 9t-9 22t9 22t22 9t22 -9t9 -22zM122 527q0 -13 -9 -22t-22 -9t-22 9t-9 22t9 22t22 9t22 -9t9 -22zM122 589q0 -13 -9 -22t-22 -9t-22 9t-9 22t9 22t22 9t22 -9t9 -22zM122 93q0 -13 -9 -22t-22 -9t-22 9t-9 22t9 22t22 9t22 -9t9 -22z M246 341q0 -13 -9 -22t-22 -9t-22 9t-9 22t9 22t22 9t22 -9t9 -22zM308 217q0 -13 -9 -22t-22 -9t-22 9t-9 22t9 22t22 9t22 -9t9 -22zM308 279q0 -13 -9 -22t-22 -9t-22 9t-9 22t9 22t22 9t22 -9t9 -22zM370 155q0 -13 -9 -22t-22 -9t-22 9t-9 22t9 22t22 9t22 -9t9 -22z " />
<glyph unicode="&#xd2;" horiz-adv-x="492" d="M234 830q0 -17 -12.5 -29.5t-29.5 -12.5t-29.5 12.5t-12.5 29.5t12.5 29t29.5 12t29.5 -12t12.5 -29zM192 753q0 13 9 22t22 9t22 -9t9 -22t-9 -22t-22 -9t-22 9t-9 22zM227 699q0 7 5.5 12.5t13.5 5.5t13.5 -5.5t5.5 -12.5q0 -8 -5.5 -13.5t-13.5 -5.5t-13.5 5.5 t-5.5 13.5zM246 31q0 -13 -9 -22t-22 -9t-22 9t-9 22t9 22t22 9t22 -9t9 -22zM308 31q0 -13 -9 -22t-22 -9t-22 9t-9 22t9 22t22 9t22 -9t9 -22zM370 31q0 -13 -9 -22t-22 -9t-22 9t-9 22t9 22t22 9t22 -9t9 -22zM184 31q0 -13 -9 -22t-22 -9t-22 9t-9 22t9 22t22 9t22 -9 t9 -22zM246 589q0 -13 -9 -22t-22 -9t-22 9t-9 22t9 22t22 9t22 -9t9 -22zM308 589q0 -13 -9 -22t-22 -9t-22 9t-9 22t9 22t22 9t22 -9t9 -22zM370 589q0 -13 -9 -22t-22 -9t-22 9t-9 22t9 22t22 9t22 -9t9 -22zM184 589q0 -13 -9 -22t-22 -9t-22 9t-9 22t9 22t22 9t22 -9 t9 -22zM122 155q0 -13 -9 -22t-22 -9t-22 9t-9 22t9 22t22 9t22 -9t9 -22zM122 217q0 -13 -9 -22t-22 -9t-22 9t-9 22t9 22t22 9t22 -9t9 -22zM122 279q0 -13 -9 -22t-22 -9t-22 9t-9 22t9 22t22 9t22 -9t9 -22zM122 341q0 -13 -9 -22t-22 -9t-22 9t-9 22t9 22t22 9t22 -9 t9 -22zM122 403q0 -13 -9 -22t-22 -9t-22 9t-9 22t9 22t22 9t22 -9t9 -22zM122 465q0 -13 -9 -22t-22 -9t-22 9t-9 22t9 22t22 9t22 -9t9 -22zM122 527q0 -13 -9 -22t-22 -9t-22 9t-9 22t9 22t22 9t22 -9t9 -22zM122 93q0 -13 -9 -22t-22 -9t-22 9t-9 22t9 22t22 9t22 -9 t9 -22zM432 155q0 -13 -9 -22t-22 -9t-22 9t-9 22t9 22t22 9t22 -9t9 -22zM432 217q0 -13 -9 -22t-22 -9t-22 9t-9 22t9 22t22 9t22 -9t9 -22zM432 279q0 -13 -9 -22t-22 -9t-22 9t-9 22t9 22t22 9t22 -9t9 -22zM432 341q0 -13 -9 -22t-22 -9t-22 9t-9 22t9 22t22 9t22 -9 t9 -22zM432 403q0 -13 -9 -22t-22 -9t-22 9t-9 22t9 22t22 9t22 -9t9 -22zM432 465q0 -13 -9 -22t-22 -9t-22 9t-9 22t9 22t22 9t22 -9t9 -22zM432 527q0 -13 -9 -22t-22 -9t-22 9t-9 22t9 22t22 9t22 -9t9 -22zM432 93q0 -13 -9 -22t-22 -9t-22 9t-9 22t9 22t22 9t22 -9 t9 -22z" />
<glyph unicode="&#xd4;" horiz-adv-x="492" d="M215 711q0 -13 -9 -22t-22 -9t-22 9t-9 22t9 22t22 9t22 -9t9 -22zM277 711q0 13 9 22t22 9t22 -9t9 -22t-9 -22t-22 -9t-22 9t-9 22zM215 773q0 13 9 22t22 9t22 -9t9 -22t-9 -22t-22 -9t-22 9t-9 22zM246 31q0 -13 -9 -22t-22 -9t-22 9t-9 22t9 22t22 9t22 -9t9 -22z M308 31q0 -13 -9 -22t-22 -9t-22 9t-9 22t9 22t22 9t22 -9t9 -22zM370 31q0 -13 -9 -22t-22 -9t-22 9t-9 22t9 22t22 9t22 -9t9 -22zM184 31q0 -13 -9 -22t-22 -9t-22 9t-9 22t9 22t22 9t22 -9t9 -22zM246 589q0 -13 -9 -22t-22 -9t-22 9t-9 22t9 22t22 9t22 -9t9 -22z M308 589q0 -13 -9 -22t-22 -9t-22 9t-9 22t9 22t22 9t22 -9t9 -22zM370 589q0 -13 -9 -22t-22 -9t-22 9t-9 22t9 22t22 9t22 -9t9 -22zM184 589q0 -13 -9 -22t-22 -9t-22 9t-9 22t9 22t22 9t22 -9t9 -22zM122 155q0 -13 -9 -22t-22 -9t-22 9t-9 22t9 22t22 9t22 -9t9 -22z M122 217q0 -13 -9 -22t-22 -9t-22 9t-9 22t9 22t22 9t22 -9t9 -22zM122 279q0 -13 -9 -22t-22 -9t-22 9t-9 22t9 22t22 9t22 -9t9 -22zM122 341q0 -13 -9 -22t-22 -9t-22 9t-9 22t9 22t22 9t22 -9t9 -22zM122 403q0 -13 -9 -22t-22 -9t-22 9t-9 22t9 22t22 9t22 -9t9 -22z M122 465q0 -13 -9 -22t-22 -9t-22 9t-9 22t9 22t22 9t22 -9t9 -22zM122 527q0 -13 -9 -22t-22 -9t-22 9t-9 22t9 22t22 9t22 -9t9 -22zM122 93q0 -13 -9 -22t-22 -9t-22 9t-9 22t9 22t22 9t22 -9t9 -22zM432 155q0 -13 -9 -22t-22 -9t-22 9t-9 22t9 22t22 9t22 -9t9 -22z M432 217q0 -13 -9 -22t-22 -9t-22 9t-9 22t9 22t22 9t22 -9t9 -22zM432 279q0 -13 -9 -22t-22 -9t-22 9t-9 22t9 22t22 9t22 -9t9 -22zM432 341q0 -13 -9 -22t-22 -9t-22 9t-9 22t9 22t22 9t22 -9t9 -22zM432 403q0 -13 -9 -22t-22 -9t-22 9t-9 22t9 22t22 9t22 -9t9 -22z M432 465q0 -13 -9 -22t-22 -9t-22 9t-9 22t9 22t22 9t22 -9t9 -22zM432 527q0 -13 -9 -22t-22 -9t-22 9t-9 22t9 22t22 9t22 -9t9 -22zM432 93q0 -13 -9 -22t-22 -9t-22 9t-9 22t9 22t22 9t22 -9t9 -22z" />
<glyph unicode="&#xd5;" horiz-adv-x="492" d="M432 773q0 -13 -9 -22t-22 -9t-22 9t-9 22t9 22t22 9t22 -9t9 -22zM122 711q0 -13 -9 -22t-22 -9t-22 9t-9 22t9 22t22 9t22 -9t9 -22zM184 773q0 -13 -9 -22t-22 -9t-22 9t-9 22t9 22t22 9t22 -9t9 -22zM246 773q0 -13 -9 -22t-22 -9t-22 9t-9 22t9 22t22 9t22 -9t9 -22 zM308 711q0 -13 -9 -22t-22 -9t-22 9t-9 22t9 22t22 9t22 -9t9 -22zM370 711q0 -13 -9 -22t-22 -9t-22 9t-9 22t9 22t22 9t22 -9t9 -22zM246 31q0 -13 -9 -22t-22 -9t-22 9t-9 22t9 22t22 9t22 -9t9 -22zM308 31q0 -13 -9 -22t-22 -9t-22 9t-9 22t9 22t22 9t22 -9t9 -22z M370 31q0 -13 -9 -22t-22 -9t-22 9t-9 22t9 22t22 9t22 -9t9 -22zM184 31q0 -13 -9 -22t-22 -9t-22 9t-9 22t9 22t22 9t22 -9t9 -22zM246 589q0 -13 -9 -22t-22 -9t-22 9t-9 22t9 22t22 9t22 -9t9 -22zM308 589q0 -13 -9 -22t-22 -9t-22 9t-9 22t9 22t22 9t22 -9t9 -22z M370 589q0 -13 -9 -22t-22 -9t-22 9t-9 22t9 22t22 9t22 -9t9 -22zM184 589q0 -13 -9 -22t-22 -9t-22 9t-9 22t9 22t22 9t22 -9t9 -22zM122 155q0 -13 -9 -22t-22 -9t-22 9t-9 22t9 22t22 9t22 -9t9 -22zM122 217q0 -13 -9 -22t-22 -9t-22 9t-9 22t9 22t22 9t22 -9t9 -22z M122 279q0 -13 -9 -22t-22 -9t-22 9t-9 22t9 22t22 9t22 -9t9 -22zM122 341q0 -13 -9 -22t-22 -9t-22 9t-9 22t9 22t22 9t22 -9t9 -22zM122 403q0 -13 -9 -22t-22 -9t-22 9t-9 22t9 22t22 9t22 -9t9 -22zM122 465q0 -13 -9 -22t-22 -9t-22 9t-9 22t9 22t22 9t22 -9t9 -22z M122 527q0 -13 -9 -22t-22 -9t-22 9t-9 22t9 22t22 9t22 -9t9 -22zM122 93q0 -13 -9 -22t-22 -9t-22 9t-9 22t9 22t22 9t22 -9t9 -22zM432 155q0 -13 -9 -22t-22 -9t-22 9t-9 22t9 22t22 9t22 -9t9 -22zM432 217q0 -13 -9 -22t-22 -9t-22 9t-9 22t9 22t22 9t22 -9t9 -22z M432 279q0 -13 -9 -22t-22 -9t-22 9t-9 22t9 22t22 9t22 -9t9 -22zM432 341q0 -13 -9 -22t-22 -9t-22 9t-9 22t9 22t22 9t22 -9t9 -22zM432 403q0 -13 -9 -22t-22 -9t-22 9t-9 22t9 22t22 9t22 -9t9 -22zM432 465q0 -13 -9 -22t-22 -9t-22 9t-9 22t9 22t22 9t22 -9t9 -22z M432 527q0 -13 -9 -22t-22 -9t-22 9t-9 22t9 22t22 9t22 -9t9 -22zM432 93q0 -13 -9 -22t-22 -9t-22 9t-9 22t9 22t22 9t22 -9t9 -22z" />
<glyph unicode="&#xd9;" horiz-adv-x="492" d="M234 830q0 -17 -12.5 -29.5t-29.5 -12.5t-29.5 12.5t-12.5 29.5t12.5 29t29.5 12t29.5 -12t12.5 -29zM192 753q0 13 9 22t22 9t22 -9t9 -22t-9 -22t-22 -9t-22 9t-9 22zM227 699q0 7 5.5 12.5t13.5 5.5t13.5 -5.5t5.5 -12.5q0 -8 -5.5 -13.5t-13.5 -5.5t-13.5 5.5 t-5.5 13.5zM246 31q0 -13 -9 -22t-22 -9t-22 9t-9 22t9 22t22 9t22 -9t9 -22zM308 31q0 -13 -9 -22t-22 -9t-22 9t-9 22t9 22t22 9t22 -9t9 -22zM370 31q0 -13 -9 -22t-22 -9t-22 9t-9 22t9 22t22 9t22 -9t9 -22zM184 31q0 -13 -9 -22t-22 -9t-22 9t-9 22t9 22t22 9t22 -9 t9 -22zM122 155q0 -13 -9 -22t-22 -9t-22 9t-9 22t9 22t22 9t22 -9t9 -22zM122 217q0 -13 -9 -22t-22 -9t-22 9t-9 22t9 22t22 9t22 -9t9 -22zM122 279q0 -13 -9 -22t-22 -9t-22 9t-9 22t9 22t22 9t22 -9t9 -22zM122 341q0 -13 -9 -22t-22 -9t-22 9t-9 22t9 22t22 9t22 -9 t9 -22zM122 403q0 -13 -9 -22t-22 -9t-22 9t-9 22t9 22t22 9t22 -9t9 -22zM122 465q0 -13 -9 -22t-22 -9t-22 9t-9 22t9 22t22 9t22 -9t9 -22zM122 527q0 -13 -9 -22t-22 -9t-22 9t-9 22t9 22t22 9t22 -9t9 -22zM122 93q0 -13 -9 -22t-22 -9t-22 9t-9 22t9 22t22 9t22 -9 t9 -22zM432 465q0 -13 -9 -22t-22 -9t-22 9t-9 22t9 22t22 9t22 -9t9 -22zM432 527q0 -13 -9 -22t-22 -9t-22 9t-9 22t9 22t22 9t22 -9t9 -22zM432 93q0 -13 -9 -22t-22 -9t-22 9t-9 22t9 22t22 9t22 -9t9 -22zM432 155q0 -13 -9 -22t-22 -9t-22 9t-9 22t9 22t22 9t22 -9 t9 -22zM432 217q0 -13 -9 -22t-22 -9t-22 9t-9 22t9 22t22 9t22 -9t9 -22zM432 279q0 -13 -9 -22t-22 -9t-22 9t-9 22t9 22t22 9t22 -9t9 -22zM432 341q0 -13 -9 -22t-22 -9t-22 9t-9 22t9 22t22 9t22 -9t9 -22zM432 403q0 -13 -9 -22t-22 -9t-22 9t-9 22t9 22t22 9t22 -9 t9 -22zM122 589q0 -13 -9 -22t-22 -9t-22 9t-9 22t9 22t22 9t22 -9t9 -22zM432 589q0 -13 -9 -22t-22 -9t-22 9t-9 22t9 22t22 9t22 -9t9 -22z" />
<glyph unicode="&#xdb;" horiz-adv-x="492" d="M215 711q0 -13 -9 -22t-22 -9t-22 9t-9 22t9 22t22 9t22 -9t9 -22zM277 711q0 13 9 22t22 9t22 -9t9 -22t-9 -22t-22 -9t-22 9t-9 22zM215 773q0 13 9 22t22 9t22 -9t9 -22t-9 -22t-22 -9t-22 9t-9 22zM246 31q0 -13 -9 -22t-22 -9t-22 9t-9 22t9 22t22 9t22 -9t9 -22z M308 31q0 -13 -9 -22t-22 -9t-22 9t-9 22t9 22t22 9t22 -9t9 -22zM370 31q0 -13 -9 -22t-22 -9t-22 9t-9 22t9 22t22 9t22 -9t9 -22zM184 31q0 -13 -9 -22t-22 -9t-22 9t-9 22t9 22t22 9t22 -9t9 -22zM122 155q0 -13 -9 -22t-22 -9t-22 9t-9 22t9 22t22 9t22 -9t9 -22z M122 217q0 -13 -9 -22t-22 -9t-22 9t-9 22t9 22t22 9t22 -9t9 -22zM122 279q0 -13 -9 -22t-22 -9t-22 9t-9 22t9 22t22 9t22 -9t9 -22zM122 341q0 -13 -9 -22t-22 -9t-22 9t-9 22t9 22t22 9t22 -9t9 -22zM122 403q0 -13 -9 -22t-22 -9t-22 9t-9 22t9 22t22 9t22 -9t9 -22z M122 465q0 -13 -9 -22t-22 -9t-22 9t-9 22t9 22t22 9t22 -9t9 -22zM122 527q0 -13 -9 -22t-22 -9t-22 9t-9 22t9 22t22 9t22 -9t9 -22zM122 93q0 -13 -9 -22t-22 -9t-22 9t-9 22t9 22t22 9t22 -9t9 -22zM432 465q0 -13 -9 -22t-22 -9t-22 9t-9 22t9 22t22 9t22 -9t9 -22z M432 527q0 -13 -9 -22t-22 -9t-22 9t-9 22t9 22t22 9t22 -9t9 -22zM432 93q0 -13 -9 -22t-22 -9t-22 9t-9 22t9 22t22 9t22 -9t9 -22zM432 155q0 -13 -9 -22t-22 -9t-22 9t-9 22t9 22t22 9t22 -9t9 -22zM432 217q0 -13 -9 -22t-22 -9t-22 9t-9 22t9 22t22 9t22 -9t9 -22z M432 279q0 -13 -9 -22t-22 -9t-22 9t-9 22t9 22t22 9t22 -9t9 -22zM432 341q0 -13 -9 -22t-22 -9t-22 9t-9 22t9 22t22 9t22 -9t9 -22zM432 403q0 -13 -9 -22t-22 -9t-22 9t-9 22t9 22t22 9t22 -9t9 -22zM122 589q0 -13 -9 -22t-22 -9t-22 9t-9 22t9 22t22 9t22 -9t9 -22z M432 589q0 -13 -9 -22t-22 -9t-22 9t-9 22t9 22t22 9t22 -9t9 -22z" />
<glyph unicode="&#xe0;" d="M224 644q0 -17 -12.5 -29.5t-29.5 -12.5t-29.5 12.5t-12.5 29.5t12.5 29t29.5 12t29.5 -12t12.5 -29zM182 567q0 13 9 22t22 9t22 -9t9 -22t-9 -22t-22 -9t-22 9t-9 22zM217 513q0 7 5.5 12.5t13.5 5.5t13.5 -5.5t5.5 -12.5q0 -8 -5.5 -13.5t-13.5 -5.5t-13.5 5.5 t-5.5 13.5zM236 403q0 -13 -9 -22t-22 -9t-22 9t-9 22t9 22t22 9t22 -9t9 -22zM298 403q0 -13 -9 -22t-22 -9t-22 9t-9 22t9 22t22 9t22 -9t9 -22zM360 403q0 -13 -9 -22t-22 -9t-22 9t-9 22t9 22t22 9t22 -9t9 -22zM174 403q0 -13 -9 -22t-22 -9t-22 9t-9 22t9 22t22 9 t22 -9t9 -22zM298 31q0 -13 -9 -22t-22 -9t-22 9t-9 22t9 22t22 9t22 -9t9 -22zM360 31q0 13 9 22t22 9t22 -9t9 -22t-9 -22t-22 -9t-22 9t-9 22zM298 93q0 13 9 22t22 9t22 -9t9 -22t-9 -22t-22 -9t-22 9t-9 22zM112 155q0 -13 -9 -22t-22 -9t-22 9t-9 22t9 22t22 9t22 -9 t9 -22zM112 217q0 -13 -9 -22t-22 -9t-22 9t-9 22t9 22t22 9t22 -9t9 -22zM112 279q0 -13 -9 -22t-22 -9t-22 9t-9 22t9 22t22 9t22 -9t9 -22zM112 341q0 -13 -9 -22t-22 -9t-22 9t-9 22t9 22t22 9t22 -9t9 -22zM112 93q0 -13 -9 -22t-22 -9t-22 9t-9 22t9 22t22 9t22 -9 t9 -22zM174 31q0 -13 -9 -22t-22 -9t-22 9t-9 22t9 22t22 9t22 -9t9 -22zM236 31q0 -13 -9 -22t-22 -9t-22 9t-9 22t9 22t22 9t22 -9t9 -22zM422 93q0 -13 -9 -22t-22 -9t-22 9t-9 22t9 22t22 9t22 -9t9 -22zM422 155q0 -13 -9 -22t-22 -9t-22 9t-9 22t9 22t22 9t22 -9 t9 -22zM422 217q0 -13 -9 -22t-22 -9t-22 9t-9 22t9 22t22 9t22 -9t9 -22zM422 279q0 -13 -9 -22t-22 -9t-22 9t-9 22t9 22t22 9t22 -9t9 -22zM422 341q0 -13 -9 -22t-22 -9t-22 9t-9 22t9 22t22 9t22 -9t9 -22z" />
<glyph unicode="&#xe2;" d="M205 525q0 -13 -9 -22t-22 -9t-22 9t-9 22t9 22t22 9t22 -9t9 -22zM267 525q0 13 9 22t22 9t22 -9t9 -22t-9 -22t-22 -9t-22 9t-9 22zM205 587q0 13 9 22t22 9t22 -9t9 -22t-9 -22t-22 -9t-22 9t-9 22zM236 403q0 -13 -9 -22t-22 -9t-22 9t-9 22t9 22t22 9t22 -9t9 -22z M298 403q0 -13 -9 -22t-22 -9t-22 9t-9 22t9 22t22 9t22 -9t9 -22zM360 403q0 -13 -9 -22t-22 -9t-22 9t-9 22t9 22t22 9t22 -9t9 -22zM174 403q0 -13 -9 -22t-22 -9t-22 9t-9 22t9 22t22 9t22 -9t9 -22zM298 31q0 -13 -9 -22t-22 -9t-22 9t-9 22t9 22t22 9t22 -9t9 -22z M360 31q0 13 9 22t22 9t22 -9t9 -22t-9 -22t-22 -9t-22 9t-9 22zM298 93q0 13 9 22t22 9t22 -9t9 -22t-9 -22t-22 -9t-22 9t-9 22zM112 155q0 -13 -9 -22t-22 -9t-22 9t-9 22t9 22t22 9t22 -9t9 -22zM112 217q0 -13 -9 -22t-22 -9t-22 9t-9 22t9 22t22 9t22 -9t9 -22z M112 279q0 -13 -9 -22t-22 -9t-22 9t-9 22t9 22t22 9t22 -9t9 -22zM112 341q0 -13 -9 -22t-22 -9t-22 9t-9 22t9 22t22 9t22 -9t9 -22zM112 93q0 -13 -9 -22t-22 -9t-22 9t-9 22t9 22t22 9t22 -9t9 -22zM174 31q0 -13 -9 -22t-22 -9t-22 9t-9 22t9 22t22 9t22 -9t9 -22z M236 31q0 -13 -9 -22t-22 -9t-22 9t-9 22t9 22t22 9t22 -9t9 -22zM422 93q0 -13 -9 -22t-22 -9t-22 9t-9 22t9 22t22 9t22 -9t9 -22zM422 155q0 -13 -9 -22t-22 -9t-22 9t-9 22t9 22t22 9t22 -9t9 -22zM422 217q0 -13 -9 -22t-22 -9t-22 9t-9 22t9 22t22 9t22 -9t9 -22z M422 279q0 -13 -9 -22t-22 -9t-22 9t-9 22t9 22t22 9t22 -9t9 -22zM422 341q0 -13 -9 -22t-22 -9t-22 9t-9 22t9 22t22 9t22 -9t9 -22z" />
<glyph unicode="&#xe3;" d="M422 587q0 -13 -9 -22t-22 -9t-22 9t-9 22t9 22t22 9t22 -9t9 -22zM112 525q0 -13 -9 -22t-22 -9t-22 9t-9 22t9 22t22 9t22 -9t9 -22zM174 587q0 -13 -9 -22t-22 -9t-22 9t-9 22t9 22t22 9t22 -9t9 -22zM236 587q0 -13 -9 -22t-22 -9t-22 9t-9 22t9 22t22 9t22 -9t9 -22 zM298 525q0 -13 -9 -22t-22 -9t-22 9t-9 22t9 22t22 9t22 -9t9 -22zM360 525q0 -13 -9 -22t-22 -9t-22 9t-9 22t9 22t22 9t22 -9t9 -22zM236 403q0 -13 -9 -22t-22 -9t-22 9t-9 22t9 22t22 9t22 -9t9 -22zM298 403q0 -13 -9 -22t-22 -9t-22 9t-9 22t9 22t22 9t22 -9t9 -22z M360 403q0 -13 -9 -22t-22 -9t-22 9t-9 22t9 22t22 9t22 -9t9 -22zM174 403q0 -13 -9 -22t-22 -9t-22 9t-9 22t9 22t22 9t22 -9t9 -22zM298 31q0 -13 -9 -22t-22 -9t-22 9t-9 22t9 22t22 9t22 -9t9 -22zM360 31q0 13 9 22t22 9t22 -9t9 -22t-9 -22t-22 -9t-22 9t-9 22z M298 93q0 13 9 22t22 9t22 -9t9 -22t-9 -22t-22 -9t-22 9t-9 22zM112 155q0 -13 -9 -22t-22 -9t-22 9t-9 22t9 22t22 9t22 -9t9 -22zM112 217q0 -13 -9 -22t-22 -9t-22 9t-9 22t9 22t22 9t22 -9t9 -22zM112 279q0 -13 -9 -22t-22 -9t-22 9t-9 22t9 22t22 9t22 -9t9 -22z M112 341q0 -13 -9 -22t-22 -9t-22 9t-9 22t9 22t22 9t22 -9t9 -22zM112 93q0 -13 -9 -22t-22 -9t-22 9t-9 22t9 22t22 9t22 -9t9 -22zM174 31q0 -13 -9 -22t-22 -9t-22 9t-9 22t9 22t22 9t22 -9t9 -22zM236 31q0 -13 -9 -22t-22 -9t-22 9t-9 22t9 22t22 9t22 -9t9 -22z M422 93q0 -13 -9 -22t-22 -9t-22 9t-9 22t9 22t22 9t22 -9t9 -22zM422 155q0 -13 -9 -22t-22 -9t-22 9t-9 22t9 22t22 9t22 -9t9 -22zM422 217q0 -13 -9 -22t-22 -9t-22 9t-9 22t9 22t22 9t22 -9t9 -22zM422 279q0 -13 -9 -22t-22 -9t-22 9t-9 22t9 22t22 9t22 -9t9 -22z M422 341q0 -13 -9 -22t-22 -9t-22 9t-9 22t9 22t22 9t22 -9t9 -22z" />
<glyph unicode="&#xe5;" d="M205 525q0 -13 -9 -22t-22 -9t-22 9t-9 22t9 22t22 9t22 -9t9 -22zM267 525q0 -13 -9 -22t-22 -9t-22 9t-9 22t9 22t22 9t22 -9t9 -22zM329 525q0 -13 -9 -22t-22 -9t-22 9t-9 22t9 22t22 9t22 -9t9 -22zM143 525q0 -13 -9 -22t-22 -9t-22 9t-9 22t9 22t22 9t22 -9t9 -22 zM205 1083q0 -13 -9 -22t-22 -9t-22 9t-9 22t9 22t22 9t22 -9t9 -22zM267 1083q0 -13 -9 -22t-22 -9t-22 9t-9 22t9 22t22 9t22 -9t9 -22zM329 1083q0 -13 -9 -22t-22 -9t-22 9t-9 22t9 22t22 9t22 -9t9 -22zM143 1083q0 -13 -9 -22t-22 -9t-22 9t-9 22t9 22t22 9t22 -9 t9 -22zM81 649q0 -13 -9 -22t-22 -9t-22 9t-9 22t9 22t22 9t22 -9t9 -22zM81 711q0 -13 -9 -22t-22 -9t-22 9t-9 22t9 22t22 9t22 -9t9 -22zM81 773q0 -13 -9 -22t-22 -9t-22 9t-9 22t9 22t22 9t22 -9t9 -22zM81 835q0 -13 -9 -22t-22 -9t-22 9t-9 22t9 22t22 9t22 -9t9 -22 zM81 897q0 -13 -9 -22t-22 -9t-22 9t-9 22t9 22t22 9t22 -9t9 -22zM81 959q0 -13 -9 -22t-22 -9t-22 9t-9 22t9 22t22 9t22 -9t9 -22zM81 1021q0 -13 -9 -22t-22 -9t-22 9t-9 22t9 22t22 9t22 -9t9 -22zM81 587q0 -13 -9 -22t-22 -9t-22 9t-9 22t9 22t22 9t22 -9t9 -22z M391 525q0 -13 -9 -22t-22 -9t-22 9t-9 22t9 22t22 9t22 -9t9 -22zM391 1083q0 -13 -9 -22t-22 -9t-22 9t-9 22t9 22t22 9t22 -9t9 -22zM453 649q0 -13 -9 -22t-22 -9t-22 9t-9 22t9 22t22 9t22 -9t9 -22zM453 711q0 -13 -9 -22t-22 -9t-22 9t-9 22t9 22t22 9t22 -9t9 -22z M453 773q0 -13 -9 -22t-22 -9t-22 9t-9 22t9 22t22 9t22 -9t9 -22zM453 835q0 -13 -9 -22t-22 -9t-22 9t-9 22t9 22t22 9t22 -9t9 -22zM453 897q0 -13 -9 -22t-22 -9t-22 9t-9 22t9 22t22 9t22 -9t9 -22zM453 959q0 -13 -9 -22t-22 -9t-22 9t-9 22t9 22t22 9t22 -9t9 -22z M453 1021q0 -13 -9 -22t-22 -9t-22 9t-9 22t9 22t22 9t22 -9t9 -22zM453 587q0 -13 -9 -22t-22 -9t-22 9t-9 22t9 22t22 9t22 -9t9 -22zM236 403q0 -13 -9 -22t-22 -9t-22 9t-9 22t9 22t22 9t22 -9t9 -22zM298 403q0 -13 -9 -22t-22 -9t-22 9t-9 22t9 22t22 9t22 -9t9 -22z M360 403q0 -13 -9 -22t-22 -9t-22 9t-9 22t9 22t22 9t22 -9t9 -22zM174 403q0 -13 -9 -22t-22 -9t-22 9t-9 22t9 22t22 9t22 -9t9 -22zM298 31q0 -13 -9 -22t-22 -9t-22 9t-9 22t9 22t22 9t22 -9t9 -22zM360 31q0 13 9 22t22 9t22 -9t9 -22t-9 -22t-22 -9t-22 9t-9 22z M298 93q0 13 9 22t22 9t22 -9t9 -22t-9 -22t-22 -9t-22 9t-9 22zM112 155q0 -13 -9 -22t-22 -9t-22 9t-9 22t9 22t22 9t22 -9t9 -22zM112 217q0 -13 -9 -22t-22 -9t-22 9t-9 22t9 22t22 9t22 -9t9 -22zM112 279q0 -13 -9 -22t-22 -9t-22 9t-9 22t9 22t22 9t22 -9t9 -22z M112 341q0 -13 -9 -22t-22 -9t-22 9t-9 22t9 22t22 9t22 -9t9 -22zM112 93q0 -13 -9 -22t-22 -9t-22 9t-9 22t9 22t22 9t22 -9t9 -22zM174 31q0 -13 -9 -22t-22 -9t-22 9t-9 22t9 22t22 9t22 -9t9 -22zM236 31q0 -13 -9 -22t-22 -9t-22 9t-9 22t9 22t22 9t22 -9t9 -22z M422 93q0 -13 -9 -22t-22 -9t-22 9t-9 22t9 22t22 9t22 -9t9 -22zM422 155q0 -13 -9 -22t-22 -9t-22 9t-9 22t9 22t22 9t22 -9t9 -22zM422 217q0 -13 -9 -22t-22 -9t-22 9t-9 22t9 22t22 9t22 -9t9 -22zM422 279q0 -13 -9 -22t-22 -9t-22 9t-9 22t9 22t22 9t22 -9t9 -22z M422 341q0 -13 -9 -22t-22 -9t-22 9t-9 22t9 22t22 9t22 -9t9 -22z" />
<glyph unicode="&#xe8;" horiz-adv-x="462" d="M224 644q0 -17 -12.5 -29.5t-29.5 -12.5t-29.5 12.5t-12.5 29.5t12.5 29t29.5 12t29.5 -12t12.5 -29zM182 567q0 13 9 22t22 9t22 -9t9 -22t-9 -22t-22 -9t-22 9t-9 22zM217 513q0 7 5.5 12.5t13.5 5.5t13.5 -5.5t5.5 -12.5q0 -8 -5.5 -13.5t-13.5 -5.5t-13.5 5.5 t-5.5 13.5zM236 31q0 -13 -9 -22t-22 -9t-22 9t-9 22t9 22t22 9t22 -9t9 -22zM298 31q0 -13 -9 -22t-22 -9t-22 9t-9 22t9 22t22 9t22 -9t9 -22zM360 31q0 -13 -9 -22t-22 -9t-22 9t-9 22t9 22t22 9t22 -9t9 -22zM174 31q0 -13 -9 -22t-22 -9t-22 9t-9 22t9 22t22 9t22 -9 t9 -22zM236 403q0 -13 -9 -22t-22 -9t-22 9t-9 22t9 22t22 9t22 -9t9 -22zM298 403q0 -13 -9 -22t-22 -9t-22 9t-9 22t9 22t22 9t22 -9t9 -22zM360 403q0 -13 -9 -22t-22 -9t-22 9t-9 22t9 22t22 9t22 -9t9 -22zM174 403q0 -13 -9 -22t-22 -9t-22 9t-9 22t9 22t22 9t22 -9 t9 -22zM298 217q0 -13 -9 -22t-22 -9t-22 9t-9 22t9 22t22 9t22 -9t9 -22zM360 217q0 -13 -9 -22t-22 -9t-22 9t-9 22t9 22t22 9t22 -9t9 -22zM422 217q0 -13 -9 -22t-22 -9t-22 9t-9 22t9 22t22 9t22 -9t9 -22zM236 217q0 -13 -9 -22t-22 -9t-22 9t-9 22t9 22t22 9t22 -9 t9 -22zM112 155q0 -13 -9 -22t-22 -9t-22 9t-9 22t9 22t22 9t22 -9t9 -22zM112 217q0 -13 -9 -22t-22 -9t-22 9t-9 22t9 22t22 9t22 -9t9 -22zM112 279q0 -13 -9 -22t-22 -9t-22 9t-9 22t9 22t22 9t22 -9t9 -22zM112 341q0 -13 -9 -22t-22 -9t-22 9t-9 22t9 22t22 9t22 -9 t9 -22zM112 93q0 -13 -9 -22t-22 -9t-22 9t-9 22t9 22t22 9t22 -9t9 -22zM422 279q0 -13 -9 -22t-22 -9t-22 9t-9 22t9 22t22 9t22 -9t9 -22zM422 341q0 -13 -9 -22t-22 -9t-22 9t-9 22t9 22t22 9t22 -9t9 -22zM112 279q0 13 9 22t22 9t22 -9t9 -22t-9 -22t-22 -9t-22 9 t-9 22z" />
<glyph unicode="&#xea;" horiz-adv-x="462" d="M205 525q0 -13 -9 -22t-22 -9t-22 9t-9 22t9 22t22 9t22 -9t9 -22zM267 525q0 13 9 22t22 9t22 -9t9 -22t-9 -22t-22 -9t-22 9t-9 22zM205 587q0 13 9 22t22 9t22 -9t9 -22t-9 -22t-22 -9t-22 9t-9 22zM236 31q0 -13 -9 -22t-22 -9t-22 9t-9 22t9 22t22 9t22 -9t9 -22z M298 31q0 -13 -9 -22t-22 -9t-22 9t-9 22t9 22t22 9t22 -9t9 -22zM360 31q0 -13 -9 -22t-22 -9t-22 9t-9 22t9 22t22 9t22 -9t9 -22zM174 31q0 -13 -9 -22t-22 -9t-22 9t-9 22t9 22t22 9t22 -9t9 -22zM236 403q0 -13 -9 -22t-22 -9t-22 9t-9 22t9 22t22 9t22 -9t9 -22z M298 403q0 -13 -9 -22t-22 -9t-22 9t-9 22t9 22t22 9t22 -9t9 -22zM360 403q0 -13 -9 -22t-22 -9t-22 9t-9 22t9 22t22 9t22 -9t9 -22zM174 403q0 -13 -9 -22t-22 -9t-22 9t-9 22t9 22t22 9t22 -9t9 -22zM298 217q0 -13 -9 -22t-22 -9t-22 9t-9 22t9 22t22 9t22 -9t9 -22z M360 217q0 -13 -9 -22t-22 -9t-22 9t-9 22t9 22t22 9t22 -9t9 -22zM422 217q0 -13 -9 -22t-22 -9t-22 9t-9 22t9 22t22 9t22 -9t9 -22zM236 217q0 -13 -9 -22t-22 -9t-22 9t-9 22t9 22t22 9t22 -9t9 -22zM112 155q0 -13 -9 -22t-22 -9t-22 9t-9 22t9 22t22 9t22 -9t9 -22z M112 217q0 -13 -9 -22t-22 -9t-22 9t-9 22t9 22t22 9t22 -9t9 -22zM112 279q0 -13 -9 -22t-22 -9t-22 9t-9 22t9 22t22 9t22 -9t9 -22zM112 341q0 -13 -9 -22t-22 -9t-22 9t-9 22t9 22t22 9t22 -9t9 -22zM112 93q0 -13 -9 -22t-22 -9t-22 9t-9 22t9 22t22 9t22 -9t9 -22z M422 279q0 -13 -9 -22t-22 -9t-22 9t-9 22t9 22t22 9t22 -9t9 -22zM422 341q0 -13 -9 -22t-22 -9t-22 9t-9 22t9 22t22 9t22 -9t9 -22zM112 279q0 13 9 22t22 9t22 -9t9 -22t-9 -22t-22 -9t-22 9t-9 22z" />
<glyph unicode="&#xec;" horiz-adv-x="184" d="M80 803q0 -17 -12.5 -29.5t-29.5 -12.5t-29.5 12.5t-12.5 29.5t12.5 29t29.5 12t29.5 -12t12.5 -29zM38 726q0 13 9 22t22 9t22 -9t9 -22t-9 -22t-22 -9t-22 9t-9 22zM73 672q0 7 5.5 12.5t13.5 5.5t13.5 -5.5t5.5 -12.5q0 -8 -5.5 -13.5t-13.5 -5.5t-13.5 5.5t-5.5 13.5 zM134 552q0 -17 -12.5 -29.5t-29.5 -12.5t-29.5 12.5t-12.5 29.5t12.5 29t29.5 12t29.5 -12t12.5 -29zM123 155q0 -13 -9 -22t-22 -9t-22 9t-9 22t9 22t22 9t22 -9t9 -22zM123 217q0 -13 -9 -22t-22 -9t-22 9t-9 22t9 22t22 9t22 -9t9 -22zM123 279q0 -13 -9 -22t-22 -9 t-22 9t-9 22t9 22t22 9t22 -9t9 -22zM123 341q0 -13 -9 -22t-22 -9t-22 9t-9 22t9 22t22 9t22 -9t9 -22zM123 403q0 -13 -9 -22t-22 -9t-22 9t-9 22t9 22t22 9t22 -9t9 -22zM123 93q0 -13 -9 -22t-22 -9t-22 9t-9 22t9 22t22 9t22 -9t9 -22zM123 31q0 -13 -9 -22t-22 -9 t-22 9t-9 22t9 22t22 9t22 -9t9 -22z" />
<glyph unicode="&#xee;" horiz-adv-x="184" d="M61 684q0 -13 -9 -22t-22 -9t-22 9t-9 22t9 22t22 9t22 -9t9 -22zM123 684q0 13 9 22t22 9t22 -9t9 -22t-9 -22t-22 -9t-22 9t-9 22zM61 746q0 13 9 22t22 9t22 -9t9 -22t-9 -22t-22 -9t-22 9t-9 22zM134 552q0 -17 -12.5 -29.5t-29.5 -12.5t-29.5 12.5t-12.5 29.5 t12.5 29t29.5 12t29.5 -12t12.5 -29zM123 155q0 -13 -9 -22t-22 -9t-22 9t-9 22t9 22t22 9t22 -9t9 -22zM123 217q0 -13 -9 -22t-22 -9t-22 9t-9 22t9 22t22 9t22 -9t9 -22zM123 279q0 -13 -9 -22t-22 -9t-22 9t-9 22t9 22t22 9t22 -9t9 -22zM123 341q0 -13 -9 -22t-22 -9 t-22 9t-9 22t9 22t22 9t22 -9t9 -22zM123 403q0 -13 -9 -22t-22 -9t-22 9t-9 22t9 22t22 9t22 -9t9 -22zM123 93q0 -13 -9 -22t-22 -9t-22 9t-9 22t9 22t22 9t22 -9t9 -22zM123 31q0 -13 -9 -22t-22 -9t-22 9t-9 22t9 22t22 9t22 -9t9 -22z" />
<glyph unicode="&#xf1;" d="M422 587q0 -13 -9 -22t-22 -9t-22 9t-9 22t9 22t22 9t22 -9t9 -22zM112 525q0 -13 -9 -22t-22 -9t-22 9t-9 22t9 22t22 9t22 -9t9 -22zM174 587q0 -13 -9 -22t-22 -9t-22 9t-9 22t9 22t22 9t22 -9t9 -22zM236 587q0 -13 -9 -22t-22 -9t-22 9t-9 22t9 22t22 9t22 -9t9 -22 zM298 525q0 -13 -9 -22t-22 -9t-22 9t-9 22t9 22t22 9t22 -9t9 -22zM360 525q0 -13 -9 -22t-22 -9t-22 9t-9 22t9 22t22 9t22 -9t9 -22zM112 155q0 -13 -9 -22t-22 -9t-22 9t-9 22t9 22t22 9t22 -9t9 -22zM112 217q0 -13 -9 -22t-22 -9t-22 9t-9 22t9 22t22 9t22 -9t9 -22z M112 279q0 -13 -9 -22t-22 -9t-22 9t-9 22t9 22t22 9t22 -9t9 -22zM112 341q0 -13 -9 -22t-22 -9t-22 9t-9 22t9 22t22 9t22 -9t9 -22zM112 403q0 -13 -9 -22t-22 -9t-22 9t-9 22t9 22t22 9t22 -9t9 -22zM112 93q0 -13 -9 -22t-22 -9t-22 9t-9 22t9 22t22 9t22 -9t9 -22z M422 93q0 -13 -9 -22t-22 -9t-22 9t-9 22t9 22t22 9t22 -9t9 -22zM174 341q0 -13 -9 -22t-22 -9t-22 9t-9 22t9 22t22 9t22 -9t9 -22zM236 403q0 -13 -9 -22t-22 -9t-22 9t-9 22t9 22t22 9t22 -9t9 -22zM298 403q0 -13 -9 -22t-22 -9t-22 9t-9 22t9 22t22 9t22 -9t9 -22z M360 403q0 -13 -9 -22t-22 -9t-22 9t-9 22t9 22t22 9t22 -9t9 -22zM422 155q0 -13 -9 -22t-22 -9t-22 9t-9 22t9 22t22 9t22 -9t9 -22zM422 217q0 -13 -9 -22t-22 -9t-22 9t-9 22t9 22t22 9t22 -9t9 -22zM422 279q0 -13 -9 -22t-22 -9t-22 9t-9 22t9 22t22 9t22 -9t9 -22z M422 341q0 -13 -9 -22t-22 -9t-22 9t-9 22t9 22t22 9t22 -9t9 -22zM112 31q0 -13 -9 -22t-22 -9t-22 9t-9 22t9 22t22 9t22 -9t9 -22zM422 31q0 -13 -9 -22t-22 -9t-22 9t-9 22t9 22t22 9t22 -9t9 -22z" />
<glyph unicode="&#xf2;" d="M224 644q0 -17 -12.5 -29.5t-29.5 -12.5t-29.5 12.5t-12.5 29.5t12.5 29t29.5 12t29.5 -12t12.5 -29zM182 567q0 13 9 22t22 9t22 -9t9 -22t-9 -22t-22 -9t-22 9t-9 22zM217 513q0 7 5.5 12.5t13.5 5.5t13.5 -5.5t5.5 -12.5q0 -8 -5.5 -13.5t-13.5 -5.5t-13.5 5.5 t-5.5 13.5zM236 31q0 -13 -9 -22t-22 -9t-22 9t-9 22t9 22t22 9t22 -9t9 -22zM298 31q0 -13 -9 -22t-22 -9t-22 9t-9 22t9 22t22 9t22 -9t9 -22zM360 31q0 -13 -9 -22t-22 -9t-22 9t-9 22t9 22t22 9t22 -9t9 -22zM174 31q0 -13 -9 -22t-22 -9t-22 9t-9 22t9 22t22 9t22 -9 t9 -22zM236 403q0 -13 -9 -22t-22 -9t-22 9t-9 22t9 22t22 9t22 -9t9 -22zM298 403q0 -13 -9 -22t-22 -9t-22 9t-9 22t9 22t22 9t22 -9t9 -22zM360 403q0 -13 -9 -22t-22 -9t-22 9t-9 22t9 22t22 9t22 -9t9 -22zM174 403q0 -13 -9 -22t-22 -9t-22 9t-9 22t9 22t22 9t22 -9 t9 -22zM112 155q0 -13 -9 -22t-22 -9t-22 9t-9 22t9 22t22 9t22 -9t9 -22zM112 217q0 -13 -9 -22t-22 -9t-22 9t-9 22t9 22t22 9t22 -9t9 -22zM112 279q0 -13 -9 -22t-22 -9t-22 9t-9 22t9 22t22 9t22 -9t9 -22zM112 341q0 -13 -9 -22t-22 -9t-22 9t-9 22t9 22t22 9t22 -9 t9 -22zM112 93q0 -13 -9 -22t-22 -9t-22 9t-9 22t9 22t22 9t22 -9t9 -22zM422 93q0 -13 -9 -22t-22 -9t-22 9t-9 22t9 22t22 9t22 -9t9 -22zM422 155q0 -13 -9 -22t-22 -9t-22 9t-9 22t9 22t22 9t22 -9t9 -22zM422 217q0 -13 -9 -22t-22 -9t-22 9t-9 22t9 22t22 9t22 -9 t9 -22zM422 279q0 -13 -9 -22t-22 -9t-22 9t-9 22t9 22t22 9t22 -9t9 -22zM422 341q0 -13 -9 -22t-22 -9t-22 9t-9 22t9 22t22 9t22 -9t9 -22z" />
<glyph unicode="&#xf4;" d="M205 525q0 -13 -9 -22t-22 -9t-22 9t-9 22t9 22t22 9t22 -9t9 -22zM267 525q0 13 9 22t22 9t22 -9t9 -22t-9 -22t-22 -9t-22 9t-9 22zM205 587q0 13 9 22t22 9t22 -9t9 -22t-9 -22t-22 -9t-22 9t-9 22zM236 31q0 -13 -9 -22t-22 -9t-22 9t-9 22t9 22t22 9t22 -9t9 -22z M298 31q0 -13 -9 -22t-22 -9t-22 9t-9 22t9 22t22 9t22 -9t9 -22zM360 31q0 -13 -9 -22t-22 -9t-22 9t-9 22t9 22t22 9t22 -9t9 -22zM174 31q0 -13 -9 -22t-22 -9t-22 9t-9 22t9 22t22 9t22 -9t9 -22zM236 403q0 -13 -9 -22t-22 -9t-22 9t-9 22t9 22t22 9t22 -9t9 -22z M298 403q0 -13 -9 -22t-22 -9t-22 9t-9 22t9 22t22 9t22 -9t9 -22zM360 403q0 -13 -9 -22t-22 -9t-22 9t-9 22t9 22t22 9t22 -9t9 -22zM174 403q0 -13 -9 -22t-22 -9t-22 9t-9 22t9 22t22 9t22 -9t9 -22zM112 155q0 -13 -9 -22t-22 -9t-22 9t-9 22t9 22t22 9t22 -9t9 -22z M112 217q0 -13 -9 -22t-22 -9t-22 9t-9 22t9 22t22 9t22 -9t9 -22zM112 279q0 -13 -9 -22t-22 -9t-22 9t-9 22t9 22t22 9t22 -9t9 -22zM112 341q0 -13 -9 -22t-22 -9t-22 9t-9 22t9 22t22 9t22 -9t9 -22zM112 93q0 -13 -9 -22t-22 -9t-22 9t-9 22t9 22t22 9t22 -9t9 -22z M422 93q0 -13 -9 -22t-22 -9t-22 9t-9 22t9 22t22 9t22 -9t9 -22zM422 155q0 -13 -9 -22t-22 -9t-22 9t-9 22t9 22t22 9t22 -9t9 -22zM422 217q0 -13 -9 -22t-22 -9t-22 9t-9 22t9 22t22 9t22 -9t9 -22zM422 279q0 -13 -9 -22t-22 -9t-22 9t-9 22t9 22t22 9t22 -9t9 -22z M422 341q0 -13 -9 -22t-22 -9t-22 9t-9 22t9 22t22 9t22 -9t9 -22z" />
<glyph unicode="&#xf5;" d="M422 587q0 -13 -9 -22t-22 -9t-22 9t-9 22t9 22t22 9t22 -9t9 -22zM112 525q0 -13 -9 -22t-22 -9t-22 9t-9 22t9 22t22 9t22 -9t9 -22zM174 587q0 -13 -9 -22t-22 -9t-22 9t-9 22t9 22t22 9t22 -9t9 -22zM236 587q0 -13 -9 -22t-22 -9t-22 9t-9 22t9 22t22 9t22 -9t9 -22 zM298 525q0 -13 -9 -22t-22 -9t-22 9t-9 22t9 22t22 9t22 -9t9 -22zM360 525q0 -13 -9 -22t-22 -9t-22 9t-9 22t9 22t22 9t22 -9t9 -22zM236 31q0 -13 -9 -22t-22 -9t-22 9t-9 22t9 22t22 9t22 -9t9 -22zM298 31q0 -13 -9 -22t-22 -9t-22 9t-9 22t9 22t22 9t22 -9t9 -22z M360 31q0 -13 -9 -22t-22 -9t-22 9t-9 22t9 22t22 9t22 -9t9 -22zM174 31q0 -13 -9 -22t-22 -9t-22 9t-9 22t9 22t22 9t22 -9t9 -22zM236 403q0 -13 -9 -22t-22 -9t-22 9t-9 22t9 22t22 9t22 -9t9 -22zM298 403q0 -13 -9 -22t-22 -9t-22 9t-9 22t9 22t22 9t22 -9t9 -22z M360 403q0 -13 -9 -22t-22 -9t-22 9t-9 22t9 22t22 9t22 -9t9 -22zM174 403q0 -13 -9 -22t-22 -9t-22 9t-9 22t9 22t22 9t22 -9t9 -22zM112 155q0 -13 -9 -22t-22 -9t-22 9t-9 22t9 22t22 9t22 -9t9 -22zM112 217q0 -13 -9 -22t-22 -9t-22 9t-9 22t9 22t22 9t22 -9t9 -22z M112 279q0 -13 -9 -22t-22 -9t-22 9t-9 22t9 22t22 9t22 -9t9 -22zM112 341q0 -13 -9 -22t-22 -9t-22 9t-9 22t9 22t22 9t22 -9t9 -22zM112 93q0 -13 -9 -22t-22 -9t-22 9t-9 22t9 22t22 9t22 -9t9 -22zM422 93q0 -13 -9 -22t-22 -9t-22 9t-9 22t9 22t22 9t22 -9t9 -22z M422 155q0 -13 -9 -22t-22 -9t-22 9t-9 22t9 22t22 9t22 -9t9 -22zM422 217q0 -13 -9 -22t-22 -9t-22 9t-9 22t9 22t22 9t22 -9t9 -22zM422 279q0 -13 -9 -22t-22 -9t-22 9t-9 22t9 22t22 9t22 -9t9 -22zM422 341q0 -13 -9 -22t-22 -9t-22 9t-9 22t9 22t22 9t22 -9t9 -22z " />
<glyph unicode="&#xf9;" d="M224 644q0 -17 -12.5 -29.5t-29.5 -12.5t-29.5 12.5t-12.5 29.5t12.5 29t29.5 12t29.5 -12t12.5 -29zM182 567q0 13 9 22t22 9t22 -9t9 -22t-9 -22t-22 -9t-22 9t-9 22zM217 513q0 7 5.5 12.5t13.5 5.5t13.5 -5.5t5.5 -12.5q0 -8 -5.5 -13.5t-13.5 -5.5t-13.5 5.5 t-5.5 13.5zM298 31q0 -13 -9 -22t-22 -9t-22 9t-9 22t9 22t22 9t22 -9t9 -22zM360 31q0 13 9 22t22 9t22 -9t9 -22t-9 -22t-22 -9t-22 9t-9 22zM298 93q0 13 9 22t22 9t22 -9t9 -22t-9 -22t-22 -9t-22 9t-9 22zM360 279q0 13 9 22t22 9t22 -9t9 -22t-9 -22t-22 -9t-22 9 t-9 22zM360 217q0 13 9 22t22 9t22 -9t9 -22t-9 -22t-22 -9t-22 9t-9 22zM360 155q0 13 9 22t22 9t22 -9t9 -22t-9 -22t-22 -9t-22 9t-9 22zM360 93q0 13 9 22t22 9t22 -9t9 -22t-9 -22t-22 -9t-22 9t-9 22zM360 341q0 13 9 22t22 9t22 -9t9 -22t-9 -22t-22 -9t-22 9t-9 22z M50 341q0 13 9 22t22 9t22 -9t9 -22t-9 -22t-22 -9t-22 9t-9 22zM174 31q0 13 9 22t22 9t22 -9t9 -22t-9 -22t-22 -9t-22 9t-9 22zM112 31q0 13 9 22t22 9t22 -9t9 -22t-9 -22t-22 -9t-22 9t-9 22zM50 279q0 13 9 22t22 9t22 -9t9 -22t-9 -22t-22 -9t-22 9t-9 22zM50 217 q0 13 9 22t22 9t22 -9t9 -22t-9 -22t-22 -9t-22 9t-9 22zM50 155q0 13 9 22t22 9t22 -9t9 -22t-9 -22t-22 -9t-22 9t-9 22zM50 93q0 13 9 22t22 9t22 -9t9 -22t-9 -22t-22 -9t-22 9t-9 22zM360 403q0 13 9 22t22 9t22 -9t9 -22t-9 -22t-22 -9t-22 9t-9 22zM50 403q0 13 9 22 t22 9t22 -9t9 -22t-9 -22t-22 -9t-22 9t-9 22z" />
<glyph unicode="&#xfb;" d="M205 525q0 -13 -9 -22t-22 -9t-22 9t-9 22t9 22t22 9t22 -9t9 -22zM267 525q0 13 9 22t22 9t22 -9t9 -22t-9 -22t-22 -9t-22 9t-9 22zM205 587q0 13 9 22t22 9t22 -9t9 -22t-9 -22t-22 -9t-22 9t-9 22zM298 31q0 -13 -9 -22t-22 -9t-22 9t-9 22t9 22t22 9t22 -9t9 -22z M360 31q0 13 9 22t22 9t22 -9t9 -22t-9 -22t-22 -9t-22 9t-9 22zM298 93q0 13 9 22t22 9t22 -9t9 -22t-9 -22t-22 -9t-22 9t-9 22zM360 279q0 13 9 22t22 9t22 -9t9 -22t-9 -22t-22 -9t-22 9t-9 22zM360 217q0 13 9 22t22 9t22 -9t9 -22t-9 -22t-22 -9t-22 9t-9 22zM360 155 q0 13 9 22t22 9t22 -9t9 -22t-9 -22t-22 -9t-22 9t-9 22zM360 93q0 13 9 22t22 9t22 -9t9 -22t-9 -22t-22 -9t-22 9t-9 22zM360 341q0 13 9 22t22 9t22 -9t9 -22t-9 -22t-22 -9t-22 9t-9 22zM50 341q0 13 9 22t22 9t22 -9t9 -22t-9 -22t-22 -9t-22 9t-9 22zM174 31 q0 13 9 22t22 9t22 -9t9 -22t-9 -22t-22 -9t-22 9t-9 22zM112 31q0 13 9 22t22 9t22 -9t9 -22t-9 -22t-22 -9t-22 9t-9 22zM50 279q0 13 9 22t22 9t22 -9t9 -22t-9 -22t-22 -9t-22 9t-9 22zM50 217q0 13 9 22t22 9t22 -9t9 -22t-9 -22t-22 -9t-22 9t-9 22zM50 155q0 13 9 22 t22 9t22 -9t9 -22t-9 -22t-22 -9t-22 9t-9 22zM50 93q0 13 9 22t22 9t22 -9t9 -22t-9 -22t-22 -9t-22 9t-9 22zM360 403q0 13 9 22t22 9t22 -9t9 -22t-9 -22t-22 -9t-22 9t-9 22zM50 403q0 13 9 22t22 9t22 -9t9 -22t-9 -22t-22 -9t-22 9t-9 22z" />
<glyph unicode="&#x152;" horiz-adv-x="882" d="M676 31q0 -13 -9 -22t-22 -9t-22 9t-9 22t9 22t22 9t22 -9t9 -22zM738 31q0 -13 -9 -22t-22 -9t-22 9t-9 22t9 22t22 9t22 -9t9 -22zM800 31q0 -13 -9 -22t-22 -9t-22 9t-9 22t9 22t22 9t22 -9t9 -22zM614 31q0 -13 -9 -22t-22 -9t-22 9t-9 22t9 22t22 9t22 -9t9 -22z M676 589q0 -13 -9 -22t-22 -9t-22 9t-9 22t9 22t22 9t22 -9t9 -22zM738 589q0 -13 -9 -22t-22 -9t-22 9t-9 22t9 22t22 9t22 -9t9 -22zM800 589q0 -13 -9 -22t-22 -9t-22 9t-9 22t9 22t22 9t22 -9t9 -22zM614 589q0 -13 -9 -22t-22 -9t-22 9t-9 22t9 22t22 9t22 -9t9 -22z M676 341q0 -13 -9 -22t-22 -9t-22 9t-9 22t9 22t22 9t22 -9t9 -22zM738 341q0 -13 -9 -22t-22 -9t-22 9t-9 22t9 22t22 9t22 -9t9 -22zM800 341q0 -13 -9 -22t-22 -9t-22 9t-9 22t9 22t22 9t22 -9t9 -22zM614 341q0 -13 -9 -22t-22 -9t-22 9t-9 22t9 22t22 9t22 -9t9 -22z M614 155q0 -13 -9 -22t-22 -9t-22 9t-9 22t9 22t22 9t22 -9t9 -22zM614 217q0 -13 -9 -22t-22 -9t-22 9t-9 22t9 22t22 9t22 -9t9 -22zM614 279q0 -13 -9 -22t-22 -9t-22 9t-9 22t9 22t22 9t22 -9t9 -22zM614 403q0 -13 -9 -22t-22 -9t-22 9t-9 22t9 22t22 9t22 -9t9 -22z M614 465q0 -13 -9 -22t-22 -9t-22 9t-9 22t9 22t22 9t22 -9t9 -22zM614 527q0 -13 -9 -22t-22 -9t-22 9t-9 22t9 22t22 9t22 -9t9 -22zM614 93q0 -13 -9 -22t-22 -9t-22 9t-9 22t9 22t22 9t22 -9t9 -22zM862 31q0 -13 -9 -22t-22 -9t-22 9t-9 22t9 22t22 9t22 -9t9 -22z M862 589q0 -13 -9 -22t-22 -9t-22 9t-9 22t9 22t22 9t22 -9t9 -22zM246 31q0 -13 -9 -22t-22 -9t-22 9t-9 22t9 22t22 9t22 -9t9 -22zM308 31q0 -13 -9 -22t-22 -9t-22 9t-9 22t9 22t22 9t22 -9t9 -22zM370 31q0 -13 -9 -22t-22 -9t-22 9t-9 22t9 22t22 9t22 -9t9 -22z M184 31q0 -13 -9 -22t-22 -9t-22 9t-9 22t9 22t22 9t22 -9t9 -22zM246 589q0 -13 -9 -22t-22 -9t-22 9t-9 22t9 22t22 9t22 -9t9 -22zM308 589q0 -13 -9 -22t-22 -9t-22 9t-9 22t9 22t22 9t22 -9t9 -22zM370 589q0 -13 -9 -22t-22 -9t-22 9t-9 22t9 22t22 9t22 -9t9 -22z M184 589q0 -13 -9 -22t-22 -9t-22 9t-9 22t9 22t22 9t22 -9t9 -22zM122 155q0 -13 -9 -22t-22 -9t-22 9t-9 22t9 22t22 9t22 -9t9 -22zM122 217q0 -13 -9 -22t-22 -9t-22 9t-9 22t9 22t22 9t22 -9t9 -22zM122 279q0 -13 -9 -22t-22 -9t-22 9t-9 22t9 22t22 9t22 -9t9 -22z M122 341q0 -13 -9 -22t-22 -9t-22 9t-9 22t9 22t22 9t22 -9t9 -22zM122 403q0 -13 -9 -22t-22 -9t-22 9t-9 22t9 22t22 9t22 -9t9 -22zM122 465q0 -13 -9 -22t-22 -9t-22 9t-9 22t9 22t22 9t22 -9t9 -22zM122 527q0 -13 -9 -22t-22 -9t-22 9t-9 22t9 22t22 9t22 -9t9 -22z M122 93q0 -13 -9 -22t-22 -9t-22 9t-9 22t9 22t22 9t22 -9t9 -22zM432 155q0 -13 -9 -22t-22 -9t-22 9t-9 22t9 22t22 9t22 -9t9 -22zM432 217q0 -13 -9 -22t-22 -9t-22 9t-9 22t9 22t22 9t22 -9t9 -22zM432 279q0 -13 -9 -22t-22 -9t-22 9t-9 22t9 22t22 9t22 -9t9 -22z M432 341q0 -13 -9 -22t-22 -9t-22 9t-9 22t9 22t22 9t22 -9t9 -22zM432 403q0 -13 -9 -22t-22 -9t-22 9t-9 22t9 22t22 9t22 -9t9 -22zM432 465q0 -13 -9 -22t-22 -9t-22 9t-9 22t9 22t22 9t22 -9t9 -22zM432 527q0 -13 -9 -22t-22 -9t-22 9t-9 22t9 22t22 9t22 -9t9 -22z M432 93q0 -13 -9 -22t-22 -9t-22 9t-9 22t9 22t22 9t22 -9t9 -22z" />
<glyph unicode="&#x153;" horiz-adv-x="934" d="M708 31q0 -13 -9 -22t-22 -9t-22 9t-9 22t9 22t22 9t22 -9t9 -22zM770 31q0 -13 -9 -22t-22 -9t-22 9t-9 22t9 22t22 9t22 -9t9 -22zM832 31q0 -13 -9 -22t-22 -9t-22 9t-9 22t9 22t22 9t22 -9t9 -22zM646 31q0 -13 -9 -22t-22 -9t-22 9t-9 22t9 22t22 9t22 -9t9 -22z M708 403q0 -13 -9 -22t-22 -9t-22 9t-9 22t9 22t22 9t22 -9t9 -22zM770 403q0 -13 -9 -22t-22 -9t-22 9t-9 22t9 22t22 9t22 -9t9 -22zM832 403q0 -13 -9 -22t-22 -9t-22 9t-9 22t9 22t22 9t22 -9t9 -22zM646 403q0 -13 -9 -22t-22 -9t-22 9t-9 22t9 22t22 9t22 -9t9 -22z M770 217q0 -13 -9 -22t-22 -9t-22 9t-9 22t9 22t22 9t22 -9t9 -22zM832 217q0 -13 -9 -22t-22 -9t-22 9t-9 22t9 22t22 9t22 -9t9 -22zM894 217q0 -13 -9 -22t-22 -9t-22 9t-9 22t9 22t22 9t22 -9t9 -22zM708 217q0 -13 -9 -22t-22 -9t-22 9t-9 22t9 22t22 9t22 -9t9 -22z M584 155q0 -13 -9 -22t-22 -9t-22 9t-9 22t9 22t22 9t22 -9t9 -22zM584 217q0 -13 -9 -22t-22 -9t-22 9t-9 22t9 22t22 9t22 -9t9 -22zM584 279q0 -13 -9 -22t-22 -9t-22 9t-9 22t9 22t22 9t22 -9t9 -22zM584 341q0 -13 -9 -22t-22 -9t-22 9t-9 22t9 22t22 9t22 -9t9 -22z M584 93q0 -13 -9 -22t-22 -9t-22 9t-9 22t9 22t22 9t22 -9t9 -22zM894 279q0 -13 -9 -22t-22 -9t-22 9t-9 22t9 22t22 9t22 -9t9 -22zM894 341q0 -13 -9 -22t-22 -9t-22 9t-9 22t9 22t22 9t22 -9t9 -22zM584 279q0 13 9 22t22 9t22 -9t9 -22t-9 -22t-22 -9t-22 9t-9 22z M236 31q0 -13 -9 -22t-22 -9t-22 9t-9 22t9 22t22 9t22 -9t9 -22zM298 31q0 -13 -9 -22t-22 -9t-22 9t-9 22t9 22t22 9t22 -9t9 -22zM360 31q0 -13 -9 -22t-22 -9t-22 9t-9 22t9 22t22 9t22 -9t9 -22zM174 31q0 -13 -9 -22t-22 -9t-22 9t-9 22t9 22t22 9t22 -9t9 -22z M236 403q0 -13 -9 -22t-22 -9t-22 9t-9 22t9 22t22 9t22 -9t9 -22zM298 403q0 -13 -9 -22t-22 -9t-22 9t-9 22t9 22t22 9t22 -9t9 -22zM360 403q0 -13 -9 -22t-22 -9t-22 9t-9 22t9 22t22 9t22 -9t9 -22zM174 403q0 -13 -9 -22t-22 -9t-22 9t-9 22t9 22t22 9t22 -9t9 -22z M112 155q0 -13 -9 -22t-22 -9t-22 9t-9 22t9 22t22 9t22 -9t9 -22zM112 217q0 -13 -9 -22t-22 -9t-22 9t-9 22t9 22t22 9t22 -9t9 -22zM112 279q0 -13 -9 -22t-22 -9t-22 9t-9 22t9 22t22 9t22 -9t9 -22zM112 341q0 -13 -9 -22t-22 -9t-22 9t-9 22t9 22t22 9t22 -9t9 -22z M112 93q0 -13 -9 -22t-22 -9t-22 9t-9 22t9 22t22 9t22 -9t9 -22zM422 93q0 -13 -9 -22t-22 -9t-22 9t-9 22t9 22t22 9t22 -9t9 -22zM422 155q0 -13 -9 -22t-22 -9t-22 9t-9 22t9 22t22 9t22 -9t9 -22zM422 217q0 -13 -9 -22t-22 -9t-22 9t-9 22t9 22t22 9t22 -9t9 -22z M422 279q0 -13 -9 -22t-22 -9t-22 9t-9 22t9 22t22 9t22 -9t9 -22zM422 341q0 -13 -9 -22t-22 -9t-22 9t-9 22t9 22t22 9t22 -9t9 -22z" />
<glyph unicode="&#x2c6;" horiz-adv-x="266" d="M102 527q0 -13 -9 -22t-22 -9t-22 9t-9 22t9 22t22 9t22 -9t9 -22zM164 527q0 13 9 22t22 9t22 -9t9 -22t-9 -22t-22 -9t-22 9t-9 22zM102 589q0 13 9 22t22 9t22 -9t9 -22t-9 -22t-22 -9t-22 9t-9 22z" />
<glyph unicode="&#x2dc;" horiz-adv-x="200" d="M186 153q0 -13 -9 -22t-22 -9t-22 9t-9 22t9 22t22 9t22 -9t9 -22zM-124 91q0 -13 -9 -22t-22 -9t-22 9t-9 22t9 22t22 9t22 -9t9 -22zM-62 153q0 -13 -9 -22t-22 -9t-22 9t-9 22t9 22t22 9t22 -9t9 -22zM0 153q0 -13 -9 -22t-22 -9t-22 9t-9 22t9 22t22 9t22 -9t9 -22z M62 91q0 -13 -9 -22t-22 -9t-22 9t-9 22t9 22t22 9t22 -9t9 -22zM124 91q0 -13 -9 -22t-22 -9t-22 9t-9 22t9 22t22 9t22 -9t9 -22z" />
<glyph unicode="&#x2000;" horiz-adv-x="609" />
<glyph unicode="&#x2001;" horiz-adv-x="1219" />
<glyph unicode="&#x2002;" horiz-adv-x="609" />
<glyph unicode="&#x2003;" horiz-adv-x="1219" />
<glyph unicode="&#x2004;" horiz-adv-x="406" />
<glyph unicode="&#x2005;" horiz-adv-x="304" />
<glyph unicode="&#x2006;" horiz-adv-x="203" />
<glyph unicode="&#x2007;" horiz-adv-x="203" />
<glyph unicode="&#x2008;" horiz-adv-x="152" />
<glyph unicode="&#x2009;" horiz-adv-x="243" />
<glyph unicode="&#x200a;" horiz-adv-x="67" />
<glyph unicode="&#x2010;" horiz-adv-x="328" d="M164 279q0 -13 -9 -22t-22 -9t-22 9t-9 22t9 22t22 9t22 -9t9 -22zM226 279q0 -13 -9 -22t-22 -9t-22 9t-9 22t9 22t22 9t22 -9t9 -22zM288 279q0 -13 -9 -22t-22 -9t-22 9t-9 22t9 22t22 9t22 -9t9 -22zM102 279q0 -13 -9 -22t-22 -9t-22 9t-9 22t9 22t22 9t22 -9t9 -22 z" />
<glyph unicode="&#x2011;" horiz-adv-x="328" d="M164 279q0 -13 -9 -22t-22 -9t-22 9t-9 22t9 22t22 9t22 -9t9 -22zM226 279q0 -13 -9 -22t-22 -9t-22 9t-9 22t9 22t22 9t22 -9t9 -22zM288 279q0 -13 -9 -22t-22 -9t-22 9t-9 22t9 22t22 9t22 -9t9 -22zM102 279q0 -13 -9 -22t-22 -9t-22 9t-9 22t9 22t22 9t22 -9t9 -22 z" />
<glyph unicode="&#x2013;" horiz-adv-x="514" d="M164 279q0 -13 -9 -22t-22 -9t-22 9t-9 22t9 22t22 9t22 -9t9 -22zM226 279q0 -13 -9 -22t-22 -9t-22 9t-9 22t9 22t22 9t22 -9t9 -22zM288 279q0 -13 -9 -22t-22 -9t-22 9t-9 22t9 22t22 9t22 -9t9 -22zM102 279q0 -13 -9 -22t-22 -9t-22 9t-9 22t9 22t22 9t22 -9t9 -22 zM412 279q0 -13 -9 -22t-22 -9t-22 9t-9 22t9 22t22 9t22 -9t9 -22zM474 279q0 -13 -9 -22t-22 -9t-22 9t-9 22t9 22t22 9t22 -9t9 -22zM350 279q0 -13 -9 -22t-22 -9t-22 9t-9 22t9 22t22 9t22 -9t9 -22z" />
<glyph unicode="&#x2014;" horiz-adv-x="638" d="M164 279q0 -13 -9 -22t-22 -9t-22 9t-9 22t9 22t22 9t22 -9t9 -22zM226 279q0 -13 -9 -22t-22 -9t-22 9t-9 22t9 22t22 9t22 -9t9 -22zM288 279q0 -13 -9 -22t-22 -9t-22 9t-9 22t9 22t22 9t22 -9t9 -22zM102 279q0 -13 -9 -22t-22 -9t-22 9t-9 22t9 22t22 9t22 -9t9 -22 zM412 279q0 -13 -9 -22t-22 -9t-22 9t-9 22t9 22t22 9t22 -9t9 -22zM474 279q0 -13 -9 -22t-22 -9t-22 9t-9 22t9 22t22 9t22 -9t9 -22zM536 279q0 -13 -9 -22t-22 -9t-22 9t-9 22t9 22t22 9t22 -9t9 -22zM350 279q0 -13 -9 -22t-22 -9t-22 9t-9 22t9 22t22 9t22 -9t9 -22z M598 279q0 -13 -9 -22t-22 -9t-22 9t-9 22t9 22t22 9t22 -9t9 -22z" />
<glyph unicode="&#x2018;" horiz-adv-x="175" d="M82 547q0 13 9 22t22 9t22 -9t9 -22t-9 -22t-22 -9t-22 9t-9 22zM40 470q0 17 12.5 29.5t29.5 12.5t29.5 -12.5t12.5 -29.5t-12.5 -29t-29.5 -12t-29.5 12t-12.5 29zM117 601q0 8 5.5 13.5t13.5 5.5t13.5 -5.5t5.5 -13.5q0 -7 -5.5 -12.5t-13.5 -5.5t-13.5 5.5t-5.5 12.5 z" />
<glyph unicode="&#x2019;" horiz-adv-x="175" d="M135 579q0 -17 -12.5 -29.5t-29.5 -12.5t-29.5 12.5t-12.5 29.5t12.5 29t29.5 12t29.5 -12t12.5 -29zM93 502q0 -13 -9 -22t-22 -9t-22 9t-9 22t9 22t22 9t22 -9t9 -22zM58 448q0 -8 -5.5 -13.5t-13.5 -5.5t-13.5 5.5t-5.5 13.5q0 7 5.5 12.5t13.5 5.5t13.5 -5.5 t5.5 -12.5z" />
<glyph unicode="&#x201a;" horiz-adv-x="175" d="M135 42q0 -17 -12.5 -29.5t-29.5 -12.5t-29.5 12.5t-12.5 29.5t12.5 29t29.5 12t29.5 -12t12.5 -29zM93 -35q0 -13 -9 -22t-22 -9t-22 9t-9 22t9 22t22 9t22 -9t9 -22zM58 -89q0 -8 -5.5 -13.5t-13.5 -5.5t-13.5 5.5t-5.5 13.5q0 7 5.5 12.5t13.5 5.5t13.5 -5.5 t5.5 -12.5z" />
<glyph unicode="&#x201c;" horiz-adv-x="269" d="M176 547q0 13 9 22t22 9t22 -9t9 -22t-9 -22t-22 -9t-22 9t-9 22zM134 470q0 17 12.5 29.5t29.5 12.5t29.5 -12.5t12.5 -29.5t-12.5 -29t-29.5 -12t-29.5 12t-12.5 29zM211 601q0 8 5.5 13.5t13.5 5.5t13.5 -5.5t5.5 -13.5q0 -7 -5.5 -12.5t-13.5 -5.5t-13.5 5.5 t-5.5 12.5zM82 547q0 13 9 22t22 9t22 -9t9 -22t-9 -22t-22 -9t-22 9t-9 22zM40 470q0 17 12.5 29.5t29.5 12.5t29.5 -12.5t12.5 -29.5t-12.5 -29t-29.5 -12t-29.5 12t-12.5 29zM117 601q0 8 5.5 13.5t13.5 5.5t13.5 -5.5t5.5 -13.5q0 -7 -5.5 -12.5t-13.5 -5.5t-13.5 5.5 t-5.5 12.5z" />
<glyph unicode="&#x201d;" horiz-adv-x="269" d="M135 579q0 -17 -12.5 -29.5t-29.5 -12.5t-29.5 12.5t-12.5 29.5t12.5 29t29.5 12t29.5 -12t12.5 -29zM93 502q0 -13 -9 -22t-22 -9t-22 9t-9 22t9 22t22 9t22 -9t9 -22zM58 448q0 -8 -5.5 -13.5t-13.5 -5.5t-13.5 5.5t-5.5 13.5q0 7 5.5 12.5t13.5 5.5t13.5 -5.5 t5.5 -12.5zM229 579q0 -17 -12.5 -29.5t-29.5 -12.5t-29.5 12.5t-12.5 29.5t12.5 29t29.5 12t29.5 -12t12.5 -29zM187 502q0 -13 -9 -22t-22 -9t-22 9t-9 22t9 22t22 9t22 -9t9 -22zM152 448q0 -8 -5.5 -13.5t-13.5 -5.5t-13.5 5.5t-5.5 13.5q0 7 5.5 12.5t13.5 5.5 t13.5 -5.5t5.5 -12.5z" />
<glyph unicode="&#x201e;" horiz-adv-x="269" d="M135 42q0 -17 -12.5 -29.5t-29.5 -12.5t-29.5 12.5t-12.5 29.5t12.5 29t29.5 12t29.5 -12t12.5 -29zM93 -35q0 -13 -9 -22t-22 -9t-22 9t-9 22t9 22t22 9t22 -9t9 -22zM58 -89q0 -8 -5.5 -13.5t-13.5 -5.5t-13.5 5.5t-5.5 13.5q0 7 5.5 12.5t13.5 5.5t13.5 -5.5 t5.5 -12.5zM229 42q0 -17 -12.5 -29.5t-29.5 -12.5t-29.5 12.5t-12.5 29.5t12.5 29t29.5 12t29.5 -12t12.5 -29zM187 -35q0 -13 -9 -22t-22 -9t-22 9t-9 22t9 22t22 9t22 -9t9 -22zM152 -89q0 -8 -5.5 -13.5t-13.5 -5.5t-13.5 5.5t-5.5 13.5q0 7 5.5 12.5t13.5 5.5 t13.5 -5.5t5.5 -12.5z" />
<glyph unicode="&#x2022;" horiz-adv-x="554" d="M246 31q0 -13 -9 -22t-22 -9t-22 9t-9 22t9 22t22 9t22 -9t9 -22zM308 31q0 -13 -9 -22t-22 -9t-22 9t-9 22t9 22t22 9t22 -9t9 -22zM370 31q0 -13 -9 -22t-22 -9t-22 9t-9 22t9 22t22 9t22 -9t9 -22zM184 31q0 -13 -9 -22t-22 -9t-22 9t-9 22t9 22t22 9t22 -9t9 -22z M246 589q0 -13 -9 -22t-22 -9t-22 9t-9 22t9 22t22 9t22 -9t9 -22zM308 589q0 -13 -9 -22t-22 -9t-22 9t-9 22t9 22t22 9t22 -9t9 -22zM370 589q0 -13 -9 -22t-22 -9t-22 9t-9 22t9 22t22 9t22 -9t9 -22zM184 589q0 -13 -9 -22t-22 -9t-22 9t-9 22t9 22t22 9t22 -9t9 -22z M122 155q0 -13 -9 -22t-22 -9t-22 9t-9 22t9 22t22 9t22 -9t9 -22zM122 217q0 -13 -9 -22t-22 -9t-22 9t-9 22t9 22t22 9t22 -9t9 -22zM122 279q0 -13 -9 -22t-22 -9t-22 9t-9 22t9 22t22 9t22 -9t9 -22zM122 341q0 -13 -9 -22t-22 -9t-22 9t-9 22t9 22t22 9t22 -9t9 -22z M122 403q0 -13 -9 -22t-22 -9t-22 9t-9 22t9 22t22 9t22 -9t9 -22zM122 465q0 -13 -9 -22t-22 -9t-22 9t-9 22t9 22t22 9t22 -9t9 -22zM122 527q0 -13 -9 -22t-22 -9t-22 9t-9 22t9 22t22 9t22 -9t9 -22zM122 93q0 -13 -9 -22t-22 -9t-22 9t-9 22t9 22t22 9t22 -9t9 -22z M432 31q0 -13 -9 -22t-22 -9t-22 9t-9 22t9 22t22 9t22 -9t9 -22zM432 589q0 -13 -9 -22t-22 -9t-22 9t-9 22t9 22t22 9t22 -9t9 -22zM494 155q0 -13 -9 -22t-22 -9t-22 9t-9 22t9 22t22 9t22 -9t9 -22zM494 217q0 -13 -9 -22t-22 -9t-22 9t-9 22t9 22t22 9t22 -9t9 -22z M494 279q0 -13 -9 -22t-22 -9t-22 9t-9 22t9 22t22 9t22 -9t9 -22zM494 341q0 -13 -9 -22t-22 -9t-22 9t-9 22t9 22t22 9t22 -9t9 -22zM494 403q0 -13 -9 -22t-22 -9t-22 9t-9 22t9 22t22 9t22 -9t9 -22zM494 465q0 -13 -9 -22t-22 -9t-22 9t-9 22t9 22t22 9t22 -9t9 -22z M494 527q0 -13 -9 -22t-22 -9t-22 9t-9 22t9 22t22 9t22 -9t9 -22zM494 93q0 -13 -9 -22t-22 -9t-22 9t-9 22t9 22t22 9t22 -9t9 -22z" />
<glyph unicode="&#x2026;" horiz-adv-x="434" d="M259 42q0 -17 -12.5 -29.5t-29.5 -12.5t-29.5 12.5t-12.5 29.5t12.5 29t29.5 12t29.5 -12t12.5 -29zM394 42q0 -17 -12.5 -29.5t-29.5 -12.5t-29.5 12.5t-12.5 29.5t12.5 29t29.5 12t29.5 -12t12.5 -29zM124 42q0 -17 -12.5 -29.5t-29.5 -12.5t-29.5 12.5t-12.5 29.5 t12.5 29t29.5 12t29.5 -12t12.5 -29z" />
<glyph unicode="&#x202f;" horiz-adv-x="243" />
<glyph unicode="&#x2039;" horiz-adv-x="328" d="M164 155q0 -13 -9 -22t-22 -9t-22 9t-9 22t9 22t22 9t22 -9t9 -22zM164 279q0 -13 -9 -22t-22 -9t-22 9t-9 22t9 22t22 9t22 -9t9 -22zM226 341q0 -13 -9 -22t-22 -9t-22 9t-9 22t9 22t22 9t22 -9t9 -22zM226 93q0 -13 -9 -22t-22 -9t-22 9t-9 22t9 22t22 9t22 -9t9 -22z M102 217q0 -13 -9 -22t-22 -9t-22 9t-9 22t9 22t22 9t22 -9t9 -22zM288 31q0 -13 -9 -22t-22 -9t-22 9t-9 22t9 22t22 9t22 -9t9 -22zM288 403q0 -13 -9 -22t-22 -9t-22 9t-9 22t9 22t22 9t22 -9t9 -22z" />
<glyph unicode="&#x203a;" horiz-adv-x="328" d="M164 155q0 13 9 22t22 9t22 -9t9 -22t-9 -22t-22 -9t-22 9t-9 22zM164 279q0 13 9 22t22 9t22 -9t9 -22t-9 -22t-22 -9t-22 9t-9 22zM102 341q0 13 9 22t22 9t22 -9t9 -22t-9 -22t-22 -9t-22 9t-9 22zM102 93q0 13 9 22t22 9t22 -9t9 -22t-9 -22t-22 -9t-22 9t-9 22z M226 217q0 13 9 22t22 9t22 -9t9 -22t-9 -22t-22 -9t-22 9t-9 22zM40 31q0 13 9 22t22 9t22 -9t9 -22t-9 -22t-22 -9t-22 9t-9 22zM40 403q0 13 9 22t22 9t22 -9t9 -22t-9 -22t-22 -9t-22 9t-9 22z" />
<glyph unicode="&#x205f;" horiz-adv-x="304" />
<glyph unicode="&#x20ac;" horiz-adv-x="452" d="M246 31q0 -13 -9 -22t-22 -9t-22 9t-9 22t9 22t22 9t22 -9t9 -22zM308 31q0 -13 -9 -22t-22 -9t-22 9t-9 22t9 22t22 9t22 -9t9 -22zM370 31q0 -13 -9 -22t-22 -9t-22 9t-9 22t9 22t22 9t22 -9t9 -22zM184 31q0 -13 -9 -22t-22 -9t-22 9t-9 22t9 22t22 9t22 -9t9 -22z M246 589q0 -13 -9 -22t-22 -9t-22 9t-9 22t9 22t22 9t22 -9t9 -22zM308 589q0 -13 -9 -22t-22 -9t-22 9t-9 22t9 22t22 9t22 -9t9 -22zM370 589q0 -13 -9 -22t-22 -9t-22 9t-9 22t9 22t22 9t22 -9t9 -22zM184 589q0 -13 -9 -22t-22 -9t-22 9t-9 22t9 22t22 9t22 -9t9 -22z M184 341q0 -13 -9 -22t-22 -9t-22 9t-9 22t9 22t22 9t22 -9t9 -22zM246 341q0 -13 -9 -22t-22 -9t-22 9t-9 22t9 22t22 9t22 -9t9 -22zM308 341q0 -13 -9 -22t-22 -9t-22 9t-9 22t9 22t22 9t22 -9t9 -22zM122 341q0 -13 -9 -22t-22 -9t-22 9t-9 22t9 22t22 9t22 -9t9 -22z M184 217q0 -13 -9 -22t-22 -9t-22 9t-9 22t9 22t22 9t22 -9t9 -22zM246 217q0 -13 -9 -22t-22 -9t-22 9t-9 22t9 22t22 9t22 -9t9 -22zM308 217q0 -13 -9 -22t-22 -9t-22 9t-9 22t9 22t22 9t22 -9t9 -22zM122 217q0 -13 -9 -22t-22 -9t-22 9t-9 22t9 22t22 9t22 -9t9 -22z M122 155q0 -13 -9 -22t-22 -9t-22 9t-9 22t9 22t22 9t22 -9t9 -22zM122 279q0 -13 -9 -22t-22 -9t-22 9t-9 22t9 22t22 9t22 -9t9 -22zM122 403q0 -13 -9 -22t-22 -9t-22 9t-9 22t9 22t22 9t22 -9t9 -22zM122 465q0 -13 -9 -22t-22 -9t-22 9t-9 22t9 22t22 9t22 -9t9 -22z M122 527q0 -13 -9 -22t-22 -9t-22 9t-9 22t9 22t22 9t22 -9t9 -22zM122 93q0 -13 -9 -22t-22 -9t-22 9t-9 22t9 22t22 9t22 -9t9 -22zM432 31q0 -13 -9 -22t-22 -9t-22 9t-9 22t9 22t22 9t22 -9t9 -22zM432 527q0 -13 -9 -22t-22 -9t-22 9t-9 22t9 22t22 9t22 -9t9 -22z M370 341q0 -13 -9 -22t-22 -9t-22 9t-9 22t9 22t22 9t22 -9t9 -22z" />
<glyph unicode="&#x2122;" horiz-adv-x="598" d="M330 465q0 -13 -9 -22t-22 -9t-22 9t-9 22t9 22t22 9t22 -9t9 -22zM392 465q0 13 9 22t22 9t22 -9t9 -22t-9 -22t-22 -9t-22 9t-9 22zM330 527q0 13 9 22t22 9t22 -9t9 -22t-9 -22t-22 -9t-22 9t-9 22zM82 589q0 -13 -9 -22t-22 -9t-22 9t-9 22t9 22t22 9t22 -9t9 -22z M144 465q0 -13 -9 -22t-22 -9t-22 9t-9 22t9 22t22 9t22 -9t9 -22zM144 527q0 -13 -9 -22t-22 -9t-22 9t-9 22t9 22t22 9t22 -9t9 -22zM144 589q0 -13 -9 -22t-22 -9t-22 9t-9 22t9 22t22 9t22 -9t9 -22zM206 589q0 -13 -9 -22t-22 -9t-22 9t-9 22t9 22t22 9t22 -9t9 -22z M330 527q0 -13 -9 -22t-22 -9t-22 9t-9 22t9 22t22 9t22 -9t9 -22zM330 589q0 -13 -9 -22t-22 -9t-22 9t-9 22t9 22t22 9t22 -9t9 -22zM516 527q0 -13 -9 -22t-22 -9t-22 9t-9 22t9 22t22 9t22 -9t9 -22zM578 465q0 -13 -9 -22t-22 -9t-22 9t-9 22t9 22t22 9t22 -9t9 -22z M578 527q0 -13 -9 -22t-22 -9t-22 9t-9 22t9 22t22 9t22 -9t9 -22zM578 589q0 -13 -9 -22t-22 -9t-22 9t-9 22t9 22t22 9t22 -9t9 -22z" />
</font>
</defs>
</svg>
